<?xml version="1.0" standalone="no"?>
<!DOCTYPE svg PUBLIC "-//W3C//DTD SVG 1.0//EN" "http://www.w3.org/TR/2001/REC-SVG-20010904/DTD/svg10.dtd">
<svg xmlns="http://www.w3.org/2000/svg" xmlns:xlink="http://www.w3.org/1999/xlink" id="body_1" width="764" height="380">

<defs>
    <clipPath  id="1">

    <path id=""  clip-rule="evenodd" transform="matrix(1 0 0 1 0 0)"  d="M0 285L0 -0.5217896L0 -0.5217896L573.6812 -0.5217896L573.6812 -0.5217896L573.6812 285L573.6812 285L0 285z" />    </clipPath>
    <clipPath  id="2">

    <path id=""  clip-rule="evenodd" transform="matrix(1 0 0 1 0 0)"  d="M0 285.4782L574 285.4782L574 285.4782L574 -0.5217896L574 -0.5217896L0 -0.5217896z" />    </clipPath>
    <clipPath  id="3">

    <path id=""  clip-rule="evenodd" transform="matrix(1 0 0 1 0 0)"  d="M0 -0.5217896L573.68 -0.5217896L573.68 -0.5217896L573.68 285.0012L573.68 285.0012L0 285.0012z" />    </clipPath>
    <clipPath  id="4">

    <path id=""  clip-rule="evenodd" transform="matrix(1 0 0 1 0 0)"  d="M0 285.4782L574 285.4782L574 285.4782L574 -0.5217896L574 -0.5217896L0 -0.5217896z" />    </clipPath>
    <clipPath  id="5">

    <path id=""  clip-rule="evenodd" transform="matrix(1 0 0 1 0 0)"  d="M0 285.4782L574 285.4782L574 285.4782L574 -0.5217896L574 -0.5217896L0 -0.5217896z" />    </clipPath>
    <clipPath  id="6">

    <path id=""  clip-rule="evenodd" transform="matrix(1 0 0 1 0 0)"  d="M0 -4.681793L575 -4.681793L575 -4.681793L575 285.3182L575 285.3182L0 285.3182z" />    </clipPath>
    <clipPath  id="7">

    <path id=""  clip-rule="evenodd" transform="matrix(1 0 0 1 0 0)"  d="M0 285.4782L574 285.4782L574 285.4782L574 -0.5217896L574 -0.5217896L0 -0.5217896z" />    </clipPath>
</defs>

<g transform="matrix(1.3333 0 0 1.3333 0 0)">
	<g clip-path="url(#1)" >
		<g>
			<g clip-path="url(#2)" >
				<g clip-path="url(#3)" >
					<g>
						<g clip-path="url(#4)" >
							<g>
								<g clip-path="url(#5)" >
    <path id=""  transform="matrix(1 0 0 -1 0 285)"  d="M118.375 142.5998L573.68 142.5998L573.68 142.5998L573.68 -0.002212077L573.68 -0.002212077L118.375 -0.002212077z" stroke="none" fill="#595959" fill-rule="nonzero" />
								</g>
							</g>
						</g>
					</g>
				</g>
				<g clip-path="url(#6)" >
					<g>
						<g clip-path="url(#7)" >
    <path id=""  transform="matrix(1 0 0 -1 0 285)"  d="M0 285.5218L573.68 285.5218L573.68 285.5218L573.68 142.5998L573.68 142.5998L0 142.5998z" stroke="none" fill="#ED8C01" fill-rule="nonzero" />
    <path id=""  transform="matrix(1 0 0 -1 0 285)"  d="M491.535 249.3968C 506.055 249.3968 512.867 232.5688 512.867 214.4478C 512.867 194.5338 505.543 178.7248 491.402 178.7248C 477.398 178.7248 469.824 194.6628 469.824 214.0648C 469.824 232.1778 476.633 249.3968 491.535 249.3968M492.047 264.9438C 466.219 264.9438 449.898 243.2288 449.898 213.6778C 449.898 185.0178 464.68 163.1738 490.762 163.1738C 515.312 163.1738 532.781 180.7838 532.781 215.2168C 532.781 241.5568 519.414 264.9438 492.047 264.9438M390.793 164.5918L409.812 164.5918L409.812 164.5918L409.812 263.4048L409.812 263.4048L390.793 263.4048zM293.266 248.4988C 295.324 248.8808 298.277 249.2718 302.262 249.2718C 319.863 249.2718 330.789 238.2168 330.789 215.8578C 330.789 189.9088 318.707 178.7248 300.586 178.8578C 298.023 178.8578 295.195 178.8578 293.266 179.2368zM274.379 164.9788C 279.387 164.3338 286.715 163.6898 295.836 163.6898C 313.059 163.6898 326.805 167.6738 335.801 175.7718C 343.379 182.5768 350.703 194.9168 350.703 216.1158C 350.703 233.9788 345.18 246.1898 335.801 253.8928C 327.57 260.7058 316.398 264.1778 299.949 264.1778C 290.312 264.1778 281.316 263.4048 274.379 262.1198zM229.656 263.5338L210.645 263.5338L210.645 263.5338L210.645 203.7838C 210.645 186.1858 204.348 178.8578 194.07 178.8578C 184.301 178.8578 177.75 186.4318 177.75 203.7838L177.75 203.7838L177.75 263.5338L177.75 263.5338L158.73 263.5338L158.73 263.5338L158.73 205.4558C 158.73 176.4088 171.324 163.1738 193.555 163.1738C 215.914 163.1738 229.656 176.6668 229.656 205.5808zM69.68 205.0688L75.598 227.6858C 77.008 233.4598 78.68 241.5568 79.961 247.7248L79.961 247.7248L80.348 247.7248C 81.629 241.6898 83.305 233.7248 84.848 227.5528L84.848 227.5528L90.754 205.0688zM92.812 263.4048L68.91 263.4048L68.91 263.4048L40.898 164.5918L40.898 164.5918L60.176 164.5918L60.176 164.5918L66.984 190.6738L66.984 190.6738L93.457 190.6738L93.457 190.6738L100.523 164.5918L100.523 164.5918L120.438 164.5918z" stroke="none" fill="#FFFFFF" fill-rule="nonzero" />
    <path id=""  transform="matrix(1 0 0 -1 0 285)"  d="M525.09 117.4048C 520.461 119.7168 513.27 121.9008 503.891 121.9008C 482.559 121.9008 469.832 109.4358 469.832 93.24479C 469.832 80.39279 479.086 71.14679 494 64.71679C 504.914 59.96679 509.668 55.72079 509.668 48.65479C 509.668 41.33779 504.145 36.31879 493.602 36.31879C 485.645 36.31879 477.418 38.76379 472.277 41.84979L472.277 41.84979L468.547 25.91679C 473.172 23.08779 483.07 20.38879 492.84 20.38879C 515.84 20.38879 528.816 32.97879 528.816 50.19779C 528.816 63.17779 521.75 72.30279 505.941 79.36579C 493.867 84.88879 488.98 88.10779 488.98 95.17379C 488.98 100.6978 493.477 106.0958 503.5 106.0958C 511.59 106.0958 517.637 103.6548 521.102 101.8538L521.102 101.8538L525.09 117.4048M385.805 66.39279L392.863 66.39279C 402.625 66.39279 412.395 62.27579 412.395 50.83779C 412.395 39.65879 403.66 35.03379 393.375 35.03379C 390.035 35.03379 387.73 35.16979 385.805 35.54879zM385.805 80.26379L385.805 106.4788C 387.473 106.8658 390.035 107.1238 394.148 107.1238C 402.625 107.1238 409.953 103.9128 409.953 94.14279C 409.953 86.04879 403.535 80.26379 392.734 80.26379zM413.047 74.99879C 423.578 78.97879 428.844 87.33079 428.844 96.32679C 428.844 104.4238 425.121 110.9788 419.207 114.9628C 412.395 119.7168 403.914 121.2558 391.969 121.2558C 382.332 121.2558 372.562 120.3578 366.914 119.2058L366.914 119.2058L366.914 22.05679C 371.535 21.41279 378.602 20.77579 387.977 20.77579C 405.59 20.77579 416.633 23.99079 423.316 30.02179C 429.102 35.16979 432.316 42.61979 432.316 50.33079C 432.316 62.91279 424.09 71.65879 413.047 74.48679zM277.605 62.15479L283.516 84.76779C 284.93 90.54879 286.598 98.64279 287.887 104.8068L287.887 104.8068L288.27 104.8068C 289.551 98.76779 291.23 90.80679 292.77 84.63479L292.77 84.63479L298.684 62.15479zM300.73 120.4868L276.84 120.4868L276.84 120.4868L248.82 21.66979L248.82 21.66979L268.098 21.66979L268.098 21.66979L274.906 47.75579L274.906 47.75579L301.379 47.75579L301.379 47.75579L308.449 21.66979L308.449 21.66979L328.363 21.66979zM217.602 37.73279L182.258 37.73279L182.258 37.73279L182.258 120.4868L182.258 120.4868L163.246 120.4868L163.246 120.4868L163.246 21.66979L163.246 21.66979L217.602 21.66979z" stroke="none" fill="#FFFFFF" fill-rule="nonzero" />
						</g>
					</g>
				</g>
			</g>
		</g>
	</g>
</g>
</svg>