<?xml version="1.0" encoding="UTF-8" standalone="no"?>
<svg
   width="882.65979"
   height="368.90024"
   overflow="hidden"
   version="1.1"
   id="svg67"
   xmlns="http://www.w3.org/2000/svg"
   xmlns:svg="http://www.w3.org/2000/svg">
  <defs
     id="defs67">
    <clipPath
       clipPathUnits="userSpaceOnUse"
       id="clipPath70">
      <rect
         style="opacity:0;fill:#ffffff;stroke:#000000;stroke-width:3.024"
         id="rect71"
         width="882.65979"
         height="368.90024"
         x="199.48849"
         y="169.41176" />
    </clipPath>
    <clipPath
       clipPathUnits="userSpaceOnUse"
       id="clipPath71">
      <rect
         style="opacity:0;fill:#ffffff;stroke:#000000;stroke-width:3.024"
         id="rect72"
         width="882.65979"
         height="368.90024"
         x="199.48849"
         y="169.41176" />
    </clipPath>
    <clipPath
       clipPathUnits="userSpaceOnUse"
       id="clipPath72">
      <rect
         style="opacity:0;fill:#ffffff;stroke:#000000;stroke-width:3.024"
         id="rect73"
         width="882.65979"
         height="368.90024"
         x="199.48849"
         y="169.41176" />
    </clipPath>
  </defs>
  <g
     id="g67"
     clip-path="url(#clipPath72)"
     transform="translate(-199.48849,-169.41176)">
    <path
       id="rect1"
       style="fill:#ffffff"
       d="M 0,0 H 1280 V 720 H 0 Z" />
    <path
       d="m 1.5624975,0 v -15.270809 h 2.0208302 v 7.5729045 l 7.5833213,-7.5729045 h 2.739579 L 7.4999882,-9.083319 14.187478,0 H 11.520815 L 6.0833237,-7.7291545 3.5833277,-5.2916583 V 0 Z M 25.49996,-8.9791525 H 15.416642 V -10.72915 H 25.49996 Z m 0,4.6354094 H 15.416642 V -6.0937404 H 25.49996 Z m 2.08333,0.3124995 1.874997,-0.2499996 q 0.322916,1.5937474 1.093748,2.3020797 0.781249,0.6979155 1.895831,0.6979155 1.322914,0 2.229163,-0.9166652 0.916665,-0.9166652 0.916665,-2.2708297 0,-1.2916647 -0.843749,-2.1249967 -0.843748,-0.8437487 -2.14583,-0.8437487 -0.531249,0 -1.322914,0.2083331 l 0.208333,-1.6458308 q 0.187499,0.020833 0.302083,0.020833 1.197914,0 2.156246,-0.624999 0.958332,-0.624999 0.958332,-1.92708 0,-1.031248 -0.697916,-1.708331 -0.697915,-0.677082 -1.80208,-0.677082 -1.093748,0 -1.822914,0.687499 -0.729165,0.687499 -0.937498,2.062497 l -1.874997,-0.333333 q 0.343749,-1.885414 1.562497,-2.916662 1.218748,-1.041665 3.031245,-1.041665 1.249998,0 2.30208,0.541666 1.052082,0.531249 1.604164,1.458331 0.562499,0.927082 0.562499,1.968747 0,0.989581 -0.531249,1.8020798 -0.531249,0.8124987 -1.572914,1.2916646 1.354165,0.3124995 2.104163,1.3020813 0.749999,0.9791651 0.749999,2.4583295 0,1.9999968 -1.458331,3.3958279 -1.458331,1.38541451 -3.687494,1.38541451 -2.010414,0 -3.343745,-1.19791478 Q 27.77079,-2.1249966 27.58329,-4.0312436 Z M 40.447855,0 v -2.1354133 h 2.135413 V 0 q 0,1.1770815 -0.416666,1.8958303 -0.416666,0.7291656 -1.322914,1.1249983 L 40.322855,2.2187465 Q 40.916604,1.9583302 41.197854,1.4479144 41.479104,0.94791517 41.510354,0 Z m 11.604146,0 v -15.270809 h 5.760407 q 1.520831,0 2.322913,0.145833 1.124998,0.1875 1.885414,0.718749 0.760415,0.520832 1.218748,1.468747 0.468749,0.947916 0.468749,2.08333 0,1.9479141 -1.239581,3.3020786 -1.239582,1.3437479 -4.47916,1.3437479 h -3.91666 V 0 Z m 2.02083,-8.010404 h 3.94791 q 1.95833,0 2.781246,-0.7291655 0.822915,-0.7291655 0.822915,-2.0520805 0,-0.958331 -0.489582,-1.635414 -0.479166,-0.687499 -1.270832,-0.906248 -0.510416,-0.135417 -1.885413,-0.135417 H 54.072831 Z M 75.90613,-8.9791525 H 65.822813 V -10.72915 H 75.90613 Z m 0,4.6354094 H 65.822813 V -6.0937404 H 75.90613 Z m 2.072913,-3.187495 q 0,-2.7083289 0.552083,-4.3541599 0.562499,-1.656247 1.656247,-2.552079 1.104165,-0.895832 2.770829,-0.895832 1.229165,0 2.156247,0.499999 0.927081,0.489583 1.531247,1.427081 0.604166,0.927082 0.947915,2.27083 0.34375,1.3333311 0.34375,3.6041609 0,2.6874958 -0.552083,4.3437431 -0.552082,1.6458308 -1.656247,2.55207934 -1.093748,0.89583192 -2.770829,0.89583192 -2.20833,0 -3.468745,-1.58333086 -1.510414,-1.906247 -1.510414,-6.2083235 z m 1.92708,0 q 0,3.7604107 0.874999,5.0104087 0.885415,1.2395814 2.17708,1.2395814 1.291665,0 2.166663,-1.249998 0.885416,-1.249998 0.885416,-4.9999921 0,-3.7708269 -0.885416,-5.0104089 -0.874998,-1.239581 -2.187496,-1.239581 -1.291665,0 -2.062497,1.093748 -0.968749,1.395831 -0.968749,5.1562419 z M 90.854021,0 v -2.1354133 h 2.135414 V 0 q 0,1.1770815 -0.416666,1.8958303 -0.416666,0.7291656 -1.322915,1.1249983 L 90.729021,2.2187465 Q 91.322771,1.9583302 91.60402,1.4479144 91.88527,0.94791517 91.91652,0 Z m 10.916649,-4.9062423 1.90625,-0.1666664 q 0.13542,1.1458316 0.625,1.8854137 0.5,0.7291655 1.54166,1.1874982 1.04167,0.4479159 2.34375,0.4479159 1.15625,0 2.04166,-0.3437494 0.88542,-0.3437495 1.3125,-0.9374986 0.4375,-0.6041657 0.4375,-1.3124979 0,-0.7187488 -0.41667,-1.249998 -0.41666,-0.5416658 -1.375,-0.9062486 -0.61458,-0.2395829 -2.71874,-0.7395821 -2.10416,-0.5104159 -2.94791,-0.9583319 -1.09375,-0.5729157 -1.63542,-1.4166644 -0.53125,-0.8541652 -0.53125,-1.9062472 0,-1.156248 0.65625,-2.156246 0.65625,-1.010415 1.91667,-1.531248 1.26041,-0.520832 2.80208,-0.520832 1.69791,0 2.98957,0.552082 1.30209,0.541666 2,1.604164 0.69792,1.062498 0.75,2.406246 l -1.9375,0.145833 q -0.15625,-1.447914 -1.0625,-2.187496 -0.89583,-0.739582 -2.65624,-0.739582 -1.83333,0 -2.67708,0.677082 -0.83333,0.666666 -0.83333,1.614581 0,0.822915 0.59375,1.354164 0.58333,0.5312495 3.04166,1.0937486 2.46874,0.5520824 3.38541,0.9687484 1.33333,0.6145824 1.96875,1.5624976 0.63541,0.9374985 0.63541,2.1666632 0,1.2187481 -0.69791,2.3020797 -0.69792,1.07291498 -2.01042,1.67708069 -1.30208,0.59374907 -2.93749,0.59374907 -2.07292,0 -3.47916,-0.60416572 -1.39583,-0.60416571 -2.19792,-1.81249714 -0.79166,-1.2187481 -0.83333,-2.7499957 z M 126.3123,-8.9791525 H 116.22899 V -10.72915 h 10.08331 z m 0,4.6354094 H 116.22899 V -6.0937404 H 126.3123 Z M 135.44771,0 h -1.875 v -11.947898 q -0.67708,0.645833 -1.78125,1.291665 -1.09375,0.645832 -1.96875,0.9687483 v -1.8124973 q 1.57292,-0.739582 2.75,-1.791664 1.17708,-1.052081 1.66666,-2.041663 h 1.20834 z m 5.81248,0 v -2.1354133 h 2.13542 V 0 q 0,1.1770815 -0.41667,1.8958303 -0.41666,0.7291656 -1.32291,1.1249983 L 141.1352,2.2187465 Q 141.72894,1.9583302 142.01019,1.4479144 142.29144,0.94791517 142.32269,0 Z m 11.60415,0 v -15.270809 h 5.2604 q 1.78125,0 2.71875,0.218749 1.3125,0.302083 2.23958,1.093749 1.20833,1.020831 1.80208,2.614579 0.60417,1.5833308 0.60417,3.6249942 0,1.7395806 -0.40625,3.0833285 -0.40625,1.3437478 -1.04167,2.2291631 -0.63541,0.8749986 -1.39583,1.3854145 -0.75,0.49999919 -1.82291,0.76041544 Q 159.76016,0 158.37474,0 Z m 2.02083,-1.8020805 h 3.26041 q 1.51041,0 2.36458,-0.2812495 0.86458,-0.2812496 1.375,-0.7916655 0.71874,-0.7187488 1.11458,-1.9270802 0.40625,-1.2187481 0.40625,-2.9479121 0,-2.3958292 -0.79167,-3.6770772 -0.78125,-1.291665 -1.90625,-1.729164 -0.81249,-0.3125 -2.61457,-0.3125 h -3.20833 z"
       id="text1"
       style="font-size:21.3333px;font-family:Arial, Arial_MSFontService, sans-serif"
       transform="translate(229.069,203)"
       aria-label="K=3, P=0, S=1, D" />
    <path
       d="M 11.270816,-8.9791525 H 1.1874981 V -10.72915 H 11.270816 Z m 0,4.6354094 H 1.1874981 V -6.0937404 H 11.270816 Z"
       id="text2"
       style="font-size:21.3333px;font-family:Arial, Arial_MSFontService, sans-serif"
       transform="translate(395.902,203)"
       aria-label="=" />
    <path
       d="m 7.9479041,0 h -1.874997 v -11.947898 q -0.6770823,0.645833 -1.7812472,1.291665 -1.0937483,0.645832 -1.9687469,0.9687483 v -1.8124973 q 1.5729142,-0.739582 2.7499957,-1.791664 1.1770814,-1.052081 1.666664,-2.041663 h 1.2083314 z"
       id="text3"
       style="font-size:21.3333px;font-family:Arial, Arial_MSFontService, sans-serif"
       transform="translate(408.402,203)"
       aria-label="1" />
    <path
       d="M 0,0 38,38.1324"
       stroke="#000000"
       stroke-width="2.66667"
       stroke-miterlimit="8"
       fill="none"
       fill-rule="evenodd"
       transform="matrix(-1,0,0,1,311.5,258.5)"
       id="path3" />
    <path
       d="m 311.5,258.5 0.469,38.132"
       stroke="#000000"
       stroke-width="2.66667"
       stroke-miterlimit="8"
       fill="none"
       fill-rule="evenodd"
       id="path4" />
    <path
       d="m 311.5,258.5 38.336,38.132"
       stroke="#000000"
       stroke-width="2.66667"
       stroke-miterlimit="8"
       fill="none"
       fill-rule="evenodd"
       id="path5" />
    <path
       d="M 0,0 37.6,38.1324"
       stroke="#000000"
       stroke-width="2.66667"
       stroke-miterlimit="8"
       fill="none"
       fill-rule="evenodd"
       transform="matrix(-1,0,0,1,654.1,258.5)"
       id="path6" />
    <path
       d="m 653.5,258.5 0.268,38.132"
       stroke="#000000"
       stroke-width="2.66667"
       stroke-miterlimit="8"
       fill="none"
       fill-rule="evenodd"
       id="path7" />
    <path
       d="m 653.5,258.5 38.07,38.132"
       stroke="#000000"
       stroke-width="2.66667"
       stroke-miterlimit="8"
       fill="none"
       fill-rule="evenodd"
       id="path8" />
    <path
       id="rect8"
       style="fill:#ffc8c8;stroke:#ff0000;stroke-width:2.66667;stroke-miterlimit:8"
       d="m 292.5,220.5 h 38 v 38 h -38 z" />
    <path
       id="rect9"
       style="fill:#ffffff;stroke:#ff0000;stroke-width:2.66667;stroke-miterlimit:8"
       d="m 331.5,220.5 h 37 v 38 h -37 z" />
    <path
       id="rect10"
       style="fill:#ffffff;stroke:#ff0000;stroke-width:2.66667;stroke-miterlimit:8"
       d="m 596.5,220.5 h 38 v 38 h -38 z" />
    <path
       id="rect11"
       style="fill:#ffc8c8;stroke:#ff0000;stroke-width:2.66667;stroke-miterlimit:8"
       d="m 635.5,220.5 h 37 v 38 h -37 z" />
    <path
       d="M 0,0 37.7641,38.1324"
       stroke="#000000"
       stroke-width="2.66667"
       stroke-miterlimit="8"
       fill="none"
       fill-rule="evenodd"
       transform="matrix(-1,0,0,1,891.264,258.5)"
       id="path11" />
    <path
       d="M 0,0 0.56315,38.1324"
       stroke="#000000"
       stroke-width="2.66667"
       stroke-miterlimit="8"
       fill="none"
       fill-rule="evenodd"
       transform="matrix(-1,0,0,1,891.063,258.5)"
       id="path12" />
    <path
       d="m 891.5,258.5 37.906,38.132"
       stroke="#000000"
       stroke-width="2.66667"
       stroke-miterlimit="8"
       fill="none"
       fill-rule="evenodd"
       id="path13" />
    <path
       id="rect13"
       style="fill:#ffc8c8;stroke:#ff0000;stroke-width:2.66667;stroke-miterlimit:8"
       d="m 872.5,220.5 h 38 v 38 h -38 z" />
    <path
       id="rect14"
       style="fill:#ffffff;stroke:#ff0000;stroke-width:2.66667;stroke-miterlimit:8"
       d="m 911.5,220.5 h 37 v 38 h -37 z" />
    <path
       id="rect15"
       style="fill:#ffffff;stroke:#ff0000;stroke-width:2.66667;stroke-miterlimit:8"
       d="m 948.5,220.5 h 38 v 38 h -38 z" />
    <path
       id="rect16"
       style="fill:#ffffff;stroke:#ff0000;stroke-width:2.66667;stroke-miterlimit:8"
       d="m 986.5,220.5 h 37.9999 v 38 H 986.5 Z" />
    <path
       d="M 0,0 37.6,38.1324"
       stroke="#000000"
       stroke-width="2.66667"
       stroke-miterlimit="8"
       fill="none"
       fill-rule="evenodd"
       transform="matrix(-1,0,0,1,350.1,441.5)"
       id="path16" />
    <path
       d="m 349.5,441.5 0.268,38.132"
       stroke="#000000"
       stroke-width="2.66667"
       stroke-miterlimit="8"
       fill="none"
       fill-rule="evenodd"
       id="path17" />
    <path
       d="m 349.5,441.5 38.07,38.132"
       stroke="#000000"
       stroke-width="2.66667"
       stroke-miterlimit="8"
       fill="none"
       fill-rule="evenodd"
       id="path18" />
    <path
       d="M 0,0 74.1004,38.1324"
       stroke="#000000"
       stroke-width="2.66667"
       stroke-miterlimit="8"
       fill="none"
       fill-rule="evenodd"
       transform="matrix(-1,0,0,1,614.6,441.5)"
       id="path19" />
    <path
       d="m 614.5,441.5 1.569,38.132"
       stroke="#000000"
       stroke-width="2.66667"
       stroke-miterlimit="8"
       fill="none"
       fill-rule="evenodd"
       id="path20" />
    <path
       d="m 614.5,441.5 77.239,38.132"
       stroke="#000000"
       stroke-width="2.66667"
       stroke-miterlimit="8"
       fill="none"
       fill-rule="evenodd"
       id="path21" />
    <path
       id="rect21"
       style="fill:#ffffff;stroke:#ff0000;stroke-width:2.66667;stroke-miterlimit:8"
       d="m 292.5,403.5 h 38 v 38 h -38 z" />
    <path
       id="rect22"
       style="fill:#ffc8c8;stroke:#ff0000;stroke-width:2.66667;stroke-miterlimit:8"
       d="m 331.5,403.5 h 37 v 38 h -37 z" />
    <path
       id="rect23"
       style="fill:#ffc8c8;stroke:#ff0000;stroke-width:2.66667;stroke-miterlimit:8"
       d="m 595.5,403.5 h 38 v 38 h -38 z" />
    <path
       id="rect24"
       style="fill:#ffffff;stroke:#ff0000;stroke-width:2.66667;stroke-miterlimit:8"
       d="m 633.5,403.5 h 38 v 38 h -38 z" />
    <path
       id="rect25"
       style="fill:#c8c8ff;stroke:#0000ff;stroke-width:2.66667;stroke-miterlimit:8"
       d="m 254.5,296.5 h 38 v 38 h -38 z" />
    <path
       id="rect26"
       style="fill:#c8c8ff;stroke:#0000ff;stroke-width:2.66667;stroke-miterlimit:8"
       d="m 293.5,296.5 h 37 v 38 h -37 z" />
    <path
       id="rect27"
       style="fill:#c8c8ff;stroke:#0000ff;stroke-width:2.66667;stroke-miterlimit:8"
       d="m 330.5,296.5 h 38 v 38 h -38 z" />
    <path
       id="rect28"
       style="fill:#ffffff;stroke:#0000ff;stroke-width:2.66667;stroke-miterlimit:8"
       d="m 368.5,296.5 h 38 v 38 h -38 z" />
    <path
       id="rect29"
       style="fill:#ffffff;stroke:#0000ff;stroke-width:2.66667;stroke-miterlimit:8;stroke-dasharray:2.66667, 2.66667"
       d="m 1024.5,296.5 h 37 v 38 h -37 z" />
    <path
       id="rect30"
       style="fill:#c8c8ff;stroke:#0000ff;stroke-width:2.66667;stroke-miterlimit:8;stroke-dasharray:2.66667, 2.66667"
       d="m 834.5,296.5 h 38 v 38 h -38 z" />
    <path
       id="rect31"
       style="fill:#c8c8ff;stroke:#0000ff;stroke-width:2.66667;stroke-miterlimit:8"
       d="m 872.5,296.5 h 37 v 38 h -37 z" />
    <path
       id="rect32"
       style="fill:#c8c8ff;stroke:#0000ff;stroke-width:2.66667;stroke-miterlimit:8"
       d="m 910.5,296.5 h 38 v 38 h -38 z" />
    <path
       id="rect33"
       style="fill:#ffffff;stroke:#0000ff;stroke-width:2.66667;stroke-miterlimit:8"
       d="m 948.5,296.5 h 38 v 38 h -38 z" />
    <path
       id="rect34"
       style="fill:#ffffff;stroke:#0000ff;stroke-width:2.66667;stroke-miterlimit:8"
       d="m 986.5,296.5 h 37.9999 v 38 H 986.5 Z" />
    <path
       id="rect35"
       style="fill:#ffffff;stroke:#0000ff;stroke-width:2.66667;stroke-miterlimit:8"
       d="m 558.5,296.5 h 38 v 38 h -38 z" />
    <path
       id="rect36"
       style="fill:#c8c8ff;stroke:#0000ff;stroke-width:2.66667;stroke-miterlimit:8"
       d="m 597.5,296.5 h 38 v 38 h -38 z" />
    <path
       id="rect37"
       style="fill:#c8c8ff;stroke:#0000ff;stroke-width:2.66667;stroke-miterlimit:8"
       d="m 635.5,296.5 h 38 v 38 h -38 z" />
    <path
       id="rect38"
       style="fill:#c8c8ff;stroke:#0000ff;stroke-width:2.66667;stroke-miterlimit:8"
       d="m 673.5,296.5 h 37 v 38 h -37 z" />
    <path
       id="rect39"
       style="fill:#ffffff;stroke:#0000ff;stroke-width:2.66667;stroke-miterlimit:8;stroke-dasharray:2.66667, 2.66667"
       d="m 711.5,479.5 h 37 v 38 h -37 z" />
    <path
       id="rect40"
       style="fill:#c8c8ff;stroke:#0000ff;stroke-width:2.66667;stroke-miterlimit:8;stroke-dasharray:2.66667, 2.66667"
       d="m 521.5,479.5 h 38 v 38 h -38 z" />
    <path
       id="rect41"
       style="fill:#ffffff;stroke:#0000ff;stroke-width:2.66667;stroke-miterlimit:8"
       d="m 559.5,479.5 h 37 v 38 h -37 z" />
    <path
       id="rect42"
       style="fill:#c8c8ff;stroke:#0000ff;stroke-width:2.66667;stroke-miterlimit:8"
       d="m 597.5,479.5 h 38 v 38 h -38 z" />
    <path
       id="rect43"
       style="fill:#ffffff;stroke:#0000ff;stroke-width:2.66667;stroke-miterlimit:8"
       d="m 635.5,479.5 h 38 v 38 h -38 z" />
    <path
       id="rect44"
       style="fill:#c8c8ff;stroke:#0000ff;stroke-width:2.66667;stroke-miterlimit:8"
       d="m 673.5,479.5 h 38 v 38 h -38 z" />
    <path
       id="rect45"
       style="fill:#ffffff;stroke:#0000ff;stroke-width:2.66667;stroke-miterlimit:8;stroke-dasharray:2.66667, 2.66667"
       d="m 406.5,479.5 h 38 v 38 h -38 z" />
    <path
       id="rect46"
       style="fill:#ffffff;stroke:#0000ff;stroke-width:2.66667;stroke-miterlimit:8;stroke-dasharray:2.66667, 2.66667"
       d="m 217.5,479.5 h 38 v 38 h -38 z" />
    <path
       id="rect47"
       style="fill:#ffffff;stroke:#0000ff;stroke-width:2.66667;stroke-miterlimit:8"
       d="m 254.5,479.5 h 38 v 38 h -38 z" />
    <path
       id="rect48"
       style="fill:#c8c8ff;stroke:#0000ff;stroke-width:2.66667;stroke-miterlimit:8"
       d="m 293.5,479.5 h 38 v 38 h -38 z" />
    <path
       id="rect49"
       style="fill:#c8c8ff;stroke:#0000ff;stroke-width:2.66667;stroke-miterlimit:8"
       d="m 331.5,479.5 h 38 v 38 h -38 z" />
    <path
       id="rect50"
       style="fill:#c8c8ff;stroke:#0000ff;stroke-width:2.66667;stroke-miterlimit:8"
       d="m 369.5,479.5 h 37 v 38 h -37 z" />
    <path
       id="rect51"
       style="fill:none;stroke:#000000;stroke-width:1.33333;stroke-miterlimit:8"
       d="m 846.5,412.5 h 200 v 86 h -200 z" />
    <path
       d="M 0,0 37.9708,1.04987e-4"
       stroke="#0000ff"
       stroke-width="2.66667"
       stroke-miterlimit="8"
       fill="none"
       fill-rule="evenodd"
       transform="matrix(-1,0,0,1,891.471,481.5)"
       id="path51" />
    <path
       d="M 0,0 37.9708,1.04987e-4"
       stroke="#ff0000"
       stroke-width="2.66667"
       stroke-miterlimit="8"
       fill="none"
       fill-rule="evenodd"
       transform="matrix(-1,0,0,1,891.471,455.5)"
       id="path52" />
    <path
       d="M 1.9895802,0 V -15.270809 H 4.0104103 V 0 Z m 5.3437415,0 v -11.062483 h 1.6874974 v 1.5729147 q 1.2187479,-1.8229137 3.5208279,-1.8229137 0.999998,0 1.83333,0.364583 0.843749,0.354166 1.260415,0.937498 0.416666,0.5833326 0.583332,1.3854146 0.104167,0.5208325 0.104167,1.8229138 V 0 h -1.874997 v -6.729156 q 0,-1.1458316 -0.21875,-1.7083307 -0.218749,-0.5729157 -0.781249,-0.9062485 -0.552082,-0.3437495 -1.302081,-0.3437495 -1.197915,0 -2.072913,0.7604155 -0.8645822,0.7604154 -0.8645822,2.8854121 V 0 Z M 19.197887,4.2395766 V -11.062483 h 1.708331 v 1.4374982 q 0.604165,-0.8437482 1.364581,-1.2604142 0.760415,-0.427083 1.843747,-0.427083 1.416664,0 2.499996,0.729165 1.083332,0.7291659 1.635414,2.0624971 0.552083,1.3229146 0.552083,2.9062454 0,1.697914 -0.614583,3.0624952 -0.604165,1.3541645 -1.77083,2.08333004 -1.156248,0.71874887 -2.437496,0.71874887 -0.937499,0 -1.687498,-0.39583271 -0.739582,-0.39583271 -1.218748,-0.9999984 v 5.3854081 z m 1.697914,-9.708318 q 0,2.1354133 0.864582,3.1562451 0.864582,1.0208317 2.093747,1.0208317 1.249998,0 2.135413,-1.0520817 0.895832,-1.0624983 0.895832,-3.2812448 0,-2.11458 -0.874999,-3.1666617 -0.864582,-1.0520817 -2.072913,-1.0520817 -1.197915,0 -2.124997,1.1249983 -0.916665,1.1145815 -0.916665,3.2499948 z M 38.312441,0 v -1.6249974 q -1.291665,1.87499701 -3.510412,1.87499701 -0.979165,0 -1.83333,-0.37499941 -0.843749,-0.37499941 -1.260415,-0.9374985 -0.406249,-0.5729158 -0.572915,-1.3958312 -0.114584,-0.5520824 -0.114584,-1.7499972 v -6.8541563 h 1.874997 v 6.1354074 q 0,1.4687477 0.114584,1.9791636 0.177083,0.7395822 0.749998,1.1666648 0.572916,0.416666 1.416665,0.416666 0.843749,0 1.583331,-0.4270826 0.739582,-0.4374993 1.041665,-1.1770815 0.312499,-0.7499988 0.312499,-2.1666633 v -5.9270744 h 1.874997 V 0 Z m 8.708318,-1.6770807 0.270832,1.6562474 q -0.791665,0.1666664 -1.416664,0.1666664 -1.020832,0 -1.583331,-0.32291615 -0.562499,-0.32291616 -0.791665,-0.84374865 -0.229167,-0.5312492 -0.229167,-2.2187465 v -6.3645733 h -1.374997 v -1.4583315 h 1.374997 v -2.739579 l 1.864581,-1.124998 v 3.864577 h 1.885414 v 1.4583315 h -1.885414 v 6.4687398 q 0,0.8020821 0.09375,1.0312484 0.104166,0.2291663 0.322916,0.3645827 0.229166,0.1354165 0.645832,0.1354165 0.3125,0 0.822916,-0.072917 z M 54.739497,0 v -15.270809 h 1.874997 V 0 Z m 11.999984,-1.3645812 q -1.041665,0.88541529 -2.010414,1.24999805 -0.958332,0.36458276 -2.062497,0.36458276 -1.822913,0 -2.802078,-0.88541527 -0.979166,-0.89583194 -0.979166,-2.28124644 0,-0.8124987 0.364583,-1.4791643 0.375,-0.6770823 0.968749,-1.0833316 0.604165,-0.4062494 1.354164,-0.6145824 0.552083,-0.1458331 1.666664,-0.2812495 2.27083,-0.2708329 3.343745,-0.6458323 0.01042,-0.3854161 0.01042,-0.4895826 0,-1.1458315 -0.53125,-1.6145808 -0.718748,-0.6354156 -2.135413,-0.6354156 -1.322914,0 -1.95833,0.4687492 -0.624999,0.4583326 -0.927082,1.6354141 l -1.83333,-0.2499996 q 0.249999,-1.1770815 0.822915,-1.8958304 0.572916,-0.7291651 1.656247,-1.1145811 1.083332,-0.395833 2.510413,-0.395833 1.416664,0 2.30208,0.333333 0.885415,0.333332 1.302081,0.843748 0.416666,0.4999996 0.583332,1.2708317 0.09375,0.4791659 0.09375,1.7291639 v 2.4999961 q 0,2.6145792 0.114583,3.3124947 Q 68.718644,-0.63541566 69.07281,0 h -1.95833 q -0.291666,-0.58333241 -0.374999,-1.3645812 z m -0.15625,-4.1874934 q -1.020832,0.416666 -3.062495,0.7083323 -1.156248,0.1666664 -1.635414,0.3749994 -0.479166,0.208333 -0.739582,0.6145823 -0.260417,0.3958327 -0.260417,0.8854153 0,0.7499988 0.562499,1.249998 0.572916,0.4999992 1.666664,0.4999992 1.083332,0 1.927081,-0.4687492 0.843748,-0.4791659 1.239581,-1.3020813 0.302083,-0.6354157 0.302083,-1.874997 z m 4.718741,9.8124845 -0.208333,-1.7604138 q 0.614582,0.1666664 1.072915,0.1666664 0.624999,0 0.999998,-0.208333 0.375,-0.2083331 0.614583,-0.5833325 0.177083,-0.2812495 0.572915,-1.39583109 0.05208,-0.15624975 0.166667,-0.45833261 l -4.19791,-11.0833163 h 2.02083 l 2.30208,6.4062404 q 0.447916,1.218748 0.802082,2.5624959 0.322916,-1.2916646 0.770832,-2.5208293 l 2.364579,-6.447907 h 1.874997 L 76.249881,0.1874997 q -0.677083,1.8229138 -1.052082,2.5104127 -0.499999,0.9270819 -1.145831,1.3541645 -0.645833,0.4374993 -1.541665,0.4374993 -0.541665,0 -1.208331,-0.2291663 z m 18.322887,-7.8229043 1.937497,0.239583 q -0.458333,1.697914 -1.697914,2.63541249 -1.239582,0.93749852 -3.166662,0.93749852 -2.42708,0 -3.854161,-1.48958101 -1.416664,-1.4999976 -1.416664,-4.19791 0,-2.7916623 1.437498,-4.3333265 1.437497,-1.5416641 3.72916,-1.5416641 2.218747,0 3.624995,1.5104141 1.406248,1.5104143 1.406248,4.2499933 0,0.1666664 -0.01042,0.4999992 h -8.249987 q 0.104166,1.8229138 1.031248,2.7916623 0.927082,0.9687485 2.312497,0.9687485 1.031248,0 1.760413,-0.5416658 0.729166,-0.5416658 1.156249,-1.729164 z m -6.156241,-3.0312452 h 6.177074 q -0.125,-1.3958311 -0.708332,-2.0937467 -0.895832,-1.0833316 -2.322913,-1.0833316 -1.291665,0 -2.17708,0.864582 -0.874999,0.8645819 -0.968749,2.3124963 z M 93.895684,0 v -11.062483 h 1.687497 v 1.6770812 q 0.645832,-1.1770812 1.187498,-1.5520812 0.552083,-0.374999 1.208332,-0.374999 0.947915,0 1.92708,0.604166 l -0.645832,1.7395802 q -0.687499,-0.4062494 -1.374998,-0.4062494 -0.614583,0 -1.104165,0.3749994 -0.489583,0.3645828 -0.697916,1.0208317 -0.312499,0.9999985 -0.312499,2.1874966 V 0 Z"
       id="text52"
       style="font-size:21.3333px;font-family:Arial, Arial_MSFontService, sans-serif"
       transform="translate(900.354,490)"
       aria-label="Input layer" />
    <path
       d="m 1.0312484,-7.4374883 q 0,-3.8020777 2.0416634,-5.9479077 2.0416635,-2.156246 5.270825,-2.156246 2.1145802,0 3.8124942,1.010415 1.697914,1.010415 2.583329,2.822912 0.895832,1.8020806 0.895832,4.0937437 0,2.322913 -0.937499,4.1562434 -0.937498,1.8333305 -2.656245,2.78124564 -1.718748,0.93749852 -3.7083278,0.93749852 -2.1562466,0 -3.8541606,-1.04166503 Q 2.7812456,-1.8229138 1.906247,-3.6249943 1.0312484,-5.4270748 1.0312484,-7.4374883 Z m 2.08333,0.03125 q 0,2.7604123 1.4791643,4.3541598 1.489581,1.5833308 3.7291608,1.5833308 2.2812465,0 3.7499945,-1.6041641 1.479164,-1.6041641 1.479164,-4.5520762 0,-1.8645803 -0.635416,-3.249995 -0.624999,-1.395831 -1.843747,-2.156246 -1.2083312,-0.770833 -2.7187455,-0.770833 -2.14583,0 -3.6979109,1.479165 -1.5416642,1.468747 -1.5416642,4.9166587 z M 25.24996,0 v -1.6249974 q -1.291665,1.87499701 -3.510411,1.87499701 -0.979166,0 -1.833331,-0.37499941 -0.843749,-0.37499941 -1.260415,-0.9374985 -0.406249,-0.5729158 -0.572915,-1.3958312 -0.114584,-0.5520824 -0.114584,-1.7499972 v -6.8541563 h 1.874998 v 6.1354074 q 0,1.4687477 0.114583,1.9791636 0.177083,0.7395822 0.749998,1.1666648 0.572916,0.416666 1.416665,0.416666 0.843749,0 1.583331,-0.4270826 0.739582,-0.4374993 1.041665,-1.1770815 0.312499,-0.7499988 0.312499,-2.1666633 V -11.062483 H 26.92704 V 0 Z m 8.70832,-1.6770807 0.270832,1.6562474 q -0.791665,0.1666664 -1.416664,0.1666664 -1.020832,0 -1.583331,-0.32291615 -0.562499,-0.32291616 -0.791665,-0.84374865 -0.229167,-0.5312492 -0.229167,-2.2187465 v -6.3645733 h -1.374997 v -1.4583315 h 1.374997 v -2.739579 l 1.864581,-1.124998 v 3.864577 h 1.885414 v 1.4583315 h -1.885414 v 6.4687398 q 0,0.8020821 0.09375,1.0312484 0.104166,0.2291663 0.322916,0.3645827 0.229166,0.1354165 0.645832,0.1354165 0.3125,0 0.822916,-0.072917 z m 1.833328,5.9166573 V -11.062483 h 1.708331 v 1.4374982 q 0.604166,-0.8437482 1.364581,-1.2604142 0.760416,-0.427083 1.843747,-0.427083 1.416665,0 2.499996,0.729165 1.083332,0.7291659 1.635415,2.0624971 0.552082,1.3229146 0.552082,2.9062454 0,1.697914 -0.614582,3.0624952 -0.604166,1.3541645 -1.770831,2.08333004 -1.156248,0.71874887 -2.437496,0.71874887 -0.937499,0 -1.687497,-0.39583271 -0.739583,-0.39583271 -1.218748,-0.9999984 v 5.3854081 z m 1.697914,-9.708318 q 0,2.1354133 0.864582,3.1562451 0.864582,1.0208317 2.093747,1.0208317 1.249998,0 2.135413,-1.0520817 0.895832,-1.0624983 0.895832,-3.2812448 0,-2.11458 -0.874998,-3.1666617 -0.864582,-1.0520817 -2.072914,-1.0520817 -1.197914,0 -2.124996,1.1249983 -0.916666,1.1145815 -0.916666,3.2499948 z M 54.906164,0 v -1.6249974 q -1.291665,1.87499701 -3.510411,1.87499701 -0.979165,0 -1.833331,-0.37499941 -0.843748,-0.37499941 -1.260414,-0.9374985 -0.40625,-0.5729158 -0.572916,-1.3958312 -0.114583,-0.5520824 -0.114583,-1.7499972 v -6.8541563 h 1.874997 v 6.1354074 q 0,1.4687477 0.114583,1.9791636 0.177083,0.7395822 0.749999,1.1666648 0.572915,0.416666 1.416664,0.416666 0.843749,0 1.583331,-0.4270826 0.739582,-0.4374993 1.041665,-1.1770815 0.312499,-0.7499988 0.312499,-2.1666633 v -5.9270744 h 1.874998 V 0 Z m 8.708318,-1.6770807 0.270833,1.6562474 q -0.791666,0.1666664 -1.416665,0.1666664 -1.020831,0 -1.583331,-0.32291615 Q 60.32282,-0.49999921 60.093654,-1.0208317 59.864488,-1.5520809 59.864488,-3.2395782 V -9.6041515 H 58.48949 v -1.4583315 h 1.374998 v -2.739579 l 1.86458,-1.124998 v 3.864577 h 1.885414 v 1.4583315 h -1.885414 v 6.4687398 q 0,0.8020821 0.09375,1.0312484 0.104166,0.2291663 0.322916,0.3645827 0.229166,0.1354165 0.645832,0.1354165 0.3125,0 0.822916,-0.072917 z M 71.333224,0 v -15.270809 h 1.874997 V 0 Z M 83.3332,-1.3645812 q -1.041665,0.88541529 -2.010413,1.24999805 -0.958332,0.36458276 -2.062497,0.36458276 -1.822914,0 -2.802079,-0.88541527 -0.979165,-0.89583194 -0.979165,-2.28124644 0,-0.8124987 0.364583,-1.4791643 0.374999,-0.6770823 0.968748,-1.0833316 0.604166,-0.4062494 1.354165,-0.6145824 0.552082,-0.1458331 1.666664,-0.2812495 2.270829,-0.2708329 3.343744,-0.6458323 0.01042,-0.3854161 0.01042,-0.4895826 0,-1.1458315 -0.531249,-1.6145808 -0.718749,-0.6354156 -2.135413,-0.6354156 -1.322915,0 -1.958331,0.4687492 -0.624999,0.4583326 -0.927081,1.6354141 l -1.833331,-0.2499996 q 0.25,-1.1770815 0.822915,-1.8958304 0.572916,-0.7291651 1.656248,-1.1145811 1.083331,-0.395833 2.510413,-0.395833 1.416664,0 2.302079,0.333333 0.885415,0.333332 1.302082,0.843748 0.416666,0.4999996 0.583332,1.2708317 0.09375,0.4791659 0.09375,1.7291639 v 2.4999961 q 0,2.6145792 0.114583,3.3124947 Q 85.312364,-0.63541566 85.66653,0 H 83.7082 q -0.291667,-0.58333241 -0.375,-1.3645812 z m -0.15625,-4.1874934 q -1.020831,0.416666 -3.062495,0.7083323 -1.156248,0.1666664 -1.635414,0.3749994 -0.479166,0.208333 -0.739582,0.6145823 -0.260416,0.3958327 -0.260416,0.8854153 0,0.7499988 0.562499,1.249998 0.572916,0.4999992 1.666664,0.4999992 1.083332,0 1.92708,-0.4687492 0.843749,-0.4791659 1.239582,-1.3020813 0.302082,-0.6354157 0.302082,-1.874997 z m 4.718749,9.8124845 -0.208333,-1.7604138 q 0.614582,0.1666664 1.072915,0.1666664 0.624999,0 0.999998,-0.208333 0.375,-0.2083331 0.614583,-0.5833325 0.177083,-0.2812495 0.572916,-1.39583109 0.05208,-0.15624975 0.166666,-0.45833261 l -4.19791,-11.0833163 h 2.02083 l 2.30208,6.4062404 q 0.447916,1.218748 0.802082,2.5624959 0.322916,-1.2916646 0.770832,-2.5208293 l 2.36458,-6.447907 h 1.874997 L 92.843608,0.1874997 q -0.677082,1.8229138 -1.052082,2.5104127 -0.499999,0.9270819 -1.145831,1.3541645 -0.645833,0.4374993 -1.541665,0.4374993 -0.541665,0 -1.208331,-0.2291663 z m 18.322891,-7.8229043 1.93749,0.239583 q -0.45833,1.697914 -1.69791,2.63541249 -1.23958,0.93749852 -3.16666,0.93749852 -2.42708,0 -3.854164,-1.48958101 -1.416664,-1.4999976 -1.416664,-4.19791 0,-2.7916623 1.437498,-4.3333265 1.4375,-1.5416641 3.72916,-1.5416641 2.21875,0 3.62499,1.5104141 1.40625,1.5104143 1.40625,4.2499933 0,0.1666664 -0.0104,0.4999992 h -8.249991 q 0.104171,1.8229138 1.031251,2.7916623 0.92708,0.9687485 2.31249,0.9687485 1.03125,0 1.76042,-0.5416658 0.72916,-0.5416658 1.15625,-1.729164 z m -6.15624,-3.0312452 h 6.17707 q -0.125,-1.3958311 -0.70833,-2.0937467 -0.89584,-1.0833316 -2.32292,-1.0833316 -1.29166,0 -2.17708,0.864582 -0.87499,0.8645819 -0.96874,2.3124963 z M 110.48941,0 v -11.062483 h 1.6875 v 1.6770812 q 0.64583,-1.1770812 1.1875,-1.5520812 0.55208,-0.374999 1.20833,-0.374999 0.94791,0 1.92708,0.604166 l -0.64583,1.7395802 q -0.6875,-0.4062494 -1.375,-0.4062494 -0.61458,0 -1.10417,0.3749994 -0.48958,0.3645828 -0.69791,1.0208317 -0.3125,0.9999985 -0.3125,2.1874966 V 0 Z"
       id="text53"
       style="font-size:21.3333px;font-family:Arial, Arial_MSFontService, sans-serif"
       transform="translate(900.354,464)"
       aria-label="Output layer" />
    <path
       d="m 1.6770807,0 v -15.270809 h 6.7708226 q 2.0416637,0 3.1041617,0.416666 1.062498,0.406249 1.697914,1.447914 0.635416,1.041665 0.635416,2.30208 0,1.6249973 -1.052082,2.7395789 -1.052082,1.1145816 -3.2499948,1.4166644 0.8020818,0.3854161 1.2187478,0.7604155 0.885416,0.8124987 1.677081,2.0312468 L 15.135393,0 H 12.59373 L 10.5729,-3.1770783 Q 9.6874847,-4.5520761 9.1145689,-5.2812417 8.5416532,-6.0104072 8.0833206,-6.3020734 7.6354046,-6.5937396 7.1666553,-6.7083227 6.8229059,-6.7812393 6.0416571,-6.7812393 H 3.6979108 V 0 Z M 3.6979108,-8.5312365 H 8.041654 q 1.3854144,0 2.166663,-0.2812496 0.781249,-0.2916662 1.187498,-0.9166652 0.40625,-0.6354157 0.40625,-1.3749977 0,-1.083332 -0.791666,-1.781247 -0.781248,-0.697916 -2.4791625,-0.697916 H 3.6979108 Z m 20.6874672,4.9687421 1.937497,0.239583 q -0.458333,1.697914 -1.697914,2.63541249 -1.239582,0.93749852 -3.166662,0.93749852 -2.42708,0 -3.854161,-1.48958101 -1.416664,-1.4999976 -1.416664,-4.19791 0,-2.7916623 1.437498,-4.3333265 1.437497,-1.5416641 3.72916,-1.5416641 2.218747,0 3.624995,1.5104141 1.406248,1.5104143 1.406248,4.2499933 0,0.1666664 -0.01042,0.4999992 h -8.249987 q 0.104166,1.8229138 1.031248,2.7916623 0.927082,0.9687485 2.312497,0.9687485 1.031248,0 1.760414,-0.5416658 0.729165,-0.5416658 1.156248,-1.729164 z m -6.156241,-3.0312452 h 6.177074 q -0.125,-1.3958311 -0.708332,-2.0937467 -0.895832,-1.0833316 -2.322913,-1.0833316 -1.291665,0 -2.17708,0.864582 -0.874999,0.8645819 -0.968749,2.3124963 z m 17.666639,2.5416627 1.843748,0.2395829 q -0.302083,1.906247 -1.552081,2.98957863 -1.239582,1.07291498 -3.052079,1.07291498 -2.27083,0 -3.656244,-1.47916431 -1.374998,-1.489581 -1.374998,-4.26041 0,-1.7916638 0.593749,-3.1354117 0.593749,-1.3437479 1.802081,-2.0104136 1.218748,-0.677082 2.645829,-0.677082 1.80208,0 2.947912,0.916665 1.145831,0.9062487 1.468748,2.5833293 l -1.822914,0.2812496 q -0.260417,-1.1145816 -0.927082,-1.6770807 -0.656249,-0.5624991 -1.593748,-0.5624991 -1.416664,0 -2.302079,1.0208317 -0.885416,1.0104151 -0.885416,3.2083283 0,2.2291631 0.854166,3.2395782 0.854165,1.0104151 2.229163,1.0104151 1.104165,0 1.843747,-0.6770823 0.739582,-0.6770823 0.937498,-2.08333 z m 11.020815,0.4895825 1.937497,0.239583 q -0.458332,1.697914 -1.697914,2.63541249 -1.239581,0.93749852 -3.166661,0.93749852 -2.42708,0 -3.854161,-1.48958101 -1.416664,-1.4999976 -1.416664,-4.19791 0,-2.7916623 1.437497,-4.3333265 1.437498,-1.5416641 3.729161,-1.5416641 2.218747,0 3.624995,1.5104141 1.406247,1.5104143 1.406247,4.2499933 0,0.1666664 -0.01042,0.4999992 h -8.249987 q 0.104166,1.8229138 1.031248,2.7916623 0.927082,0.9687485 2.312496,0.9687485 1.031249,0 1.760414,-0.5416658 0.729166,-0.5416658 1.156248,-1.729164 z m -6.15624,-3.0312452 h 6.177074 q -0.125,-1.3958311 -0.708332,-2.0937467 -0.895832,-1.0833316 -2.322913,-1.0833316 -1.291665,0 -2.17708,0.864582 -0.874999,0.8645819 -0.968749,2.3124963 z M 51.208254,4.2395766 V -11.062483 h 1.70833 v 1.4374982 q 0.604166,-0.8437482 1.364581,-1.2604142 0.760416,-0.427083 1.843747,-0.427083 1.416665,0 2.499996,0.729165 1.083332,0.7291659 1.635415,2.0624971 0.552082,1.3229146 0.552082,2.9062454 0,1.697914 -0.614582,3.0624952 -0.604166,1.3541645 -1.770831,2.08333004 -1.156248,0.71874887 -2.437496,0.71874887 -0.937499,0 -1.687497,-0.39583271 -0.739583,-0.39583271 -1.218748,-0.9999984 v 5.3854081 z m 1.697914,-9.708318 q 0,2.1354133 0.864581,3.1562451 0.864582,1.0208317 2.093747,1.0208317 1.249998,0 2.135413,-1.0520817 0.895832,-1.0624983 0.895832,-3.2812448 0,-2.11458 -0.874998,-3.1666617 -0.864582,-1.0520817 -2.072914,-1.0520817 -1.197914,0 -2.124996,1.1249983 -0.916665,1.1145815 -0.916665,3.2499948 z m 14.260392,3.7916607 0.270833,1.6562474 q -0.791665,0.1666664 -1.416664,0.1666664 -1.020832,0 -1.583331,-0.32291615 -0.562499,-0.32291616 -0.791666,-0.84374865 -0.229166,-0.5312492 -0.229166,-2.2187465 v -6.3645733 h -1.374998 v -1.4583315 h 1.374998 v -2.739579 l 1.86458,-1.124998 v 3.864577 h 1.885414 v 1.4583315 h -1.885414 v 6.4687398 q 0,0.8020821 0.09375,1.0312484 0.104167,0.2291663 0.322916,0.3645827 0.229167,0.1354165 0.645833,0.1354165 0.312499,0 0.822915,-0.072917 z m 1.843748,-11.4374823 v -2.156246 h 1.874997 v 2.156246 z m 0,13.114563 v -11.062483 h 1.874997 V 0 Z m 7.802073,0 -4.208327,-11.062483 h 1.979164 l 2.374996,6.62499 q 0.385416,1.072915 0.708332,2.2291632 0.25,-0.8749987 0.697916,-2.1041634 l 2.458329,-6.7499898 h 1.927081 L 78.562378,0 Z m 15.166642,-3.5624944 1.937497,0.239583 q -0.458333,1.697914 -1.697914,2.63541249 -1.239582,0.93749852 -3.166662,0.93749852 -2.427079,0 -3.854161,-1.48958101 -1.416664,-1.4999976 -1.416664,-4.19791 0,-2.7916623 1.437498,-4.3333265 1.437498,-1.5416641 3.729161,-1.5416641 2.218746,0 3.624994,1.5104141 1.406248,1.5104143 1.406248,4.2499933 0,0.1666664 -0.01042,0.4999992 h -8.249987 q 0.104167,1.8229138 1.031248,2.7916623 0.927082,0.9687485 2.312497,0.9687485 1.031248,0 1.760414,-0.5416658 0.729165,-0.5416658 1.156248,-1.729164 z m -6.15624,-3.0312452 h 6.177073 q -0.125,-1.3958311 -0.708332,-2.0937467 -0.895832,-1.0833316 -2.322913,-1.0833316 -1.291665,0 -2.17708,0.864582 -0.874999,0.8645819 -0.968748,2.3124963 z M 102.64568,0 v -9.6041515 h -1.65625 v -1.4583315 h 1.65625 v -1.177081 q 0,-1.114582 0.19791,-1.656247 0.27083,-0.729166 0.94792,-1.177082 0.6875,-0.458332 1.91666,-0.458332 0.79167,0 1.75,0.187499 l -0.28125,1.635414 q -0.58333,-0.104166 -1.10417,-0.104166 -0.85416,0 -1.20833,0.364583 -0.35416,0.364582 -0.35416,1.364581 v 1.020831 h 2.15624 v 1.4583315 h -2.15624 V 0 Z m 5.48957,-13.114563 v -2.156246 h 1.87499 v 2.156246 z m 0,13.114563 v -11.062483 h 1.87499 V 0 Z m 12.30206,-3.5624944 1.9375,0.239583 q -0.45833,1.697914 -1.69791,2.63541249 -1.23959,0.93749852 -3.16667,0.93749852 -2.42708,0 -3.85416,-1.48958101 -1.41666,-1.4999976 -1.41666,-4.19791 0,-2.7916623 1.4375,-4.3333265 1.43749,-1.5416641 3.72916,-1.5416641 2.21874,0 3.62499,1.5104141 1.40625,1.5104143 1.40625,4.2499933 0,0.1666664 -0.0104,0.4999992 h -8.24998 q 0.10416,1.8229138 1.03124,2.7916623 0.92709,0.9687485 2.3125,0.9687485 1.03125,0 1.76041,-0.5416658 0.72917,-0.5416658 1.15625,-1.729164 z m -6.15624,-3.0312452 h 6.17708 q -0.125,-1.3958311 -0.70834,-2.0937467 -0.89583,-1.0833316 -2.32291,-1.0833316 -1.29166,0 -2.17708,0.864582 -0.875,0.8645819 -0.96875,2.3124963 z M 124.6873,0 v -15.270809 h 1.875 V 0 Z m 11.95832,0 v -1.3958311 q -1.05208,1.64583071 -3.09374,1.64583071 -1.32292,0 -2.4375,-0.72916552 -1.10416,-0.72916549 -1.71875,-2.03124679 -0.60416,-1.3124979 -0.60416,-3.0104119 0,-1.6562474 0.55208,-2.9999953 0.55208,-1.3541645 1.65625,-2.0729131 1.10416,-0.718749 2.46874,-0.718749 1,0 1.78125,0.427083 0.78125,0.416666 1.27083,1.0937478 v -5.4791578 h 1.86458 V 0 Z m -5.92707,-5.5208246 q 0,2.1249966 0.89583,3.1770783 0.89583,1.0520817 2.11458,1.0520817 1.22916,0 2.08333,-0.9999984 0.86458,-1.0104151 0.86458,-3.0729119 0,-2.2708297 -0.875,-3.333328 -0.875,-1.0624983 -2.15624,-1.0624983 -1.25,0 -2.09375,1.0208317 -0.83333,1.0208317 -0.83333,3.2187449 z"
       id="text54"
       style="font-size:21.3333px;font-family:Arial, Arial_MSFontService, sans-serif"
       transform="translate(900.354,438)"
       aria-label="Receptive field" />
    <path
       d="M 0,0 37.9708,1.04987e-4"
       stroke="#000000"
       stroke-width="2.66667"
       stroke-miterlimit="8"
       fill="none"
       fill-rule="evenodd"
       transform="matrix(-1,0,0,1,891.471,429.5)"
       id="path54" />
    <path
       d="m 1.5624975,0 v -15.270809 h 2.0208302 v 7.5729045 l 7.5833213,-7.5729045 h 2.739579 L 7.4999882,-9.083319 14.187478,0 H 11.520815 L 6.0833237,-7.7291545 3.5833277,-5.2916583 V 0 Z M 25.49996,-8.9791525 H 15.416642 V -10.72915 H 25.49996 Z m 0,4.6354094 H 15.416642 V -6.0937404 H 25.49996 Z m 2.08333,0.3124995 1.874997,-0.2499996 q 0.322916,1.5937474 1.093748,2.3020797 0.781249,0.6979155 1.895831,0.6979155 1.322914,0 2.229163,-0.9166652 0.916665,-0.9166652 0.916665,-2.2708297 0,-1.2916647 -0.843749,-2.1249967 -0.843748,-0.8437487 -2.14583,-0.8437487 -0.531249,0 -1.322914,0.2083331 l 0.208333,-1.6458308 q 0.187499,0.020833 0.302083,0.020833 1.197914,0 2.156246,-0.624999 0.958332,-0.624999 0.958332,-1.92708 0,-1.031248 -0.697916,-1.708331 -0.697915,-0.677082 -1.80208,-0.677082 -1.093748,0 -1.822914,0.687499 -0.729165,0.687499 -0.937498,2.062497 l -1.874997,-0.333333 q 0.343749,-1.885414 1.562497,-2.916662 1.218748,-1.041665 3.031245,-1.041665 1.249998,0 2.30208,0.541666 1.052082,0.531249 1.604164,1.458331 0.562499,0.927082 0.562499,1.968747 0,0.989581 -0.531249,1.8020798 -0.531249,0.8124987 -1.572914,1.2916646 1.354165,0.3124995 2.104163,1.3020813 0.749999,0.9791651 0.749999,2.4583295 0,1.9999968 -1.458331,3.3958279 -1.458331,1.38541451 -3.687494,1.38541451 -2.010414,0 -3.343745,-1.19791478 Q 27.77079,-2.1249966 27.58329,-4.0312436 Z M 40.447855,0 v -2.1354133 h 2.135413 V 0 q 0,1.1770815 -0.416666,1.8958303 -0.416666,0.7291656 -1.322914,1.1249983 L 40.322855,2.2187465 Q 40.916604,1.9583302 41.197854,1.4479144 41.479104,0.94791517 41.510354,0 Z m 11.604146,0 v -15.270809 h 5.760407 q 1.520831,0 2.322913,0.145833 1.124998,0.1875 1.885414,0.718749 0.760415,0.520832 1.218748,1.468747 0.468749,0.947916 0.468749,2.08333 0,1.9479141 -1.239581,3.3020786 -1.239582,1.3437479 -4.47916,1.3437479 h -3.91666 V 0 Z m 2.02083,-8.010404 h 3.94791 q 1.95833,0 2.781246,-0.7291655 0.822915,-0.7291655 0.822915,-2.0520805 0,-0.958331 -0.489582,-1.635414 -0.479166,-0.687499 -1.270832,-0.906248 -0.510416,-0.135417 -1.885413,-0.135417 H 54.072831 Z M 75.90613,-8.9791525 H 65.822813 V -10.72915 H 75.90613 Z m 0,4.6354094 H 65.822813 V -6.0937404 H 75.90613 Z m 2.072913,-3.187495 q 0,-2.7083289 0.552083,-4.3541599 0.562499,-1.656247 1.656247,-2.552079 1.104165,-0.895832 2.770829,-0.895832 1.229165,0 2.156247,0.499999 0.927081,0.489583 1.531247,1.427081 0.604166,0.927082 0.947915,2.27083 0.34375,1.3333311 0.34375,3.6041609 0,2.6874958 -0.552083,4.3437431 -0.552082,1.6458308 -1.656247,2.55207934 -1.093748,0.89583192 -2.770829,0.89583192 -2.20833,0 -3.468745,-1.58333086 -1.510414,-1.906247 -1.510414,-6.2083235 z m 1.92708,0 q 0,3.7604107 0.874999,5.0104087 0.885415,1.2395814 2.17708,1.2395814 1.291665,0 2.166663,-1.249998 0.885416,-1.249998 0.885416,-4.9999921 0,-3.7708269 -0.885416,-5.0104089 -0.874998,-1.239581 -2.187496,-1.239581 -1.291665,0 -2.062497,1.093748 -0.968749,1.395831 -0.968749,5.1562419 z M 90.854021,0 v -2.1354133 h 2.135414 V 0 q 0,1.1770815 -0.416666,1.8958303 -0.416666,0.7291656 -1.322915,1.1249983 L 90.729021,2.2187465 Q 91.322771,1.9583302 91.60402,1.4479144 91.88527,0.94791517 91.91652,0 Z m 10.916649,-4.9062423 1.90625,-0.1666664 q 0.13542,1.1458316 0.625,1.8854137 0.5,0.7291655 1.54166,1.1874982 1.04167,0.4479159 2.34375,0.4479159 1.15625,0 2.04166,-0.3437494 0.88542,-0.3437495 1.3125,-0.9374986 0.4375,-0.6041657 0.4375,-1.3124979 0,-0.7187488 -0.41667,-1.249998 -0.41666,-0.5416658 -1.375,-0.9062486 -0.61458,-0.2395829 -2.71874,-0.7395821 -2.10416,-0.5104159 -2.94791,-0.9583319 -1.09375,-0.5729157 -1.63542,-1.4166644 -0.53125,-0.8541652 -0.53125,-1.9062472 0,-1.156248 0.65625,-2.156246 0.65625,-1.010415 1.91667,-1.531248 1.26041,-0.520832 2.80208,-0.520832 1.69791,0 2.98957,0.552082 1.30209,0.541666 2,1.604164 0.69792,1.062498 0.75,2.406246 l -1.9375,0.145833 q -0.15625,-1.447914 -1.0625,-2.187496 -0.89583,-0.739582 -2.65624,-0.739582 -1.83333,0 -2.67708,0.677082 -0.83333,0.666666 -0.83333,1.614581 0,0.822915 0.59375,1.354164 0.58333,0.5312495 3.04166,1.0937486 2.46874,0.5520824 3.38541,0.9687484 1.33333,0.6145824 1.96875,1.5624976 0.63541,0.9374985 0.63541,2.1666632 0,1.2187481 -0.69791,2.3020797 -0.69792,1.07291498 -2.01042,1.67708069 -1.30208,0.59374907 -2.93749,0.59374907 -2.07292,0 -3.47916,-0.60416572 -1.39583,-0.60416571 -2.19792,-1.81249714 -0.79166,-1.2187481 -0.83333,-2.7499957 z M 126.3123,-8.9791525 H 116.22899 V -10.72915 h 10.08331 z m 0,4.6354094 H 116.22899 V -6.0937404 H 126.3123 Z M 135.44771,0 h -1.875 v -11.947898 q -0.67708,0.645833 -1.78125,1.291665 -1.09375,0.645832 -1.96875,0.9687483 v -1.8124973 q 1.57292,-0.739582 2.75,-1.791664 1.17708,-1.052081 1.66666,-2.041663 h 1.20834 z m 5.81248,0 v -2.1354133 h 2.13542 V 0 q 0,1.1770815 -0.41667,1.8958303 -0.41666,0.7291656 -1.32291,1.1249983 L 141.1352,2.2187465 Q 141.72894,1.9583302 142.01019,1.4479144 142.29144,0.94791517 142.32269,0 Z m 11.60415,0 v -15.270809 h 5.2604 q 1.78125,0 2.71875,0.218749 1.3125,0.302083 2.23958,1.093749 1.20833,1.020831 1.80208,2.614579 0.60417,1.5833308 0.60417,3.6249942 0,1.7395806 -0.40625,3.0833285 -0.40625,1.3437478 -1.04167,2.2291631 -0.63541,0.8749986 -1.39583,1.3854145 -0.75,0.49999919 -1.82291,0.76041544 Q 159.76016,0 158.37474,0 Z m 2.02083,-1.8020805 h 3.26041 q 1.51041,0 2.36458,-0.2812495 0.86458,-0.2812496 1.375,-0.7916655 0.71874,-0.7187488 1.11458,-1.9270802 0.40625,-1.2187481 0.40625,-2.9479121 0,-2.3958292 -0.79167,-3.6770772 -0.78125,-1.291665 -1.90625,-1.729164 -0.81249,-0.3125 -2.61457,-0.3125 h -3.20833 z"
       id="text55"
       style="font-size:21.3333px;font-family:Arial, Arial_MSFontService, sans-serif"
       transform="translate(534.069,203)"
       aria-label="K=3, P=0, S=1, D" />
    <path
       d="M 11.270816,-8.9791525 H 1.1874981 V -10.72915 H 11.270816 Z m 0,4.6354094 H 1.1874981 V -6.0937404 H 11.270816 Z"
       id="text56"
       style="font-size:21.3333px;font-family:Arial, Arial_MSFontService, sans-serif"
       transform="translate(700.902,203)"
       aria-label="=" />
    <path
       d="m 7.9479041,0 h -1.874997 v -11.947898 q -0.6770823,0.645833 -1.7812472,1.291665 -1.0937483,0.645832 -1.9687469,0.9687483 v -1.8124973 q 1.5729142,-0.739582 2.7499957,-1.791664 1.1770814,-1.052081 1.666664,-2.041663 h 1.2083314 z"
       id="text57"
       style="font-size:21.3333px;font-family:Arial, Arial_MSFontService, sans-serif"
       transform="translate(713.402,203)"
       aria-label="1" />
    <path
       d="m 1.5624975,0 v -15.270809 h 2.0208302 v 7.5729045 l 7.5833213,-7.5729045 h 2.739579 L 7.4999882,-9.083319 14.187478,0 H 11.520815 L 6.0833237,-7.7291545 3.5833277,-5.2916583 V 0 Z M 25.49996,-8.9791525 H 15.416642 V -10.72915 H 25.49996 Z m 0,4.6354094 H 15.416642 V -6.0937404 H 25.49996 Z m 2.08333,0.3124995 1.874997,-0.2499996 q 0.322916,1.5937474 1.093748,2.3020797 0.781249,0.6979155 1.895831,0.6979155 1.322914,0 2.229163,-0.9166652 0.916665,-0.9166652 0.916665,-2.2708297 0,-1.2916647 -0.843749,-2.1249967 -0.843748,-0.8437487 -2.14583,-0.8437487 -0.531249,0 -1.322914,0.2083331 l 0.208333,-1.6458308 q 0.187499,0.020833 0.302083,0.020833 1.197914,0 2.156246,-0.624999 0.958332,-0.624999 0.958332,-1.92708 0,-1.031248 -0.697916,-1.708331 -0.697915,-0.677082 -1.80208,-0.677082 -1.093748,0 -1.822914,0.687499 -0.729165,0.687499 -0.937498,2.062497 l -1.874997,-0.333333 q 0.343749,-1.885414 1.562497,-2.916662 1.218748,-1.041665 3.031245,-1.041665 1.249998,0 2.30208,0.541666 1.052082,0.531249 1.604164,1.458331 0.562499,0.927082 0.562499,1.968747 0,0.989581 -0.531249,1.8020798 -0.531249,0.8124987 -1.572914,1.2916646 1.354165,0.3124995 2.104163,1.3020813 0.749999,0.9791651 0.749999,2.4583295 0,1.9999968 -1.458331,3.3958279 -1.458331,1.38541451 -3.687494,1.38541451 -2.010414,0 -3.343745,-1.19791478 Q 27.77079,-2.1249966 27.58329,-4.0312436 Z M 40.447855,0 v -2.1354133 h 2.135413 V 0 q 0,1.1770815 -0.416666,1.8958303 -0.416666,0.7291656 -1.322914,1.1249983 L 40.322855,2.2187465 Q 40.916604,1.9583302 41.197854,1.4479144 41.479104,0.94791517 41.510354,0 Z m 11.604146,0 v -15.270809 h 5.760407 q 1.520831,0 2.322913,0.145833 1.124998,0.1875 1.885414,0.718749 0.760415,0.520832 1.218748,1.468747 0.468749,0.947916 0.468749,2.08333 0,1.9479141 -1.239581,3.3020786 -1.239582,1.3437479 -4.47916,1.3437479 h -3.91666 V 0 Z m 2.02083,-8.010404 h 3.94791 q 1.95833,0 2.781246,-0.7291655 0.822915,-0.7291655 0.822915,-2.0520805 0,-0.958331 -0.489582,-1.635414 -0.479166,-0.687499 -1.270832,-0.906248 -0.510416,-0.135417 -1.885413,-0.135417 H 54.072831 Z M 75.90613,-8.9791525 H 65.822813 V -10.72915 H 75.90613 Z m 0,4.6354094 H 65.822813 V -6.0937404 H 75.90613 Z M 85.041532,0 h -1.874997 v -11.947898 q -0.677082,0.645833 -1.781247,1.291665 -1.093748,0.645832 -1.968747,0.9687483 v -1.8124973 q 1.572914,-0.739582 2.749996,-1.791664 1.177081,-1.052081 1.666664,-2.041663 h 1.208331 z m 5.812489,0 v -2.1354133 h 2.135414 V 0 q 0,1.1770815 -0.416666,1.8958303 -0.416666,0.7291656 -1.322915,1.1249983 L 90.729021,2.2187465 Q 91.322771,1.9583302 91.60402,1.4479144 91.88527,0.94791517 91.91652,0 Z m 10.916649,-4.9062423 1.90625,-0.1666664 q 0.13542,1.1458316 0.625,1.8854137 0.5,0.7291655 1.54166,1.1874982 1.04167,0.4479159 2.34375,0.4479159 1.15625,0 2.04166,-0.3437494 0.88542,-0.3437495 1.3125,-0.9374986 0.4375,-0.6041657 0.4375,-1.3124979 0,-0.7187488 -0.41667,-1.249998 -0.41666,-0.5416658 -1.375,-0.9062486 -0.61458,-0.2395829 -2.71874,-0.7395821 -2.10416,-0.5104159 -2.94791,-0.9583319 -1.09375,-0.5729157 -1.63542,-1.4166644 -0.53125,-0.8541652 -0.53125,-1.9062472 0,-1.156248 0.65625,-2.156246 0.65625,-1.010415 1.91667,-1.531248 1.26041,-0.520832 2.80208,-0.520832 1.69791,0 2.98957,0.552082 1.30209,0.541666 2,1.604164 0.69792,1.062498 0.75,2.406246 l -1.9375,0.145833 q -0.15625,-1.447914 -1.0625,-2.187496 -0.89583,-0.739582 -2.65624,-0.739582 -1.83333,0 -2.67708,0.677082 -0.83333,0.666666 -0.83333,1.614581 0,0.822915 0.59375,1.354164 0.58333,0.5312495 3.04166,1.0937486 2.46874,0.5520824 3.38541,0.9687484 1.33333,0.6145824 1.96875,1.5624976 0.63541,0.9374985 0.63541,2.1666632 0,1.2187481 -0.69791,2.3020797 -0.69792,1.07291498 -2.01042,1.67708069 -1.30208,0.59374907 -2.93749,0.59374907 -2.07292,0 -3.47916,-0.60416572 -1.39583,-0.60416571 -2.19792,-1.81249714 -0.79166,-1.2187481 -0.83333,-2.7499957 z M 126.3123,-8.9791525 H 116.22899 V -10.72915 h 10.08331 z m 0,4.6354094 H 116.22899 V -6.0937404 H 126.3123 Z M 135.44771,0 h -1.875 v -11.947898 q -0.67708,0.645833 -1.78125,1.291665 -1.09375,0.645832 -1.96875,0.9687483 v -1.8124973 q 1.57292,-0.739582 2.75,-1.791664 1.17708,-1.052081 1.66666,-2.041663 h 1.20834 z m 5.81248,0 v -2.1354133 h 2.13542 V 0 q 0,1.1770815 -0.41667,1.8958303 -0.41666,0.7291656 -1.32291,1.1249983 L 141.1352,2.2187465 Q 141.72894,1.9583302 142.01019,1.4479144 142.29144,0.94791517 142.32269,0 Z m 11.60415,0 v -15.270809 h 5.2604 q 1.78125,0 2.71875,0.218749 1.3125,0.302083 2.23958,1.093749 1.20833,1.020831 1.80208,2.614579 0.60417,1.5833308 0.60417,3.6249942 0,1.7395806 -0.40625,3.0833285 -0.40625,1.3437478 -1.04167,2.2291631 -0.63541,0.8749986 -1.39583,1.3854145 -0.75,0.49999919 -1.82291,0.76041544 Q 159.76016,0 158.37474,0 Z m 2.02083,-1.8020805 h 3.26041 q 1.51041,0 2.36458,-0.2812495 0.86458,-0.2812496 1.375,-0.7916655 0.71874,-0.7187488 1.11458,-1.9270802 0.40625,-1.2187481 0.40625,-2.9479121 0,-2.3958292 -0.79167,-3.6770772 -0.78125,-1.291665 -1.90625,-1.729164 -0.81249,-0.3125 -2.61457,-0.3125 h -3.20833 z"
       id="text58"
       style="font-size:21.3333px;font-family:Arial, Arial_MSFontService, sans-serif"
       transform="translate(850.069,203)"
       aria-label="K=3, P=1, S=1, D" />
    <path
       d="M 11.270816,-8.9791525 H 1.1874981 V -10.72915 H 11.270816 Z m 0,4.6354094 H 1.1874981 V -6.0937404 H 11.270816 Z"
       id="text59"
       style="font-size:21.3333px;font-family:Arial, Arial_MSFontService, sans-serif"
       transform="translate(1016.9,203)"
       aria-label="=" />
    <path
       d="m 7.9479041,0 h -1.874997 v -11.947898 q -0.6770823,0.645833 -1.7812472,1.291665 -1.0937483,0.645832 -1.9687469,0.9687483 v -1.8124973 q 1.5729142,-0.739582 2.7499957,-1.791664 1.1770814,-1.052081 1.666664,-2.041663 h 1.2083314 z"
       id="text60"
       style="font-size:21.3333px;font-family:Arial, Arial_MSFontService, sans-serif"
       transform="translate(1029.4,203)"
       aria-label="1" />
    <path
       d="m 1.5624975,0 v -15.270809 h 2.0208302 v 7.5729045 l 7.5833213,-7.5729045 h 2.739579 L 7.4999882,-9.083319 14.187478,0 H 11.520815 L 6.0833237,-7.7291545 3.5833277,-5.2916583 V 0 Z M 25.49996,-8.9791525 H 15.416642 V -10.72915 H 25.49996 Z m 0,4.6354094 H 15.416642 V -6.0937404 H 25.49996 Z m 2.08333,0.3124995 1.874997,-0.2499996 q 0.322916,1.5937474 1.093748,2.3020797 0.781249,0.6979155 1.895831,0.6979155 1.322914,0 2.229163,-0.9166652 0.916665,-0.9166652 0.916665,-2.2708297 0,-1.2916647 -0.843749,-2.1249967 -0.843748,-0.8437487 -2.14583,-0.8437487 -0.531249,0 -1.322914,0.2083331 l 0.208333,-1.6458308 q 0.187499,0.020833 0.302083,0.020833 1.197914,0 2.156246,-0.624999 0.958332,-0.624999 0.958332,-1.92708 0,-1.031248 -0.697916,-1.708331 -0.697915,-0.677082 -1.80208,-0.677082 -1.093748,0 -1.822914,0.687499 -0.729165,0.687499 -0.937498,2.062497 l -1.874997,-0.333333 q 0.343749,-1.885414 1.562497,-2.916662 1.218748,-1.041665 3.031245,-1.041665 1.249998,0 2.30208,0.541666 1.052082,0.531249 1.604164,1.458331 0.562499,0.927082 0.562499,1.968747 0,0.989581 -0.531249,1.8020798 -0.531249,0.8124987 -1.572914,1.2916646 1.354165,0.3124995 2.104163,1.3020813 0.749999,0.9791651 0.749999,2.4583295 0,1.9999968 -1.458331,3.3958279 -1.458331,1.38541451 -3.687494,1.38541451 -2.010414,0 -3.343745,-1.19791478 Q 27.77079,-2.1249966 27.58329,-4.0312436 Z M 40.447855,0 v -2.1354133 h 2.135413 V 0 q 0,1.1770815 -0.416666,1.8958303 -0.416666,0.7291656 -1.322914,1.1249983 L 40.322855,2.2187465 Q 40.916604,1.9583302 41.197854,1.4479144 41.479104,0.94791517 41.510354,0 Z m 11.604146,0 v -15.270809 h 5.760407 q 1.520831,0 2.322913,0.145833 1.124998,0.1875 1.885414,0.718749 0.760415,0.520832 1.218748,1.468747 0.468749,0.947916 0.468749,2.08333 0,1.9479141 -1.239581,3.3020786 -1.239582,1.3437479 -4.47916,1.3437479 h -3.91666 V 0 Z m 2.02083,-8.010404 h 3.94791 q 1.95833,0 2.781246,-0.7291655 0.822915,-0.7291655 0.822915,-2.0520805 0,-0.958331 -0.489582,-1.635414 -0.479166,-0.687499 -1.270832,-0.906248 -0.510416,-0.135417 -1.885413,-0.135417 H 54.072831 Z M 75.90613,-8.9791525 H 65.822813 V -10.72915 H 75.90613 Z m 0,4.6354094 H 65.822813 V -6.0937404 H 75.90613 Z M 85.041532,0 h -1.874997 v -11.947898 q -0.677082,0.645833 -1.781247,1.291665 -1.093748,0.645832 -1.968747,0.9687483 v -1.8124973 q 1.572914,-0.739582 2.749996,-1.791664 1.177081,-1.052081 1.666664,-2.041663 h 1.208331 z m 5.812489,0 v -2.1354133 h 2.135414 V 0 q 0,1.1770815 -0.416666,1.8958303 -0.416666,0.7291656 -1.322915,1.1249983 L 90.729021,2.2187465 Q 91.322771,1.9583302 91.60402,1.4479144 91.88527,0.94791517 91.91652,0 Z m 10.916649,-4.9062423 1.90625,-0.1666664 q 0.13542,1.1458316 0.625,1.8854137 0.5,0.7291655 1.54166,1.1874982 1.04167,0.4479159 2.34375,0.4479159 1.15625,0 2.04166,-0.3437494 0.88542,-0.3437495 1.3125,-0.9374986 0.4375,-0.6041657 0.4375,-1.3124979 0,-0.7187488 -0.41667,-1.249998 -0.41666,-0.5416658 -1.375,-0.9062486 -0.61458,-0.2395829 -2.71874,-0.7395821 -2.10416,-0.5104159 -2.94791,-0.9583319 -1.09375,-0.5729157 -1.63542,-1.4166644 -0.53125,-0.8541652 -0.53125,-1.9062472 0,-1.156248 0.65625,-2.156246 0.65625,-1.010415 1.91667,-1.531248 1.26041,-0.520832 2.80208,-0.520832 1.69791,0 2.98957,0.552082 1.30209,0.541666 2,1.604164 0.69792,1.062498 0.75,2.406246 l -1.9375,0.145833 q -0.15625,-1.447914 -1.0625,-2.187496 -0.89583,-0.739582 -2.65624,-0.739582 -1.83333,0 -2.67708,0.677082 -0.83333,0.666666 -0.83333,1.614581 0,0.822915 0.59375,1.354164 0.58333,0.5312495 3.04166,1.0937486 2.46874,0.5520824 3.38541,0.9687484 1.33333,0.6145824 1.96875,1.5624976 0.63541,0.9374985 0.63541,2.1666632 0,1.2187481 -0.69791,2.3020797 -0.69792,1.07291498 -2.01042,1.67708069 -1.30208,0.59374907 -2.93749,0.59374907 -2.07292,0 -3.47916,-0.60416572 -1.39583,-0.60416571 -2.19792,-1.81249714 -0.79166,-1.2187481 -0.83333,-2.7499957 z M 126.3123,-8.9791525 H 116.22899 V -10.72915 h 10.08331 z m 0,4.6354094 h -10.08331 v -1.7499973 h 10.08331 z m 11.92707,2.5416626 V 0 h -10.09374 q -0.0208,-0.67708226 0.21875,-1.3020813 0.38542,-1.0312483 1.22917,-2.0312468 0.85416,-0.9999984 2.45833,-2.3124963 2.48958,-2.0416635 3.36458,-3.2291616 0.87499,-1.197915 0.87499,-2.260413 0,-1.114582 -0.80208,-1.874997 -0.79166,-0.770832 -2.07291,-0.770832 -1.35417,0 -2.16666,0.812498 -0.8125,0.812499 -0.82292,2.249997 l -1.92708,-0.197916 q 0.19792,-2.156247 1.48958,-3.281245 1.29167,-1.135415 3.46875,-1.135415 2.19791,0 3.47916,1.218748 1.28124,1.218748 1.28124,3.020829 0,0.916665 -0.37499,1.80208 -0.375,0.8854153 -1.25,1.8645804 -0.86458,0.9791651 -2.88541,2.6874958 -1.6875,1.4166644 -2.16667,1.9270802 -0.47916,0.4999993 -0.79166,1.0104151 z M 141.26019,0 v -2.1354133 h 2.13542 V 0 q 0,1.1770815 -0.41667,1.8958303 -0.41666,0.7291656 -1.32291,1.1249983 L 141.1352,2.2187465 Q 141.72894,1.9583302 142.01019,1.4479144 142.29144,0.94791517 142.32269,0 Z"
       id="text61"
       style="font-size:21.3333px;font-family:Arial, Arial_MSFontService, sans-serif"
       transform="translate(229.069,385)"
       aria-label="K=3, P=1, S=2," />
    <path
       d="m 1.6458307,0 v -15.270809 h 5.2604084 q 1.7812472,0 2.7187457,0.218749 1.3124982,0.302083 2.2395802,1.093749 1.208331,1.020831 1.80208,2.614579 0.604166,1.5833308 0.604166,3.6249942 0,1.7395806 -0.40625,3.0833285 -0.406249,1.3437478 -1.041665,2.2291631 -0.635415,0.8749986 -1.395831,1.3854145 -0.749999,0.49999919 -1.8229135,0.76041544 Q 8.5416532,0 7.1562387,0 Z m 2.0208302,-1.8020805 h 3.2604115 q 1.5104143,0 2.3645796,-0.2812495 0.864582,-0.2812496 1.374998,-0.7916655 0.718749,-0.7187488 1.114581,-1.9270802 0.40625,-1.2187481 0.40625,-2.9479121 0,-2.3958292 -0.791666,-3.6770772 -0.781248,-1.291665 -1.9062467,-1.729164 -0.8124987,-0.3125 -2.6145792,-0.3125 H 3.6666609 Z"
       id="text62"
       style="font-size:21.3333px;font-family:Arial, Arial_MSFontService, sans-serif"
       transform="translate(380.569,385)"
       aria-label="D" />
    <path
       d="M 11.270816,-8.9791525 H 1.1874981 V -10.72915 H 11.270816 Z m 0,4.6354094 H 1.1874981 V -6.0937404 H 11.270816 Z"
       id="text63"
       style="font-size:21.3333px;font-family:Arial, Arial_MSFontService, sans-serif"
       transform="translate(395.902,385)"
       aria-label="=" />
    <path
       d="m 7.9479041,0 h -1.874997 v -11.947898 q -0.6770823,0.645833 -1.7812472,1.291665 -1.0937483,0.645832 -1.9687469,0.9687483 v -1.8124973 q 1.5729142,-0.739582 2.7499957,-1.791664 1.1770814,-1.052081 1.666664,-2.041663 h 1.2083314 z"
       id="text64"
       style="font-size:21.3333px;font-family:Arial, Arial_MSFontService, sans-serif"
       transform="translate(408.402,385)"
       aria-label="1" />
    <path
       d="m 1.5624975,0 v -15.270809 h 2.0208302 v 7.5729045 l 7.5833213,-7.5729045 h 2.739579 L 7.4999882,-9.083319 14.187478,0 H 11.520815 L 6.0833237,-7.7291545 3.5833277,-5.2916583 V 0 Z M 25.49996,-8.9791525 H 15.416642 V -10.72915 H 25.49996 Z m 0,4.6354094 H 15.416642 V -6.0937404 H 25.49996 Z m 2.08333,0.3124995 1.874997,-0.2499996 q 0.322916,1.5937474 1.093748,2.3020797 0.781249,0.6979155 1.895831,0.6979155 1.322914,0 2.229163,-0.9166652 0.916665,-0.9166652 0.916665,-2.2708297 0,-1.2916647 -0.843749,-2.1249967 -0.843748,-0.8437487 -2.14583,-0.8437487 -0.531249,0 -1.322914,0.2083331 l 0.208333,-1.6458308 q 0.187499,0.020833 0.302083,0.020833 1.197914,0 2.156246,-0.624999 0.958332,-0.624999 0.958332,-1.92708 0,-1.031248 -0.697916,-1.708331 -0.697915,-0.677082 -1.80208,-0.677082 -1.093748,0 -1.822914,0.687499 -0.729165,0.687499 -0.937498,2.062497 l -1.874997,-0.333333 q 0.343749,-1.885414 1.562497,-2.916662 1.218748,-1.041665 3.031245,-1.041665 1.249998,0 2.30208,0.541666 1.052082,0.531249 1.604164,1.458331 0.562499,0.927082 0.562499,1.968747 0,0.989581 -0.531249,1.8020798 -0.531249,0.8124987 -1.572914,1.2916646 1.354165,0.3124995 2.104163,1.3020813 0.749999,0.9791651 0.749999,2.4583295 0,1.9999968 -1.458331,3.3958279 -1.458331,1.38541451 -3.687494,1.38541451 -2.010414,0 -3.343745,-1.19791478 Q 27.77079,-2.1249966 27.58329,-4.0312436 Z M 40.447855,0 v -2.1354133 h 2.135413 V 0 q 0,1.1770815 -0.416666,1.8958303 -0.416666,0.7291656 -1.322914,1.1249983 L 40.322855,2.2187465 Q 40.916604,1.9583302 41.197854,1.4479144 41.479104,0.94791517 41.510354,0 Z m 11.604146,0 v -15.270809 h 5.760407 q 1.520831,0 2.322913,0.145833 1.124998,0.1875 1.885414,0.718749 0.760415,0.520832 1.218748,1.468747 0.468749,0.947916 0.468749,2.08333 0,1.9479141 -1.239581,3.3020786 -1.239582,1.3437479 -4.47916,1.3437479 h -3.91666 V 0 Z m 2.02083,-8.010404 h 3.94791 q 1.95833,0 2.781246,-0.7291655 0.822915,-0.7291655 0.822915,-2.0520805 0,-0.958331 -0.489582,-1.635414 -0.479166,-0.687499 -1.270832,-0.906248 -0.510416,-0.135417 -1.885413,-0.135417 H 54.072831 Z M 75.90613,-8.9791525 H 65.822813 V -10.72915 H 75.90613 Z m 0,4.6354094 H 65.822813 V -6.0937404 H 75.90613 Z M 85.041532,0 h -1.874997 v -11.947898 q -0.677082,0.645833 -1.781247,1.291665 -1.093748,0.645832 -1.968747,0.9687483 v -1.8124973 q 1.572914,-0.739582 2.749996,-1.791664 1.177081,-1.052081 1.666664,-2.041663 h 1.208331 z m 5.812489,0 v -2.1354133 h 2.135414 V 0 q 0,1.1770815 -0.416666,1.8958303 -0.416666,0.7291656 -1.322915,1.1249983 L 90.729021,2.2187465 Q 91.322771,1.9583302 91.60402,1.4479144 91.88527,0.94791517 91.91652,0 Z m 10.916649,-4.9062423 1.90625,-0.1666664 q 0.13542,1.1458316 0.625,1.8854137 0.5,0.7291655 1.54166,1.1874982 1.04167,0.4479159 2.34375,0.4479159 1.15625,0 2.04166,-0.3437494 0.88542,-0.3437495 1.3125,-0.9374986 0.4375,-0.6041657 0.4375,-1.3124979 0,-0.7187488 -0.41667,-1.249998 -0.41666,-0.5416658 -1.375,-0.9062486 -0.61458,-0.2395829 -2.71874,-0.7395821 -2.10416,-0.5104159 -2.94791,-0.9583319 -1.09375,-0.5729157 -1.63542,-1.4166644 -0.53125,-0.8541652 -0.53125,-1.9062472 0,-1.156248 0.65625,-2.156246 0.65625,-1.010415 1.91667,-1.531248 1.26041,-0.520832 2.80208,-0.520832 1.69791,0 2.98957,0.552082 1.30209,0.541666 2,1.604164 0.69792,1.062498 0.75,2.406246 l -1.9375,0.145833 q -0.15625,-1.447914 -1.0625,-2.187496 -0.89583,-0.739582 -2.65624,-0.739582 -1.83333,0 -2.67708,0.677082 -0.83333,0.666666 -0.83333,1.614581 0,0.822915 0.59375,1.354164 0.58333,0.5312495 3.04166,1.0937486 2.46874,0.5520824 3.38541,0.9687484 1.33333,0.6145824 1.96875,1.5624976 0.63541,0.9374985 0.63541,2.1666632 0,1.2187481 -0.69791,2.3020797 -0.69792,1.07291498 -2.01042,1.67708069 -1.30208,0.59374907 -2.93749,0.59374907 -2.07292,0 -3.47916,-0.60416572 -1.39583,-0.60416571 -2.19792,-1.81249714 -0.79166,-1.2187481 -0.83333,-2.7499957 z M 126.3123,-8.9791525 H 116.22899 V -10.72915 h 10.08331 z m 0,4.6354094 H 116.22899 V -6.0937404 H 126.3123 Z M 135.44771,0 h -1.875 v -11.947898 q -0.67708,0.645833 -1.78125,1.291665 -1.09375,0.645832 -1.96875,0.9687483 v -1.8124973 q 1.57292,-0.739582 2.75,-1.791664 1.17708,-1.052081 1.66666,-2.041663 h 1.20834 z m 5.81248,0 v -2.1354133 h 2.13542 V 0 q 0,1.1770815 -0.41667,1.8958303 -0.41666,0.7291656 -1.32291,1.1249983 L 141.1352,2.2187465 Q 141.72894,1.9583302 142.01019,1.4479144 142.29144,0.94791517 142.32269,0 Z m 11.60415,0 v -15.270809 h 5.2604 q 1.78125,0 2.71875,0.218749 1.3125,0.302083 2.23958,1.093749 1.20833,1.020831 1.80208,2.614579 0.60417,1.5833308 0.60417,3.6249942 0,1.7395806 -0.40625,3.0833285 -0.40625,1.3437478 -1.04167,2.2291631 -0.63541,0.8749986 -1.39583,1.3854145 -0.75,0.49999919 -1.82291,0.76041544 Q 159.76016,0 158.37474,0 Z m 2.02083,-1.8020805 h 3.26041 q 1.51041,0 2.36458,-0.2812495 0.86458,-0.2812496 1.375,-0.7916655 0.71874,-0.7187488 1.11458,-1.9270802 0.40625,-1.2187481 0.40625,-2.9479121 0,-2.3958292 -0.79167,-3.6770772 -0.78125,-1.291665 -1.90625,-1.729164 -0.81249,-0.3125 -2.61457,-0.3125 h -3.20833 z"
       id="text65"
       style="font-size:21.3333px;font-family:Arial, Arial_MSFontService, sans-serif"
       transform="translate(534.069,385)"
       aria-label="K=3, P=1, S=1, D" />
    <path
       d="M 11.270816,-8.9791525 H 1.1874981 V -10.72915 H 11.270816 Z m 0,4.6354094 H 1.1874981 V -6.0937404 H 11.270816 Z"
       id="text66"
       style="font-size:21.3333px;font-family:Arial, Arial_MSFontService, sans-serif"
       transform="translate(700.902,385)"
       aria-label="=" />
    <path
       d="M 10.739566,-1.8020805 V 0 H 0.64583231 Q 0.62499901,-0.67708226 0.86458197,-1.3020813 1.249998,-2.3333296 2.0937467,-3.3333281 2.947912,-4.3333265 4.5520761,-5.6458244 7.0416555,-7.6874879 7.9166542,-8.874986 q 0.8749986,-1.197915 0.8749986,-2.260413 0,-1.114582 -0.8020821,-1.874997 -0.7916654,-0.770832 -2.0729134,-0.770832 -1.3541645,0 -2.1666632,0.812498 -0.8124987,0.812499 -0.8229154,2.249997 l -1.92708028,-0.197916 q 0.19791638,-2.156247 1.48958098,-3.281245 1.2916646,-1.135415 3.4687445,-1.135415 2.1979132,0 3.4791612,1.218748 1.2812479,1.218748 1.2812479,3.020829 0,0.916665 -0.374999,1.80208 -0.3749997,0.8854153 -1.2499984,1.8645804 -0.8645819,0.9791651 -2.8854121,2.6874958 -1.6874973,1.4166644 -2.1666632,1.9270802 -0.4791659,0.4999993 -0.7916654,1.0104151 z"
       id="text67"
       style="font-size:21.3333px;font-family:Arial, Arial_MSFontService, sans-serif"
       transform="translate(713.402,385)"
       aria-label="2" />
  </g>
  <path
     id="rect67"
     clip-path="url(#clipPath71)"
     style="opacity:0;fill:#ffffff;stroke:#000000;stroke-width:3.024"
     transform="translate(-199.48849,-169.41176)"
     d="M 209.30946,179.84654 H 1090.1279 V 559.18156 H 209.30946 Z" />
  <path
     id="rect68"
     clip-path="url(#clipPath70)"
     style="opacity:0;fill:#ffffff;stroke:#000000;stroke-width:3.024"
     transform="translate(-199.48849,-169.41176)"
     d="M 208.69565,179.84656 H 1070.486 V 526.64963 H 208.69565 Z" />
</svg>
