<?xml version="1.0" encoding="UTF-8" standalone="no"?>
<svg
   width="739.64191"
   height="437.0332"
   overflow="hidden"
   version="1.1"
   id="svg45"
   xmlns="http://www.w3.org/2000/svg"
   xmlns:svg="http://www.w3.org/2000/svg">
  <defs
     id="defs45">
    <clipPath
       clipPathUnits="userSpaceOnUse"
       id="clipPath45">
      <rect
         style="opacity:0;fill:#ffffff;stroke:#000000;stroke-width:3.024"
         id="rect46"
         width="739.64191"
         height="437.0332"
         x="262.711"
         y="68.132988" />
    </clipPath>
  </defs>
  <g
     id="g45"
     clip-path="url(#clipPath45)"
     transform="translate(-262.711,-68.132988)">
    <path
       id="rect1"
       style="fill:#ffffff"
       d="M 0,0 H 1280 V 720 H 0 Z" />
    <path
       id="rect2"
       style="fill:#eaeaea;stroke:#000000;stroke-width:4;stroke-miterlimit:8"
       d="M 434,178 H 859 V 475 H 434 Z" />
    <path
       d="m 14.335956,-0.44270889 q 0,0.14322934 -0.05208,0.24739614 -0.05208,0.091146 -0.247396,0.1562502 -0.195313,0.06510425 -0.572917,0.09114595 -0.377605,0.0260417 -1.028647,0.0260417 -0.546876,0 -0.872397,-0.0260417 -0.325522,-0.0260417 -0.520834,-0.09114595 -0.182292,-0.0781251 -0.260417,-0.1822919 -0.07813,-0.11718764 -0.130209,-0.27343784 L 9.1406366,-4.2578179 Q 8.8671987,-4.8958395 8.6067817,-5.3906318 8.3463647,-5.8854241 8.0208435,-6.2109453 7.7083431,-6.5494874 7.2916759,-6.7187585 6.8750087,-6.8880295 6.328133,-6.8880295 H 5.2604233 v 6.41927891 q 0,0.1302085 -0.091146,0.23437529 -0.078125,0.1041668 -0.2734379,0.16927105 Q 4.7005268,0 4.3750055,0.03906255 4.0494843,0.0781251 3.5416711,0.0781251 q -0.4947922,0 -0.8333343,-0.03906255 Q 2.3828155,0 2.1875028,-0.06510425 1.99219,-0.1302085 1.9140649,-0.2343753 1.8359398,-0.33854209 1.8359398,-0.46875059 V -15.768249 q 0,-0.572917 0.2864587,-0.820314 0.2994796,-0.260417 0.7291676,-0.260417 h 4.3619847 q 0.6640633,0 1.0937514,0.02604 0.429688,0.02604 0.781251,0.0651 1.0156258,0.14323 1.8229188,0.494793 0.820314,0.351563 1.38021,0.92448 0.572918,0.559896 0.872397,1.341147 0.29948,0.768231 0.29948,1.770836 0,0.846355 -0.221355,1.549481 -0.208333,0.6901052 -0.625001,1.2369809 -0.416667,0.5468757 -1.028647,0.950522 -0.61198,0.4036464 -1.393231,0.6510425 0.377605,0.1822919 0.703126,0.4427089 0.338542,0.260417 0.625001,0.6380217 0.29948,0.3645838 0.559897,0.8463552 0.260417,0.4687506 0.507813,1.0677097 l 1.419272,3.3203167 q 0.195313,0.4947923 0.260417,0.72916756 0.0651,0.22135445 0.0651,0.35156295 z M 9.9218875,-11.875015 q 0,-0.833334 -0.3776046,-1.406252 -0.3776047,-0.572917 -1.2369807,-0.807292 -0.260417,-0.0651 -0.5989591,-0.104167 -0.3255213,-0.03906 -0.9114595,-0.03906 H 5.2604233 v 4.7786521 h 1.7447939 q 0.7291676,0 1.2760433,-0.1692711 0.5468757,-0.1822919 0.9114594,-0.494792 0.3645838,-0.325522 0.5468757,-0.76823 0.1822919,-0.442709 0.1822919,-0.989585 z M 26.992222,-6.58855 q 0,0.5989591 -0.273438,0.8854178 -0.260417,0.2864587 -0.729168,0.2864587 h -7.070321 q 0,0.7421884 0.169271,1.3541684 0.182292,0.5989591 0.559897,1.0286471 0.390625,0.4166672 0.989584,0.6380216 0.61198,0.2213545 1.458335,0.2213545 0.859376,0 1.510419,-0.1171877 0.651042,-0.1302085 1.119793,-0.2734378 0.481771,-0.1562502 0.794272,-0.2734379 0.3125,-0.1302085 0.507813,-0.1302085 0.117188,0 0.195313,0.052083 0.07813,0.039063 0.130208,0.1562502 0.05208,0.1171877 0.0651,0.3385421 0.02604,0.2083336 0.02604,0.5338549 0,0.2864587 -0.01302,0.4947923 -0.01302,0.1953127 -0.03906,0.3385421 -0.02604,0.14322931 -0.07813,0.24739611 -0.05208,0.091146 -0.14323,0.1822919 -0.07813,0.0911459 -0.455729,0.24739615 -0.377605,0.15625019 -0.963543,0.31250039 -0.585939,0.14322935 -1.341148,0.24739615 -0.755209,0.11718765 -1.614585,0.11718765 -1.549481,0 -2.721358,-0.3906255 -1.158855,-0.39062549 -1.940106,-1.18489735 -0.781251,-0.7942718 -1.171877,-2.0052108 -0.377605,-1.2109391 -0.377605,-2.8385453 0,-1.5494811 0.403647,-2.7864619 0.403646,-1.2500013 1.171876,-2.1093773 0.76823,-0.872397 1.861982,-1.328127 1.106772,-0.455729 2.486982,-0.455729 1.458335,0 2.486982,0.429688 1.041668,0.429688 1.705732,1.197918 0.664063,0.755209 0.976563,1.7968768 0.312501,1.0416679 0.312501,2.2656278 z m -3.177087,-0.9375012 q 0.03906,-1.3802101 -0.559897,-2.161461 -0.585938,-0.7942718 -1.822919,-0.7942718 -0.625001,0 -1.093751,0.234375 -0.45573,0.234376 -0.76823,0.6380219 -0.29948,0.3906255 -0.468751,0.9375011 -0.15625,0.5338549 -0.182292,1.1458348 z m 14.661475,5.2343816 q 0,0.3385421 -0.02604,0.5729174 -0.01302,0.2213545 -0.05208,0.3776047 -0.02604,0.1562502 -0.07813,0.260417 -0.03906,0.0911459 -0.195313,0.24739611 -0.15625,0.14322935 -0.533855,0.3645838 -0.377604,0.20833359 -0.859376,0.37760464 -0.481771,0.16927105 -1.054689,0.27343785 -0.559896,0.1041668 -1.158855,0.1041668 -1.341148,0 -2.382816,-0.4166672 -1.028647,-0.41666719 -1.731773,-1.2239599 -0.703126,-0.8203135 -1.06771,-1.99219 -0.351562,-1.1718765 -0.351562,-2.6822951 0,-1.7447938 0.429688,-3.0078163 0.442708,-1.2760432 1.223959,-2.1093772 0.781251,-0.833335 1.848961,-1.236981 1.06771,-0.403646 2.343753,-0.403646 0.520834,0 1.015626,0.09115 0.507813,0.09115 0.937502,0.247397 0.442708,0.15625 0.781251,0.351563 0.351562,0.195312 0.494792,0.338542 0.143229,0.143229 0.195313,0.247396 0.0651,0.09115 0.09115,0.247396 0.03906,0.15625 0.05208,0.390625 0.02604,0.221355 0.02604,0.546876 0,0.7552094 -0.130209,1.0677098 -0.130208,0.2994795 -0.338542,0.2994795 -0.221354,0 -0.468751,-0.1822919 -0.247396,-0.1822918 -0.585938,-0.4036463 -0.338542,-0.2213544 -0.807292,-0.4036463 -0.468751,-0.1822918 -1.119794,-0.1822918 -1.276043,0 -1.953127,0.9895844 -0.677084,0.9765638 -0.677084,2.8776079 0,0.9375011 0.169271,1.6536479 0.169271,0.7161467 0.494792,1.1979182 0.338542,0.4817714 0.833334,0.7291675 0.507814,0.2343753 1.171877,0.2343753 0.677084,0 1.158856,-0.1953127 0.494792,-0.2083336 0.859376,-0.4557297 0.364583,-0.2473962 0.61198,-0.4427089 0.247396,-0.2083336 0.416667,-0.2083336 0.117187,0 0.195313,0.065104 0.07813,0.065104 0.117187,0.2473962 0.05208,0.169271 0.07813,0.4427088 0.02604,0.2734379 0.02604,0.7031259 z m 13.385436,1.84896071 q 0,0.1302085 -0.0651,0.23437529 -0.0651,0.091146 -0.234376,0.1562502 -0.15625,0.06510425 -0.429688,0.09114595 -0.260417,0.03906255 -0.664063,0.03906255 -0.429688,0 -0.703126,-0.03906255 -0.260417,-0.0260417 -0.416667,-0.09114595 -0.15625,-0.06510425 -0.221354,-0.1562502 -0.06511,-0.10416679 -0.06511,-0.23437529 V -1.7838564 q -0.963543,1.04166796 -1.966148,1.56250195 -0.989585,0.520834 -2.057294,0.520834 -1.197918,0 -2.018232,-0.3906255 -0.807293,-0.39062549 -1.315106,-1.06770965 -0.494792,-0.6770842 -0.716147,-1.562502 -0.208333,-0.8984386 -0.208333,-2.2265653 v -7.1093841 q 0,-0.130208 0.0651,-0.221354 0.07813,-0.104167 0.260417,-0.169271 0.195313,-0.06511 0.507813,-0.09115 0.325521,-0.03906 0.794272,-0.03906 0.481772,0 0.794272,0.03906 0.3125,0.02604 0.494792,0.09115 0.195313,0.0651 0.273438,0.169271 0.07813,0.09115 0.07813,0.221354 v 6.5625084 q 0,0.9114595 0.117188,1.3932309 0.117187,0.4817715 0.351563,0.8333344 0.247396,0.3385421 0.61198,0.5338548 0.377604,0.1822919 0.872397,0.1822919 0.625,0 1.250001,-0.4557297 0.638022,-0.4557297 1.354169,-1.3281267 v -7.721364 q 0,-0.130208 0.0651,-0.221354 0.07813,-0.104167 0.260417,-0.169271 0.195313,-0.06511 0.507813,-0.09115 0.3125,-0.03906 0.794272,-0.03906 0.481771,0 0.794272,0.03906 0.3125,0.02604 0.494792,0.09115 0.182292,0.0651 0.260417,0.169271 0.07813,0.09115 0.07813,0.221354 z M 62.617268,-10.976576 q 0,0.46875 -0.02604,0.76823 -0.02604,0.2994793 -0.07813,0.4687504 -0.05208,0.169271 -0.143229,0.2343753 -0.07813,0.065104 -0.208334,0.065104 -0.104167,0 -0.234375,-0.039063 -0.130209,-0.052083 -0.29948,-0.1041668 -0.15625,-0.052083 -0.351563,-0.091146 -0.195313,-0.052083 -0.429688,-0.052083 -0.273438,0 -0.546876,0.1171877 -0.273437,0.1041668 -0.572917,0.3385421 -0.286459,0.2343752 -0.61198,0.6250007 -0.3125,0.3906255 -0.677084,0.9635429 v 7.23959251 q 0,0.1302085 -0.07813,0.23437529 -0.07813,0.091146 -0.273438,0.1562502 -0.182292,0.06510425 -0.494792,0.09114595 -0.312501,0.03906255 -0.794272,0.03906255 -0.481772,0 -0.794272,-0.03906255 -0.3125,-0.0260417 -0.507813,-0.09114595 -0.182292,-0.06510425 -0.260417,-0.1562502 -0.07813,-0.10416679 -0.07813,-0.23437529 V -12.057307 q 0,-0.130208 0.0651,-0.221354 0.0651,-0.104167 0.234375,-0.169271 0.169271,-0.06511 0.429688,-0.09115 0.273438,-0.03906 0.677085,-0.03906 0.416667,0 0.690105,0.03906 0.273437,0.02604 0.416667,0.09115 0.15625,0.0651 0.221354,0.169271 0.0651,0.09115 0.0651,0.221354 v 1.445314 q 0.45573,-0.651042 0.859377,-1.067709 0.403646,-0.429688 0.76823,-0.677084 0.364583,-0.247397 0.729167,-0.338543 0.364584,-0.104166 0.729168,-0.104166 0.169271,0 0.364584,0.02604 0.195312,0.01302 0.403646,0.0651 0.208334,0.03906 0.364584,0.104166 0.15625,0.05208 0.221354,0.117188 0.07813,0.0651 0.104167,0.143229 0.03906,0.07813 0.0651,0.221355 0.02604,0.130208 0.03906,0.403646 0.01302,0.273438 0.01302,0.742189 z m 9.479175,0 q 0,0.46875 -0.02604,0.76823 -0.02604,0.2994793 -0.07813,0.4687504 -0.05208,0.169271 -0.143229,0.2343753 -0.07813,0.065104 -0.208334,0.065104 -0.104166,0 -0.234375,-0.039063 -0.130208,-0.052083 -0.299479,-0.1041668 -0.156251,-0.052083 -0.351563,-0.091146 -0.195313,-0.052083 -0.429688,-0.052083 -0.273438,0 -0.546876,0.1171877 -0.273438,0.1041668 -0.572917,0.3385421 -0.286459,0.2343752 -0.61198,0.6250007 -0.312501,0.3906255 -0.677085,0.9635429 v 7.23959251 q 0,0.1302085 -0.07813,0.23437529 -0.07813,0.091146 -0.273437,0.1562502 -0.182292,0.06510425 -0.494793,0.09114595 -0.3125,0.03906255 -0.794272,0.03906255 -0.481771,0 -0.794271,-0.03906255 -0.312501,-0.0260417 -0.507814,-0.09114595 -0.182291,-0.06510425 -0.260417,-0.1562502 -0.07813,-0.10416679 -0.07813,-0.23437529 V -12.057307 q 0,-0.130208 0.06511,-0.221354 0.0651,-0.104167 0.234375,-0.169271 0.169271,-0.06511 0.429688,-0.09115 0.273438,-0.03906 0.677084,-0.03906 0.416667,0 0.690105,0.03906 0.273438,0.02604 0.416667,0.09115 0.156251,0.0651 0.221355,0.169271 0.0651,0.09115 0.0651,0.221354 v 1.445314 q 0.45573,-0.651042 0.859376,-1.067709 0.403646,-0.429688 0.76823,-0.677084 0.364584,-0.247397 0.729168,-0.338543 0.364584,-0.104166 0.729167,-0.104166 0.169271,0 0.364584,0.02604 0.195313,0.01302 0.403647,0.0651 0.208333,0.03906 0.364583,0.104166 0.156251,0.05208 0.221355,0.117188 0.07813,0.0651 0.104167,0.143229 0.03906,0.07813 0.0651,0.221355 0.02604,0.130208 0.03906,0.403646 0.01302,0.273438 0.01302,0.742189 z m 12.447932,4.388026 q 0,0.5989591 -0.273437,0.8854178 -0.260417,0.2864587 -0.729168,0.2864587 h -7.070321 q 0,0.7421884 0.169271,1.3541684 0.182292,0.5989591 0.559896,1.0286471 0.390626,0.4166672 0.989585,0.6380216 0.61198,0.2213545 1.458335,0.2213545 0.859376,0 1.510419,-0.1171877 0.651042,-0.1302085 1.119793,-0.2734378 0.481771,-0.1562502 0.794271,-0.2734379 0.312501,-0.1302085 0.507814,-0.1302085 0.117187,0 0.195312,0.052083 0.07813,0.039063 0.130209,0.1562502 0.05208,0.1171877 0.0651,0.3385421 0.02604,0.2083336 0.02604,0.5338549 0,0.2864587 -0.01302,0.4947923 -0.01302,0.1953127 -0.03906,0.3385421 -0.02604,0.14322931 -0.07813,0.24739611 -0.05208,0.091146 -0.143229,0.1822919 -0.07813,0.0911459 -0.45573,0.24739615 -0.377604,0.15625019 -0.963543,0.31250039 -0.585938,0.14322935 -1.341147,0.24739615 -0.75521,0.11718765 -1.614586,0.11718765 -1.549481,0 -2.721357,-0.3906255 -1.158856,-0.39062549 -1.940107,-1.18489735 -0.781251,-0.7942718 -1.171876,-2.0052108 -0.377605,-1.2109391 -0.377605,-2.8385453 0,-1.5494811 0.403646,-2.7864619 0.403647,-1.2500013 1.171877,-2.1093773 0.76823,-0.872397 1.861981,-1.328127 1.106773,-0.455729 2.486983,-0.455729 1.458335,0 2.486982,0.429688 1.041668,0.429688 1.705731,1.197918 0.664064,0.755209 0.976564,1.7968768 0.3125,1.0416679 0.3125,2.2656278 z m -3.177087,-0.9375012 q 0.03906,-1.3802101 -0.559896,-2.161461 -0.585939,-0.7942718 -1.822919,-0.7942718 -0.625001,0 -1.093752,0.234375 -0.45573,0.234376 -0.76823,0.6380219 -0.299479,0.3906255 -0.46875,0.9375011 -0.156251,0.5338549 -0.182292,1.1458348 z m 16.966171,7.08334231 q 0,0.1302085 -0.07813,0.23437529 -0.07813,0.091146 -0.260417,0.1562502 -0.182292,0.06510425 -0.507813,0.09114595 -0.312501,0.03906255 -0.781251,0.03906255 -0.481772,0 -0.807293,-0.03906255 -0.312501,-0.0260417 -0.494792,-0.09114595 -0.182292,-0.06510425 -0.260417,-0.1562502 -0.07813,-0.10416679 -0.07813,-0.23437529 V -7.0703214 q 0,-0.8463553 -0.130208,-1.3281267 -0.117188,-0.4817715 -0.351563,-0.8203135 -0.234375,-0.351563 -0.61198,-0.5338549 -0.364584,-0.1953127 -0.859376,-0.1953127 -0.625001,0 -1.263022,0.4557297 -0.638022,0.4557297 -1.328127,1.3281267 v 7.72136391 q 0,0.1302085 -0.07813,0.23437529 -0.07813,0.091146 -0.273438,0.1562502 -0.182292,0.06510425 -0.494792,0.09114595 -0.312501,0.03906255 -0.794272,0.03906255 -0.481772,0 -0.794272,-0.03906255 -0.3125,-0.0260417 -0.507813,-0.09114595 -0.182292,-0.06510425 -0.260417,-0.1562502 -0.07813,-0.10416679 -0.07813,-0.23437529 V -12.057307 q 0,-0.130208 0.0651,-0.221354 0.0651,-0.104167 0.234375,-0.169271 0.169271,-0.06511 0.429688,-0.09115 0.273438,-0.03906 0.677085,-0.03906 0.416667,0 0.690105,0.03906 0.273437,0.02604 0.416667,0.09115 0.15625,0.0651 0.221354,0.169271 0.0651,0.09115 0.0651,0.221354 v 1.341148 q 0.963543,-1.041668 1.953128,-1.562502 1.002605,-0.520834 2.083336,-0.520834 1.184897,0 1.99219,0.390625 0.820313,0.390626 1.315106,1.06771 0.507813,0.664063 0.729167,1.5625018 0.221355,0.8984386 0.221355,2.1614611 z m 9.843761,-1.14583481 q 0,0.5729174 -0.0781,0.88541781 -0.0651,0.29947955 -0.18229,0.42968804 -0.11719,0.11718765 -0.35156,0.22135445 -0.22136,0.09114595 -0.53386,0.1562502 -0.29948,0.0781251 -0.66406,0.11718765 -0.35156,0.0390626 -0.71615,0.0390626 -0.97656,0 -1.69271,-0.24739615 -0.71614,-0.24739615 -1.18489,-0.75520929 -0.46875,-0.52083391 -0.69011,-1.30208491 -0.22135,-0.781251 -0.22135,-1.8489607 v -5.9505283 h -1.39323 q -0.2474,0 -0.37761,-0.2994797 -0.130208,-0.3125 -0.130208,-1.028647 0,-0.377605 0.02604,-0.638022 0.03907,-0.260417 0.104168,-0.403646 0.0651,-0.15625 0.15625,-0.221355 0.10417,-0.0651 0.23438,-0.0651 h 1.38021 v -2.591149 q 0,-0.130208 0.0651,-0.234375 0.0781,-0.104167 0.26042,-0.169271 0.19531,-0.07813 0.50781,-0.104167 0.32552,-0.03906 0.79427,-0.03906 0.48177,0 0.79427,0.03906 0.32553,0.02604 0.50782,0.104167 0.18229,0.0651 0.26041,0.169271 0.0781,0.104167 0.0781,0.234375 v 2.591149 h 2.52604 q 0.13021,0 0.22136,0.0651 0.10417,0.06511 0.16927,0.221355 0.0651,0.143229 0.0911,0.403646 0.0391,0.260417 0.0391,0.638022 0,0.716147 -0.13021,1.028647 -0.13021,0.2994797 -0.3776,0.2994797 h -2.53907 v 5.455736 q 0,0.9505221 0.29948,1.4322935 0.29948,0.4687506 1.06771,0.4687506 0.26042,0 0.46875,-0.039063 0.20833,-0.052083 0.36458,-0.1041668 0.16927,-0.065104 0.27344,-0.1041668 0.11719,-0.052083 0.20833,-0.052083 0.0781,0 0.14323,0.052083 0.0781,0.039063 0.11719,0.1822919 0.0391,0.1302085 0.0651,0.3645838 0.0391,0.2343753 0.0391,0.5989591 z m 17.85159,0.1562502 q 0,0.3906255 -0.0391,0.66406336 -0.026,0.260417 -0.0911,0.4427089 -0.0651,0.16927104 -0.16927,0.24739614 Q 125.63818,0 125.50797,0 h -7.72136 q -0.42969,0 -0.72917,-0.24739615 -0.28646,-0.26041699 -0.28646,-0.83333435 V -16.380229 q 0,-0.130209 0.0781,-0.234375 0.0911,-0.104167 0.28646,-0.169271 0.19531,-0.06511 0.52083,-0.104167 0.33854,-0.03906 0.83334,-0.03906 0.50781,0 0.83333,0.03906 0.32552,0.03906 0.52083,0.104167 0.19532,0.0651 0.27344,0.169271 0.0911,0.104166 0.0911,0.234375 v 13.5547046 h 5.29948 q 0.13021,0 0.22136,0.078125 0.10416,0.065104 0.16927,0.2343753 0.0651,0.1562502 0.0911,0.429688 0.0391,0.260417 0.0391,0.6510425 z m 11.71876,1.02864716 q 0,0.18229189 -0.13021,0.28645869 -0.13021,0.1041668 -0.41667,0.14322935 -0.27343,0.0520834 -0.82031,0.0520834 -0.58594,0 -0.85937,-0.0520834 -0.26042,-0.03906255 -0.37761,-0.14322935 -0.10417,-0.1041668 -0.10417,-0.28645869 V -1.3281267 q -0.71614,0.76823016 -1.64062,1.1979182 -0.91146,0.42968805 -2.03126,0.42968805 -0.92448,0 -1.70573,-0.24739615 -0.76823,-0.2343753 -1.34114,-0.70312589 -0.5599,-0.48177141 -0.8724,-1.18489731 -0.3125,-0.7031259 -0.3125,-1.6406271 0,-1.0156263 0.39062,-1.7578147 0.40365,-0.7552093 1.1849,-1.2369807 0.79427,-0.4947923 1.96615,-0.7291676 1.17188,-0.2343753 2.72136,-0.2343753 h 1.13281 v -0.7031259 q 0,-0.5468757 -0.11719,-0.9505221 -0.10416,-0.4166671 -0.36458,-0.690105 -0.2474,-0.2734378 -0.67708,-0.4036468 -0.41667,-0.130208 -1.04167,-0.130208 -0.82032,0 -1.47136,0.182292 -0.63802,0.1822918 -1.13281,0.4036462 -0.4948,0.2213545 -0.83334,0.4036464 -0.32552,0.1822918 -0.53385,0.1822918 -0.14323,0 -0.26042,-0.091146 -0.10417,-0.091146 -0.18229,-0.260417 -0.0651,-0.169271 -0.10417,-0.4166672 -0.0391,-0.2473962 -0.0391,-0.5468752 0,-0.403647 0.0651,-0.638022 0.0651,-0.234375 0.2474,-0.416667 0.18229,-0.195313 0.63802,-0.416667 0.45573,-0.234376 1.06771,-0.429688 0.61198,-0.195313 1.32813,-0.312501 0.72917,-0.130208 1.4974,-0.130208 1.36719,0 2.33073,0.273438 0.97656,0.260417 1.60156,0.820313 0.625,0.546876 0.91146,1.419273 0.28646,0.8723965 0.28646,2.0703147 z M 134.53142,-5.377611 h -1.25 q -0.79427,0 -1.35417,0.1171877 -0.5599,0.1171876 -0.91146,0.3515629 -0.35156,0.2343753 -0.52083,0.5729174 -0.15625,0.3255213 -0.15625,0.7552093 0,0.7291676 0.45573,1.1458348 0.46875,0.4166672 1.28906,0.4166672 0.69011,0 1.26302,-0.351563 0.58594,-0.3515629 1.1849,-1.0286471 z M 147.26581,0 145.85956,4.1145885 q -0.11719,0.3255213 -0.63802,0.4687506 -0.52084,0.1432294 -1.52344,0.1432294 -0.52084,0 -0.83334,-0.052083 -0.3125,-0.039063 -0.46875,-0.1432294 -0.15625,-0.1041668 -0.16927,-0.260417 -0.013,-0.1562502 0.0781,-0.3776046 L 143.85435,0 q -0.16928,-0.0781251 -0.3125,-0.2343753 -0.13021,-0.16927104 -0.19532,-0.35156294 l -3.9974,-10.67709676 q -0.16927,-0.45573 -0.16927,-0.690105 0,-0.247396 0.15625,-0.377605 0.15625,-0.143229 0.52083,-0.195312 0.37761,-0.05208 0.98959,-0.05208 0.5599,0 0.88542,0.02604 0.32552,0.01302 0.50781,0.09115 0.18229,0.07813 0.27344,0.247396 0.0911,0.15625 0.18229,0.45573 l 2.73438,7.773447 h 0.0391 l 2.5,-7.929698 q 0.0781,-0.338542 0.19532,-0.442708 0.13021,-0.117188 0.41666,-0.169271 0.28646,-0.05208 1.00261,-0.05208 0.5599,0 0.92448,0.05208 0.3776,0.05208 0.54688,0.195312 0.18229,0.14323 0.18229,0.390626 0,0.234375 -0.10417,0.559896 z m 16.32815,-6.58855 q 0,0.5989591 -0.27344,0.8854178 -0.26042,0.2864587 -0.72917,0.2864587 h -7.07032 q 0,0.7421884 0.16927,1.3541684 0.18229,0.5989591 0.5599,1.0286471 0.39063,0.4166672 0.98958,0.6380216 0.61198,0.2213545 1.45834,0.2213545 0.85938,0 1.51042,-0.1171877 0.65104,-0.1302085 1.11979,-0.2734378 0.48177,-0.1562502 0.79427,-0.2734379 0.3125,-0.1302085 0.50782,-0.1302085 0.11718,0 0.19531,0.052083 0.0781,0.039063 0.13021,0.1562502 0.0521,0.1171877 0.0651,0.3385421 0.026,0.2083336 0.026,0.5338549 0,0.2864587 -0.013,0.4947923 -0.013,0.1953127 -0.0391,0.3385421 -0.026,0.14322931 -0.0781,0.24739611 -0.0521,0.091146 -0.14322,0.1822919 -0.0781,0.0911459 -0.45573,0.24739615 -0.37761,0.15625019 -0.96355,0.31250039 -0.58594,0.14322935 -1.34114,0.24739615 -0.75521,0.11718765 -1.61459,0.11718765 -1.54948,0 -2.72136,-0.3906255 -1.15885,-0.39062549 -1.9401,-1.18489735 -0.78126,-0.7942718 -1.17188,-2.0052108 -0.37761,-1.2109391 -0.37761,-2.8385453 0,-1.5494811 0.40365,-2.7864619 0.40365,-1.2500013 1.17188,-2.1093773 0.76823,-0.872397 1.86198,-1.328127 1.10677,-0.455729 2.48698,-0.455729 1.45834,0 2.48698,0.429688 1.04167,0.429688 1.70573,1.197918 0.66407,0.755209 0.97657,1.7968768 0.3125,1.0416679 0.3125,2.2656278 z m -3.17709,-0.9375012 q 0.0391,-1.3802101 -0.55989,-2.161461 -0.58594,-0.7942718 -1.82292,-0.7942718 -0.625,0 -1.09376,0.234375 -0.45573,0.234376 -0.76823,0.6380219 -0.29948,0.3906255 -0.46875,0.9375011 -0.15625,0.5338549 -0.18229,1.1458348 z m 13.33336,-3.4505248 q 0,0.46875 -0.026,0.76823 -0.026,0.2994793 -0.0781,0.4687504 -0.0521,0.169271 -0.14323,0.2343753 -0.0781,0.065104 -0.20833,0.065104 -0.10417,0 -0.23438,-0.039063 -0.13021,-0.052083 -0.29948,-0.1041668 -0.15625,-0.052083 -0.35156,-0.091146 -0.19532,-0.052083 -0.42969,-0.052083 -0.27344,0 -0.54688,0.1171877 -0.27343,0.1041668 -0.57291,0.3385421 -0.28646,0.2343752 -0.61198,0.6250007 -0.3125,0.3906255 -0.67709,0.9635429 v 7.23959251 q 0,0.1302085 -0.0781,0.23437529 -0.0781,0.091146 -0.27344,0.1562502 -0.18229,0.06510425 -0.49479,0.09114595 -0.3125,0.03906255 -0.79427,0.03906255 -0.48178,0 -0.79428,-0.03906255 -0.3125,-0.0260417 -0.50781,-0.09114595 -0.18229,-0.06510425 -0.26042,-0.1562502 -0.0781,-0.10416679 -0.0781,-0.23437529 V -12.057307 q 0,-0.130208 0.0651,-0.221354 0.0651,-0.104167 0.23438,-0.169271 0.16927,-0.06511 0.42969,-0.09115 0.27343,-0.03906 0.67708,-0.03906 0.41667,0 0.69011,0.03906 0.27343,0.02604 0.41666,0.09115 0.15625,0.0651 0.22136,0.169271 0.0651,0.09115 0.0651,0.221354 v 1.445314 q 0.45573,-0.651042 0.85938,-1.067709 0.40364,-0.429688 0.76823,-0.677084 0.36458,-0.247397 0.72916,-0.338543 0.36459,-0.104166 0.72917,-0.104166 0.16927,0 0.36459,0.02604 0.19531,0.01302 0.40364,0.0651 0.20834,0.03906 0.36459,0.104166 0.15625,0.05208 0.22135,0.117188 0.0781,0.0651 0.10417,0.143229 0.0391,0.07813 0.0651,0.221355 0.026,0.130208 0.0391,0.403646 0.013,0.273438 0.013,0.742189 z"
       id="text2"
       style="font-weight:700;font-size:26.6667px;font-family:Calibri, Calibri_MSFontService, sans-serif"
       transform="translate(669.292,215)"
       aria-label="Recurrent Layer" />
    <path
       d="m 8.5429688,-6.6210937 q 0.4101562,2.4726562 0.6679687,3.5507812 0.2695313,1.0664062 0.5507813,1.3828125 0.1640625,0.1757813 0.3984372,0.1757813 0.292969,0 0.539063,-0.2226563 0.257812,-0.234375 0.65625,-1.03125 l 1.066406,0.4921875 Q 11.742188,-1.03125 10.875,-0.421875 10.019531,0.1875 8.859375,0.1875 8.1445313,0.1875 7.7109375,0 7.2890625,-0.17578125 6.984375,-0.59765625 6.6914062,-1.0195312 6.4570312,-1.78125 6.234375,-2.5546875 6.0351562,-3.796875 H 5.9179687 q -0.9960937,1.4296875 -1.59375,2.1796875 -0.5976562,0.75 -1.0312499,1.125 -0.421875,0.375 -0.8203125,0.52734375 Q 2.0859375,0.1875 1.5351562,0.1875 1.2773437,0.1875 0.90234375,0.1171875 0.5390625,0.05859375 0.3515625,-0.01171875 L 0.90234375,-2.5546875 H 1.9570312 q 0.011719,0.2460937 0.1171876,0.375 0.1171875,0.1171875 0.2929687,0.1171875 0.2109375,0 0.3867188,-0.082031 0.1875,-0.09375 0.5039062,-0.3984375 Q 3.5859375,-2.847656 4.078125,-3.4335935 4.5703125,-4.03125 5.7421875,-5.5195312 5.4960937,-6.9023437 5.2734375,-7.8984375 5.0625,-8.90625 4.8867187,-9.3515625 4.7109375,-9.8085938 4.546875,-9.9609375 4.3945312,-10.113281 4.1953125,-10.113281 q -0.234375,0 -0.4101562,0.128906 -0.1757813,0.1171875 -0.375,0.3984375 Q 3.2226563,-9.3164063 3,-8.859375 L 1.9335937,-9.3515625 Q 2.6132813,-10.59375 3.4570313,-11.203125 4.3125,-11.8125 5.4023437,-11.8125 q 0.9375,0 1.4296875,0.28125 0.4921875,0.28125 0.8085938,0.984375 0.3164062,0.6914062 0.5976563,2.2265625 h 0.1171875 q 0.8671875,-1.21875 1.3476562,-1.8281255 0.480469,-0.621093 0.890625,-0.984375 0.410156,-0.375 0.796875,-0.527343 0.386719,-0.152344 0.914063,-0.152344 0.585937,0 1.183593,0.210937 L 12.9375,-9.0703125 H 11.882813 Q 11.824219,-9.5625 11.449219,-9.5625 q -0.164063,0 -0.351563,0.082031 -0.175781,0.082031 -0.480468,0.375 -0.292969,0.28125 -0.7382817,0.8320313 -0.4453125,0.5390625 -1.3359375,1.652344 z"
       id="text3"
       style="font-size:24px;font-family:'Cambria Math', 'Cambria Math_MSFontService', sans-serif"
       transform="translate(359.112,373)"
       aria-label="𝒙" />
    <path
       d="M 5.945508,-1.616836 Q 5.2012501,-0.71859377 4.5083204,-0.29085938 3.8239454,0.136875 3.0711329,0.136875 q -1.7879297,0 -1.7879297,-1.8050391 0,-0.5731641 0.1454296,-1.206211 L 2.438086,-7.314258 H 1.0008985 l 0.1283203,-0.5902735 q 0.5047266,-0.00855 0.7613672,-0.076992 0.2651953,-0.068438 0.4362891,-0.1882032 0.1796484,-0.1197656 0.3250781,-0.3421875 0.1454297,-0.2224219 0.2823047,-0.5646094 0.136875,-0.3507422 0.410625,-1.2147654 H 4.5254298 L 4.054922,-8.1782815 H 6.655547 L 6.4673439,-7.314258 h -2.600625 l -0.7613673,3.3192188 q -0.2224218,0.9666797 -0.2823047,1.3944141 -0.059883,0.4191797 -0.059883,0.6758204 0,1.06078124 0.8811329,1.06078124 0.3764062,0 0.7955859,-0.28230474 0.4277344,-0.2908593 1.0094532,-0.983789 z"
       id="text4"
       style="font-size:17.52px;font-family:'Cambria Math', 'Cambria Math_MSFontService', sans-serif"
       transform="translate(372.945,377)"
       aria-label="𝑡" />
    <path
       d="m 6.328125,-9.6210938 0.1523437,0.046875 q 0.9492188,-1.1484372 1.9101563,-1.6875002 0.9609375,-0.550781 2.132813,-0.550781 1.195312,0 1.875,0.679687 0.679687,0.679688 0.679687,1.851563 0,0.375 -0.08203,0.9375 -0.07031,0.5625 -0.175781,0.9960938 l -0.925782,3.6562499 q -0.199218,0.7851563 -0.199218,1.3710938 0,0.4570313 0.152343,0.6328125 0.152344,0.1757813 0.433594,0.1757813 0.339844,0 0.75,-0.3164063 0.421875,-0.3164063 1.007813,-0.984375 l 0.84375,0.84375 q -1.148438,1.171875 -2.0625,1.6640625 Q 11.917969,0.1875 10.828125,0.1875 9.6328125,0.1875 9.0351563,-0.3984375 8.4375,-0.984375 8.4375,-2.1914063 q 0,-0.9257812 0.3164063,-2.1445312 L 9.2929688,-6.375 q 0.1992187,-0.7617187 0.3398437,-1.4882812 0.140625,-0.7382813 0.140625,-1.1953126 0,-0.5039062 -0.2109375,-0.7734375 -0.2109375,-0.2695317 -0.6328125,-0.2695317 -0.5976562,0 -1.3945313,0.7617192 -0.796875,0.75 -1.1953125,1.4882813 -0.3867187,0.7382813 -0.609375,1.8398438 L 4.4414062,0 H 1.078125 l 2.9648437,-13.242188 q 0.2578125,-1.148437 0.2578125,-1.675781 0,-0.257812 -0.058594,-0.398437 -0.046875,-0.152344 -0.1523438,-0.246094 -0.1054687,-0.09375 -0.2812499,-0.140625 -0.1757813,-0.05859 -0.6914063,-0.128906 l 0.1875,-0.761719 3.5039062,-0.1875 h 1.3242188 z"
       id="text5"
       style="font-size:24px;font-family:'Cambria Math', 'Cambria Math_MSFontService', sans-serif"
       transform="translate(335.006,264)"
       aria-label="𝒉" />
    <path
       d="M 5.945508,-1.616836 Q 5.2012501,-0.71859377 4.5083204,-0.29085938 3.8239454,0.136875 3.0711329,0.136875 q -1.7879297,0 -1.7879297,-1.8050391 0,-0.5731641 0.1454296,-1.206211 L 2.438086,-7.314258 H 1.0008985 l 0.1283203,-0.5902735 q 0.5047266,-0.00855 0.7613672,-0.076992 0.2651953,-0.068438 0.4362891,-0.1882032 0.1796484,-0.1197656 0.3250781,-0.3421875 0.1454297,-0.2224219 0.2823047,-0.5646094 0.136875,-0.3507422 0.410625,-1.2147654 H 4.5254298 L 4.054922,-8.1782815 H 6.655547 L 6.4673439,-7.314258 h -2.600625 l -0.7613673,3.3192188 q -0.2224218,0.9666797 -0.2823047,1.3944141 -0.059883,0.4191797 -0.059883,0.6758204 0,1.06078124 0.8811329,1.06078124 0.3764062,0 0.7955859,-0.28230474 0.4277344,-0.2908593 1.0094532,-0.983789 z"
       id="text6"
       style="font-size:17.52px;font-family:'Cambria Math', 'Cambria Math_MSFontService', sans-serif"
       transform="translate(350.173,269)"
       aria-label="𝑡" />
    <path
       d="M 1.2746485,-4.4398829 V -5.5776564 H 11.814024 v 1.1377735 z"
       id="text7"
       style="font-size:17.52px;font-family:'Cambria Math', 'Cambria Math_MSFontService', sans-serif"
       transform="translate(358.306,269)"
       aria-label="−" />
    <path
       d="m 5.945508,-2.2327735 q 0,0.4961719 0.051328,0.7528125 0.059883,0.248086 0.1967578,0.410625 0.1454297,0.15398441 0.410625,0.24808598 0.2651953,0.0855469 0.6672657,0.136875 0.4020703,0.0427734 1.0607812,0.0598828 V 0 H 2.0103516 V -0.6244922 Q 2.959922,-0.66726564 3.3619923,-0.73570314 3.7726173,-0.81269533 3.9864845,-0.95812503 4.2003517,-1.1035547 4.2944532,-1.36875 4.3971095,-1.6339454 4.3971095,-2.2327735 v -6.9378517 q 0,-0.3421875 -0.1197656,-0.4961719 -0.1197657,-0.1625391 -0.3507422,-0.1625391 -0.27375,0 -0.7784766,0.2823047 -0.5047266,0.2823047 -1.2489844,0.7784766 l -0.3764063,-0.658711 4.0035939,-2.3867581 h 0.4705078 q -0.051328,0.82125 -0.051328,2.2755472 z"
       id="text8"
       style="font-size:17.52px;font-family:'Cambria Math', 'Cambria Math_MSFontService', sans-serif"
       transform="translate(370.973,269)"
       aria-label="1" />
    <path
       d="m 6.328125,-9.6210938 0.1523437,0.046875 q 0.9492188,-1.1484372 1.9101563,-1.6875002 0.9609375,-0.550781 2.132813,-0.550781 1.195312,0 1.875,0.679687 0.679687,0.679688 0.679687,1.851563 0,0.375 -0.08203,0.9375 -0.07031,0.5625 -0.175781,0.9960938 l -0.925782,3.6562499 q -0.199218,0.7851563 -0.199218,1.3710938 0,0.4570313 0.152343,0.6328125 0.152344,0.1757813 0.433594,0.1757813 0.339844,0 0.75,-0.3164063 0.421875,-0.3164063 1.007813,-0.984375 l 0.84375,0.84375 q -1.148438,1.171875 -2.0625,1.6640625 Q 11.917969,0.1875 10.828125,0.1875 9.6328125,0.1875 9.0351563,-0.3984375 8.4375,-0.984375 8.4375,-2.1914063 q 0,-0.9257812 0.3164063,-2.1445312 L 9.2929688,-6.375 q 0.1992187,-0.7617187 0.3398437,-1.4882812 0.140625,-0.7382813 0.140625,-1.1953126 0,-0.5039062 -0.2109375,-0.7734375 -0.2109375,-0.2695317 -0.6328125,-0.2695317 -0.5976562,0 -1.3945313,0.7617192 -0.796875,0.75 -1.1953125,1.4882813 -0.3867187,0.7382813 -0.609375,1.8398438 L 4.4414062,0 H 1.078125 l 2.9648437,-13.242188 q 0.2578125,-1.148437 0.2578125,-1.675781 0,-0.257812 -0.058594,-0.398437 -0.046875,-0.152344 -0.1523438,-0.246094 -0.1054687,-0.09375 -0.2812499,-0.140625 -0.1757813,-0.05859 -0.6914063,-0.128906 l 0.1875,-0.761719 3.5039062,-0.1875 h 1.3242188 z"
       id="text9"
       style="font-size:24px;font-family:'Cambria Math', 'Cambria Math_MSFontService', sans-serif"
       transform="translate(910.528,264)"
       aria-label="𝒉" />
    <path
       d="M 5.945508,-1.616836 Q 5.2012501,-0.71859377 4.5083204,-0.29085938 3.8239454,0.136875 3.0711329,0.136875 q -1.7879297,0 -1.7879297,-1.8050391 0,-0.5731641 0.1454296,-1.206211 L 2.438086,-7.314258 H 1.0008985 l 0.1283203,-0.5902735 q 0.5047266,-0.00855 0.7613672,-0.076992 0.2651953,-0.068438 0.4362891,-0.1882032 0.1796484,-0.1197656 0.3250781,-0.3421875 0.1454297,-0.2224219 0.2823047,-0.5646094 0.136875,-0.3507422 0.410625,-1.2147654 H 4.5254298 L 4.054922,-8.1782815 H 6.655547 L 6.4673439,-7.314258 h -2.600625 l -0.7613673,3.3192188 q -0.2224218,0.9666797 -0.2823047,1.3944141 -0.059883,0.4191797 -0.059883,0.6758204 0,1.06078124 0.8811329,1.06078124 0.3764062,0 0.7955859,-0.28230474 0.4277344,-0.2908593 1.0094532,-0.983789 z"
       id="text10"
       style="font-size:17.52px;font-family:'Cambria Math', 'Cambria Math_MSFontService', sans-serif"
       transform="translate(925.694,269)"
       aria-label="𝑡" />
    <path
       d="M 5.90625,0.12890625 Q 5.671875,-1.3007812 5.296875,-3.234375 4.9335937,-5.1796875 4.5820312,-6.7617187 4.2304687,-8.3554688 4.0664062,-8.9179688 3.9023438,-9.4804688 3.75,-9.7148438 3.5976563,-9.9609375 3.46875,-10.03125 q -0.1289062,-0.08203 -0.2695312,-0.08203 -0.2929688,0 -0.5390625,0.2460935 -0.2460938,0.234375 -0.6445313,1.0078125 L 0.94921875,-9.3515625 Q 1.6289062,-10.582031 2.4960938,-11.191406 3.3632813,-11.8125 4.4882812,-11.8125 q 0.9023438,0 1.453125,0.269531 0.5625,0.257813 0.890625,0.726563 0.328125,0.457031 0.5273438,1.1718747 0.1640625,0.5625 0.3867187,1.9804688 0.3632813,2.3085938 0.6210938,4.5351562 1.3007813,-1.8632812 1.9921875,-3.6328124 0.703125,-1.7695313 0.703125,-3.1640626 0,-0.4453127 -0.210937,-0.6679687 -0.210938,-0.234375 -0.738282,-0.257813 L 10.277344,-11.625 h 3.304687 l 0.410157,0.773437 q -0.234375,0.808594 -0.726563,1.9570317 -0.726562,1.6875001 -1.957031,3.7851563 -1.113281,1.8867187 -2.4257815,3.7734375 -1.5351563,2.203125 -2.671875,3.5507813 -1.1367188,1.359375 -1.96875,2.0039062 -0.65625,0.4921875 -1.2539062,0.6914062 -0.5976563,0.2109375 -1.2656251,0.2109375 -0.86718745,0 -1.64062495,-0.2578125 L 0.66796875,2.2148438 H 1.8984375 q 0.011719,0.4921875 0.140625,0.7265625 0.140625,0.234375 0.4921875,0.234375 0.28125,0 0.5273438,-0.1054688 0.2460937,-0.09375 0.6210937,-0.3867187 0.375,-0.2929688 0.9375,-0.9609376 0.5742187,-0.65625 1.2890625,-1.59374995 z"
       id="text11"
       style="font-size:24px;font-family:'Cambria Math', 'Cambria Math_MSFontService', sans-serif"
       transform="translate(910.948,373)"
       aria-label="𝒚" />
    <path
       d="M 5.945508,-1.616836 Q 5.2012501,-0.71859377 4.5083204,-0.29085938 3.8239454,0.136875 3.0711329,0.136875 q -1.7879297,0 -1.7879297,-1.8050391 0,-0.5731641 0.1454296,-1.206211 L 2.438086,-7.314258 H 1.0008985 l 0.1283203,-0.5902735 q 0.5047266,-0.00855 0.7613672,-0.076992 0.2651953,-0.068438 0.4362891,-0.1882032 0.1796484,-0.1197656 0.3250781,-0.3421875 0.1454297,-0.2224219 0.2823047,-0.5646094 0.136875,-0.3507422 0.410625,-1.2147654 H 4.5254298 L 4.054922,-8.1782815 H 6.655547 L 6.4673439,-7.314258 h -2.600625 l -0.7613673,3.3192188 q -0.2224218,0.9666797 -0.2823047,1.3944141 -0.059883,0.4191797 -0.059883,0.6758204 0,1.06078124 0.8811329,1.06078124 0.3764062,0 0.7955859,-0.28230474 0.4277344,-0.2908593 1.0094532,-0.983789 z"
       id="text12"
       style="font-size:17.52px;font-family:'Cambria Math', 'Cambria Math_MSFontService', sans-serif"
       transform="translate(925.282,377)"
       aria-label="𝑡" />
    <path
       d="m 542,364 c 0,-6.627 5.149,-12 11.5,-12 6.351,0 11.5,5.373 11.5,12 0,6.627 -5.149,12 -11.5,12 -6.351,0 -11.5,-5.373 -11.5,-12 z"
       stroke="#000000"
       stroke-width="2"
       stroke-miterlimit="8"
       fill="none"
       fill-rule="evenodd"
       id="path12" />
    <path
       d="m 10.083317,-5.9895739 q 0,0.2916662 -0.03125,0.4895826 -0.03125,0.1979163 -0.093749,0.3229161 -0.0625,0.1145832 -0.1458331,0.1666664 -0.083333,0.052083 -0.1770831,0.052083 H 6.3958232 v 3.5312444 q 0,0.1041665 -0.052083,0.1874997 -0.052083,0.072917 -0.1770831,0.1354165 -0.1249998,0.052083 -0.3333328,0.083333 -0.208333,0.0312499 -0.5208325,0.0312499 -0.3124995,0 -0.5208325,-0.0312499 -0.208333,-0.03125 -0.3333328,-0.083333 -0.1249998,-0.0625 -0.1874997,-0.1354165 -0.052083,-0.083333 -0.052083,-0.1874997 V -4.9583255 H 0.98958177 q -0.0937499,0 -0.17708305,-0.052083 -0.0729165,-0.052083 -0.13541646,-0.1666664 -0.0624999,-0.1249998 -0.1041665,-0.3229161 -0.0312499,-0.1979164 -0.0312499,-0.4895826 0,-0.2812495 0.0312499,-0.4791659 0.0312499,-0.208333 0.0833332,-0.3229161 0.0624999,-0.1249998 0.13541646,-0.1770831 0.0729166,-0.052083 0.1666664,-0.052083 H 4.2187433 V -10.54165 q 0,-0.104167 0.052083,-0.1875 0.0625,-0.09375 0.1874997,-0.145833 0.1249998,-0.0625 0.3333328,-0.09375 0.208333,-0.03125 0.5208325,-0.03125 0.3124995,0 0.5208325,0.03125 0.208333,0.03125 0.3333328,0.09375 0.1249998,0.05208 0.1770831,0.145833 0.052083,0.08333 0.052083,0.1875 v 3.5208278 h 3.2708282 q 0.083333,0 0.1562498,0.052083 0.083333,0.052083 0.1354164,0.1770831 0.0625,0.1145831 0.093749,0.3229161 0.03125,0.1979164 0.03125,0.4791661 z"
       id="text13"
       style="font-weight:700;font-size:21.3333px;font-family:Calibri, Calibri_MSFontService, sans-serif"
       transform="translate(548.176,371)"
       aria-label="+" />
    <path
       d="m 18.257812,-11.425781 q 0.515625,-0.996094 0.761719,-1.628907 0.246094,-0.632812 0.246094,-1.054687 0,-0.351563 -0.08203,-0.5625 -0.08203,-0.210938 -0.304688,-0.351563 -0.222656,-0.140625 -0.609375,-0.199218 l 0.175781,-0.773438 h 4.980469 L 23.25,-15.222656 q -0.386719,0.07031 -0.691406,0.28125 -0.292969,0.210937 -0.5625,0.5625 -0.269532,0.351562 -0.527344,0.808593 -0.257813,0.445313 -0.691406,1.253907 L 14.0625,0.08203125 H 11.25 L 11.22656,-7.4648437 v -1.9921876 q 0,-0.7617187 0.01172,-1.5937497 h -0.152343 q -0.386719,0.867187 -0.773438,1.6171872 L 5.53125,0.08203125 H 2.71875 L 2.484375,-12.386719 Q 2.4609375,-13.5 2.3085938,-14.074219 2.1679688,-14.648438 1.921875,-14.894531 1.6757812,-15.152344 1.2304687,-15.222656 L 1.40625,-15.996094 h 6 l -0.1757813,0.773438 q -0.3632812,0.04687 -0.5976562,0.164062 -0.234375,0.117188 -0.3867188,0.328125 -0.140625,0.199219 -0.2109375,0.503906 -0.070312,0.304688 -0.082031,0.5625 0,0.257813 -0.011719,1.476563 l -0.046875,4.40625 q -0.011719,1.1601563 -0.1171875,3.7382813 H 5.9296875 Q 6.328125,-4.9453125 7.640625,-7.5703125 l 4.230469,-8.4257815 H 14.4375 l 0.01172,7.6757815 0.01172,1.0429688 q 0,1.640625 -0.08203,3.234375 h 0.152344 q 0.550781,-1.1484375 1.980469,-3.9726563 z"
       id="text14"
       style="font-size:24px;font-family:'Cambria Math', 'Cambria Math_MSFontService', sans-serif"
       transform="translate(459.072,351)"
       aria-label="𝑾" />
    <path
       d="M 4.080586,-3.8667189 Q 3.9522657,-4.5425392 3.8153907,-5.1670314 3.6785157,-5.7915236 3.533086,-6.3304689 3.3876563,-6.8694142 3.2935548,-7.0319533 3.1994532,-7.2030471 3.0882423,-7.2629299 2.985586,-7.3313674 2.8230469,-7.3313674 q -0.1796484,0 -0.3250781,0.085547 -0.1454297,0.076992 -0.3165234,0.2823047 -0.1710938,0.1967578 -0.4533985,0.6244922 L 1.1719922,-6.7068752 q 0.5389453,-0.8126953 1.0351172,-1.2147656 0.4961719,-0.4020704 1.1719923,-0.4020704 0.2651953,0 0.4619531,0.059883 0.2053125,0.059883 0.3592969,0.1882031 0.1539844,0.1197656 0.27375,0.3165234 0.1197656,0.1967579 0.2309765,0.5389454 0.111211,0.3336328 0.2053126,0.8383594 0.1026562,0.4961718 0.1796484,1.0351172 h 0.085547 q 0.82125,-1.1548829 1.2404297,-1.6852735 0.4277344,-0.5389453 0.7185938,-0.795586 0.2908593,-0.2651953 0.5560547,-0.3678515 0.27375,-0.111211 0.7185937,-0.111211 0.4020704,0 0.658711,0.1026563 L 8.7257815,-6.655547 H 8.1269533 q -0.051328,-0.3592969 -0.299414,-0.3592969 -0.076992,0 -0.1625391,0.025664 -0.085547,0.025664 -0.2138672,0.111211 -0.1197656,0.085547 -0.3592969,0.3336328 -0.2395312,0.2480859 -0.5389453,0.6073828 -0.2994141,0.3592969 -0.6159375,0.7528125 l -0.5817188,0.7271485 q 0.1539844,0.82125 0.2908594,1.4200782 0.136875,0.5988281 0.2395313,1.0008984 0.1112109,0.3935157 0.1882031,0.6244922 0.085547,0.2309766 0.1796484,0.3507422 0.094102,0.11121096 0.1882032,0.16253909 0.1026562,0.0427734 0.2309765,0.0427734 0.2309766,0 0.4448438,-0.17964839 0.2224219,-0.1796485 0.6330469,-0.8126953 L 8.3066018,-1.479961 Q 7.7077736,-0.59027345 7.2201564,-0.22242188 6.7410939,0.136875 6.0738283,0.136875 5.7059767,0.136875 5.4493361,0 5.1926954,-0.12832032 5.0044923,-0.4191797 4.8162892,-0.71003908 4.6708595,-1.3259766 q -0.2651953,-1.095 -0.3250781,-1.6767188 h -0.085547 q -0.9067969,1.2746485 -1.3516407,1.8307032 -0.436289,0.55605468 -0.7271484,0.82125 -0.2823047,0.26519532 -0.5560547,0.36785158 -0.2651954,0.11121094 -0.71003911,0.11121094 -0.40207033,0 -0.65871096,-0.10265626 L 0.59882814,-1.5227344 H 1.1976563 q 0.051328,0.3592969 0.2994141,0.3592969 0.1197656,0 0.2480859,-0.059883 0.136875,-0.068438 0.3849609,-0.3079688 0.248086,-0.2480859 0.6843751,-0.7699219 0.436289,-0.5218359 1.2660937,-1.5655077 z"
       id="text15"
       style="font-size:17.52px;font-family:'Cambria Math', 'Cambria Math_MSFontService', sans-serif"
       transform="translate(482.739,356)"
       aria-label="𝑥" />
    <path
       d="m 8.5429688,-6.6210937 q 0.4101562,2.4726562 0.6679687,3.5507812 0.2695313,1.0664062 0.5507813,1.3828125 0.1640625,0.1757813 0.3984372,0.1757813 0.292969,0 0.539063,-0.2226563 0.257812,-0.234375 0.65625,-1.03125 l 1.066406,0.4921875 Q 11.742188,-1.03125 10.875,-0.421875 10.019531,0.1875 8.859375,0.1875 8.1445313,0.1875 7.7109375,0 7.2890625,-0.17578125 6.984375,-0.59765625 6.6914062,-1.0195312 6.4570312,-1.78125 6.234375,-2.5546875 6.0351562,-3.796875 H 5.9179687 q -0.9960937,1.4296875 -1.59375,2.1796875 -0.5976562,0.75 -1.0312499,1.125 -0.421875,0.375 -0.8203125,0.52734375 Q 2.0859375,0.1875 1.5351562,0.1875 1.2773437,0.1875 0.90234375,0.1171875 0.5390625,0.05859375 0.3515625,-0.01171875 L 0.90234375,-2.5546875 H 1.9570312 q 0.011719,0.2460937 0.1171876,0.375 0.1171875,0.1171875 0.2929687,0.1171875 0.2109375,0 0.3867188,-0.082031 0.1875,-0.09375 0.5039062,-0.3984375 Q 3.5859375,-2.847656 4.078125,-3.4335935 4.5703125,-4.03125 5.7421875,-5.5195312 5.4960937,-6.9023437 5.2734375,-7.8984375 5.0625,-8.90625 4.8867187,-9.3515625 4.7109375,-9.8085938 4.546875,-9.9609375 4.3945312,-10.113281 4.1953125,-10.113281 q -0.234375,0 -0.4101562,0.128906 -0.1757813,0.1171875 -0.375,0.3984375 Q 3.2226563,-9.3164063 3,-8.859375 L 1.9335937,-9.3515625 Q 2.6132813,-10.59375 3.4570313,-11.203125 4.3125,-11.8125 5.4023437,-11.8125 q 0.9375,0 1.4296875,0.28125 0.4921875,0.28125 0.8085938,0.984375 0.3164062,0.6914062 0.5976563,2.2265625 h 0.1171875 q 0.8671875,-1.21875 1.3476562,-1.8281255 0.480469,-0.621093 0.890625,-0.984375 0.410156,-0.375 0.796875,-0.527343 0.386719,-0.152344 0.914063,-0.152344 0.585937,0 1.183593,0.210937 L 12.9375,-9.0703125 H 11.882813 Q 11.824219,-9.5625 11.449219,-9.5625 q -0.164063,0 -0.351563,0.082031 -0.175781,0.082031 -0.480468,0.375 -0.292969,0.28125 -0.7382817,0.8320313 -0.4453125,0.5390625 -1.3359375,1.652344 z"
       id="text16"
       style="font-size:24px;font-family:'Cambria Math', 'Cambria Math_MSFontService', sans-serif"
       transform="translate(494.532,351)"
       aria-label="𝒙" />
    <path
       d="M 5.945508,-1.616836 Q 5.2012501,-0.71859377 4.5083204,-0.29085938 3.8239454,0.136875 3.0711329,0.136875 q -1.7879297,0 -1.7879297,-1.8050391 0,-0.5731641 0.1454296,-1.206211 L 2.438086,-7.314258 H 1.0008985 l 0.1283203,-0.5902735 q 0.5047266,-0.00855 0.7613672,-0.076992 0.2651953,-0.068438 0.4362891,-0.1882032 0.1796484,-0.1197656 0.3250781,-0.3421875 0.1454297,-0.2224219 0.2823047,-0.5646094 0.136875,-0.3507422 0.410625,-1.2147654 H 4.5254298 L 4.054922,-8.1782815 H 6.655547 L 6.4673439,-7.314258 h -2.600625 l -0.7613673,3.3192188 q -0.2224218,0.9666797 -0.2823047,1.3944141 -0.059883,0.4191797 -0.059883,0.6758204 0,1.06078124 0.8811329,1.06078124 0.3764062,0 0.7955859,-0.28230474 0.4277344,-0.2908593 1.0094532,-0.983789 z"
       id="text17"
       style="font-size:17.52px;font-family:'Cambria Math', 'Cambria Math_MSFontService', sans-serif"
       transform="translate(508.365,356)"
       aria-label="𝑡" />
    <path
       d="M 6.328125,-9.609375 6.4804687,-9.5625 Q 7.5,-10.757813 8.390625,-11.285156 9.2929688,-11.8125 10.535156,-11.8125 q 1.335938,0 2.0625,0.960937 0.738282,0.960938 0.738282,2.7773442 0,1.0312501 -0.246094,2.2734376 -0.246094,1.2304687 -0.691406,2.1914062 -0.445313,0.9492187 -1.066407,1.6640625 Q 10.710938,-1.2304687 9.9375,-0.76171875 9.1757813,-0.29296875 8.2851563,-0.046875 7.3945312,0.1875 6.375,0.1875 5.6015625,0.1875 4.8984375,0 4.1953125,-0.1875 3.4453125,-0.65625 L 2.3554688,0.1875 1.078125,0 4.0429687,-13.242188 q 0.2460938,-1.101562 0.2460938,-1.675781 0,-0.363281 -0.1171875,-0.527344 -0.1054688,-0.164062 -0.2929687,-0.234375 -0.1875,-0.07031 -0.7617188,-0.152343 l 0.1875,-0.761719 L 6.75,-16.78125 h 1.3710938 z m -1.0429688,5.2734375 q -0.1875,0.8671875 -0.1875,1.6992187 0,0.8554688 0.28125,1.2304688 0.2929688,0.375 0.9726563,0.375 0.5859375,0 1.0664062,-0.2578125 Q 7.8984375,-1.5585937 8.3203125,-2.15625 8.7539063,-2.7539063 9.1523438,-3.6914063 9.5625,-4.640625 9.8554688,-5.953125 q 0.2929692,-1.3125 0.2929692,-2.4375 0,-0.8671875 -0.257813,-1.2773438 -0.2460937,-0.4218752 -0.7734375,-0.4218752 -0.7734375,0 -1.5820313,0.761719 -0.796875,0.75 -1.2773437,1.7460938 -0.4804688,0.9960937 -0.8789063,2.8125 z"
       id="text18"
       style="font-size:24px;font-family:'Cambria Math', 'Cambria Math_MSFontService', sans-serif"
       transform="translate(540.069,458)"
       aria-label="𝒃" />
    <path
       d="m 2.985586,-9.7780081 q 0.2053125,-0.9153519 0.2053125,-1.2660939 0,-0.359297 -0.2224219,-0.504726 -0.2138672,-0.14543 -0.7784765,-0.162539 l 0.1026562,-0.444844 2.164336,-0.07699 h 0.4961719 l -1.4714063,5.9283981 0.1026563,0.034219 q 0.8126953,-1.0778907 1.5312891,-1.5569532 0.7271484,-0.4876172 1.4628516,-0.4876172 0.7955859,0 1.2233203,0.4619532 0.4277344,0.4533984 0.4277344,1.2660938 0,0.5389453 -0.248086,1.5312891 l -0.5560547,2.2413281 q -0.2309765,0.932461 -0.2309765,1.3174219 0,0.3421876 0.1112109,0.4961719 0.111211,0.15398442 0.3507422,0.15398442 0.2566406,0 0.5475,-0.20531252 0.2908594,-0.2138672 0.82125,-0.8041406 l 0.4876172,0.4790625 Q 8.6915627,-0.51328126 8.1611721,-0.18820313 7.6393361,0.136875 6.9806252,0.136875 q -0.5560547,0 -0.8896875,-0.39351563 -0.3250782,-0.39351564 -0.3250782,-1.01800787 0,-0.5560547 0.2823047,-1.6339453 l 0.3678516,-1.479961 q 0.1967578,-0.795586 0.2651953,-1.1891016 0.068438,-0.4020703 0.068438,-0.6244922 0,-0.6073828 -0.1967578,-0.8554688 Q 6.356133,-7.314258 5.9112892,-7.314258 q -0.3507422,0 -0.7784766,0.2908594 -0.4277344,0.2908594 -0.8982422,0.8896875 -0.4705078,0.5902735 -0.7528125,1.1377735 -0.27375,0.5389453 -0.4362891,1.2917578 L 2.2669922,0 H 0.78703127 Z"
       id="text19"
       style="font-size:17.52px;font-family:'Cambria Math', 'Cambria Math_MSFontService', sans-serif"
       transform="translate(554.569,463)"
       aria-label="ℎ" />
    <path
       d="M 6.328125,-9.609375 6.4804687,-9.5625 Q 7.5,-10.757813 8.390625,-11.285156 9.2929688,-11.8125 10.535156,-11.8125 q 1.335938,0 2.0625,0.960937 0.738282,0.960938 0.738282,2.7773442 0,1.0312501 -0.246094,2.2734376 -0.246094,1.2304687 -0.691406,2.1914062 -0.445313,0.9492187 -1.066407,1.6640625 Q 10.710938,-1.2304687 9.9375,-0.76171875 9.1757813,-0.29296875 8.2851563,-0.046875 7.3945312,0.1875 6.375,0.1875 5.6015625,0.1875 4.8984375,0 4.1953125,-0.1875 3.4453125,-0.65625 L 2.3554688,0.1875 1.078125,0 4.0429687,-13.242188 q 0.2460938,-1.101562 0.2460938,-1.675781 0,-0.363281 -0.1171875,-0.527344 -0.1054688,-0.164062 -0.2929687,-0.234375 -0.1875,-0.07031 -0.7617188,-0.152343 l 0.1875,-0.761719 L 6.75,-16.78125 h 1.3710938 z m -1.0429688,5.2734375 q -0.1875,0.8671875 -0.1875,1.6992187 0,0.8554688 0.28125,1.2304688 0.2929688,0.375 0.9726563,0.375 0.5859375,0 1.0664062,-0.2578125 Q 7.8984375,-1.5585937 8.3203125,-2.15625 8.7539063,-2.7539063 9.1523438,-3.6914063 9.5625,-4.640625 9.8554688,-5.953125 q 0.2929692,-1.3125 0.2929692,-2.4375 0,-0.8671875 -0.257813,-1.2773438 -0.2460937,-0.4218752 -0.7734375,-0.4218752 -0.7734375,0 -1.5820313,0.761719 -0.796875,0.75 -1.2773437,1.7460938 -0.4804688,0.9960937 -0.8789063,2.8125 z"
       id="text20"
       style="font-size:24px;font-family:'Cambria Math', 'Cambria Math_MSFontService', sans-serif"
       transform="translate(786.292,456)"
       aria-label="𝒃" />
    <path
       d="M 4.1832423,0.01710938 Q 3.9351564,-1.479961 3.507422,-3.5929688 3.0540235,-5.8514064 2.9085938,-6.3903517 2.7289454,-7.040508 2.5321876,-7.2201564 q -0.1197657,-0.111211 -0.2994141,-0.111211 -0.27375,0 -0.5132813,0.2224219 -0.2395312,0.2224219 -0.5902734,0.7699219 L 0.57316408,-6.7068752 Q 1.1634375,-7.588008 1.6767188,-7.9473049 q 0.5132813,-0.3678516 1.1463281,-0.3678516 0.3507422,0 0.5988282,0.094102 0.1710937,0.068437 0.3421875,0.2309766 0.1710938,0.1539843 0.2994141,0.436289 0.136875,0.2823047 0.2309765,0.6330469 0.1026563,0.3507422 0.2224219,1.0094532 0.2053125,1.1035547 0.3935157,2.326875 0.1967578,1.2147657 0.3336328,2.2584376 0.8298047,-1.1976563 1.4029688,-2.3439844 0.5817187,-1.1463282 0.8298047,-1.9932423 0.2566406,-0.8469141 0.2566406,-1.3773047 0,-0.4020703 -0.1710938,-0.5475 -0.1710937,-0.1454297 -0.5817187,-0.1710938 l 0.085547,-0.4191797 H 9.316055 l 0.2309766,0.4277344 Q 8.8968752,-5.971172 7.7847658,-3.943711 6.6897658,-1.9590235 5.2782423,0.00855469 3.9266017,1.8820313 3.0283595,2.7203907 2.4038673,3.2935548 1.8221485,3.5416407 1.3601953,3.7298438 0.8383594,3.7298438 q -0.17964845,0 -0.4191797,-0.034219 Q 0.18820313,3.669961 0.05988281,3.6186329 L 0.42773439,1.9590235 H 1.1035547 q 0,0.5475 0.3764063,0.5475 0.4961719,0 1.1548828,-0.6244922 0.658711,-0.6159375 1.5483985,-1.86492192 z"
       id="text21"
       style="font-size:17.52px;font-family:'Cambria Math', 'Cambria Math_MSFontService', sans-serif"
       transform="translate(800.792,461)"
       aria-label="𝑦" />
    <path
       d="m 395.5,363 h 139.63 v 3 H 395.5 Z m 138.13,-6 9,7.5 -9,7.5 z"
       id="path21" />
    <path
       d="m 395.5,254 h 160.096 v 91.225 h -3 V 255.5 l 1.5,1.5 H 395.5 Z m 166.096,89.725 -7.5,9 -7.5,-9 z"
       id="path22" />
    <path
       d="m 18.257812,-11.425781 q 0.515625,-0.996094 0.761719,-1.628907 0.246094,-0.632812 0.246094,-1.054687 0,-0.351563 -0.08203,-0.5625 -0.08203,-0.210938 -0.304688,-0.351563 -0.222656,-0.140625 -0.609375,-0.199218 l 0.175781,-0.773438 h 4.980469 L 23.25,-15.222656 q -0.386719,0.07031 -0.691406,0.28125 -0.292969,0.210937 -0.5625,0.5625 -0.269532,0.351562 -0.527344,0.808593 -0.257813,0.445313 -0.691406,1.253907 L 14.0625,0.08203125 H 11.25 L 11.22656,-7.4648437 v -1.9921876 q 0,-0.7617187 0.01172,-1.5937497 h -0.152343 q -0.386719,0.867187 -0.773438,1.6171872 L 5.53125,0.08203125 H 2.71875 L 2.484375,-12.386719 Q 2.4609375,-13.5 2.3085938,-14.074219 2.1679688,-14.648438 1.921875,-14.894531 1.6757812,-15.152344 1.2304687,-15.222656 L 1.40625,-15.996094 h 6 l -0.1757813,0.773438 q -0.3632812,0.04687 -0.5976562,0.164062 -0.234375,0.117188 -0.3867188,0.328125 -0.140625,0.199219 -0.2109375,0.503906 -0.070312,0.304688 -0.082031,0.5625 0,0.257813 -0.011719,1.476563 l -0.046875,4.40625 q -0.011719,1.1601563 -0.1171875,3.7382813 H 5.9296875 Q 6.328125,-4.9453125 7.640625,-7.5703125 l 4.230469,-8.4257815 H 14.4375 l 0.01172,7.6757815 0.01172,1.0429688 q 0,1.640625 -0.08203,3.234375 h 0.152344 q 0.550781,-1.1484375 1.980469,-3.9726563 z"
       id="text22"
       style="font-size:24px;font-family:'Cambria Math', 'Cambria Math_MSFontService', sans-serif"
       transform="translate(459.165,244)"
       aria-label="𝑾" />
    <path
       d="m 2.985586,-9.7780081 q 0.2053125,-0.9153519 0.2053125,-1.2660939 0,-0.359297 -0.2224219,-0.504726 -0.2138672,-0.14543 -0.7784765,-0.162539 l 0.1026562,-0.444844 2.164336,-0.07699 h 0.4961719 l -1.4714063,5.9283981 0.1026563,0.034219 q 0.8126953,-1.0778907 1.5312891,-1.5569532 0.7271484,-0.4876172 1.4628516,-0.4876172 0.7955859,0 1.2233203,0.4619532 0.4277344,0.4533984 0.4277344,1.2660938 0,0.5389453 -0.248086,1.5312891 l -0.5560547,2.2413281 q -0.2309765,0.932461 -0.2309765,1.3174219 0,0.3421876 0.1112109,0.4961719 0.111211,0.15398442 0.3507422,0.15398442 0.2566406,0 0.5475,-0.20531252 0.2908594,-0.2138672 0.82125,-0.8041406 l 0.4876172,0.4790625 Q 8.6915627,-0.51328126 8.1611721,-0.18820313 7.6393361,0.136875 6.9806252,0.136875 q -0.5560547,0 -0.8896875,-0.39351563 -0.3250782,-0.39351564 -0.3250782,-1.01800787 0,-0.5560547 0.2823047,-1.6339453 l 0.3678516,-1.479961 q 0.1967578,-0.795586 0.2651953,-1.1891016 0.068438,-0.4020703 0.068438,-0.6244922 0,-0.6073828 -0.1967578,-0.8554688 Q 6.356133,-7.314258 5.9112892,-7.314258 q -0.3507422,0 -0.7784766,0.2908594 -0.4277344,0.2908594 -0.8982422,0.8896875 -0.4705078,0.5902735 -0.7528125,1.1377735 -0.27375,0.5389453 -0.4362891,1.2917578 L 2.2669922,0 H 0.78703127 Z"
       id="text23"
       style="font-size:17.52px;font-family:'Cambria Math', 'Cambria Math_MSFontService', sans-serif"
       transform="translate(482.832,249)"
       aria-label="ℎ" />
    <path
       d="m 6.328125,-9.6210938 0.1523437,0.046875 q 0.9492188,-1.1484372 1.9101563,-1.6875002 0.9609375,-0.550781 2.132813,-0.550781 1.195312,0 1.875,0.679687 0.679687,0.679688 0.679687,1.851563 0,0.375 -0.08203,0.9375 -0.07031,0.5625 -0.175781,0.9960938 l -0.925782,3.6562499 q -0.199218,0.7851563 -0.199218,1.3710938 0,0.4570313 0.152343,0.6328125 0.152344,0.1757813 0.433594,0.1757813 0.339844,0 0.75,-0.3164063 0.421875,-0.3164063 1.007813,-0.984375 l 0.84375,0.84375 q -1.148438,1.171875 -2.0625,1.6640625 Q 11.917969,0.1875 10.828125,0.1875 9.6328125,0.1875 9.0351563,-0.3984375 8.4375,-0.984375 8.4375,-2.1914063 q 0,-0.9257812 0.3164063,-2.1445312 L 9.2929688,-6.375 q 0.1992187,-0.7617187 0.3398437,-1.4882812 0.140625,-0.7382813 0.140625,-1.1953126 0,-0.5039062 -0.2109375,-0.7734375 -0.2109375,-0.2695317 -0.6328125,-0.2695317 -0.5976562,0 -1.3945313,0.7617192 -0.796875,0.75 -1.1953125,1.4882813 -0.3867187,0.7382813 -0.609375,1.8398438 L 4.4414062,0 H 1.078125 l 2.9648437,-13.242188 q 0.2578125,-1.148437 0.2578125,-1.675781 0,-0.257812 -0.058594,-0.398437 -0.046875,-0.152344 -0.1523438,-0.246094 -0.1054687,-0.09375 -0.2812499,-0.140625 -0.1757813,-0.05859 -0.6914063,-0.128906 l 0.1875,-0.761719 3.5039062,-0.1875 h 1.3242188 z"
       id="text24"
       style="font-size:24px;font-family:'Cambria Math', 'Cambria Math_MSFontService', sans-serif"
       transform="translate(495.105,244)"
       aria-label="𝒉" />
    <path
       d="M 5.945508,-1.616836 Q 5.2012501,-0.71859377 4.5083204,-0.29085938 3.8239454,0.136875 3.0711329,0.136875 q -1.7879297,0 -1.7879297,-1.8050391 0,-0.5731641 0.1454296,-1.206211 L 2.438086,-7.314258 H 1.0008985 l 0.1283203,-0.5902735 q 0.5047266,-0.00855 0.7613672,-0.076992 0.2651953,-0.068438 0.4362891,-0.1882032 0.1796484,-0.1197656 0.3250781,-0.3421875 0.1454297,-0.2224219 0.2823047,-0.5646094 0.136875,-0.3507422 0.410625,-1.2147654 H 4.5254298 L 4.054922,-8.1782815 H 6.655547 L 6.4673439,-7.314258 h -2.600625 l -0.7613673,3.3192188 q -0.2224218,0.9666797 -0.2823047,1.3944141 -0.059883,0.4191797 -0.059883,0.6758204 0,1.06078124 0.8811329,1.06078124 0.3764062,0 0.7955859,-0.28230474 0.4277344,-0.2908593 1.0094532,-0.983789 z"
       id="text25"
       style="font-size:17.52px;font-family:'Cambria Math', 'Cambria Math_MSFontService', sans-serif"
       transform="translate(510.272,249)"
       aria-label="𝑡" />
    <path
       d="M 1.2746485,-4.4398829 V -5.5776564 H 11.814024 v 1.1377735 z"
       id="text26"
       style="font-size:17.52px;font-family:'Cambria Math', 'Cambria Math_MSFontService', sans-serif"
       transform="translate(518.405,249)"
       aria-label="−" />
    <path
       d="m 5.945508,-2.2327735 q 0,0.4961719 0.051328,0.7528125 0.059883,0.248086 0.1967578,0.410625 0.1454297,0.15398441 0.410625,0.24808598 0.2651953,0.0855469 0.6672657,0.136875 0.4020703,0.0427734 1.0607812,0.0598828 V 0 H 2.0103516 V -0.6244922 Q 2.959922,-0.66726564 3.3619923,-0.73570314 3.7726173,-0.81269533 3.9864845,-0.95812503 4.2003517,-1.1035547 4.2944532,-1.36875 4.3971095,-1.6339454 4.3971095,-2.2327735 v -6.9378517 q 0,-0.3421875 -0.1197656,-0.4961719 -0.1197657,-0.1625391 -0.3507422,-0.1625391 -0.27375,0 -0.7784766,0.2823047 -0.5047266,0.2823047 -1.2489844,0.7784766 l -0.3764063,-0.658711 4.0035939,-2.3867581 h 0.4705078 q -0.051328,0.82125 -0.051328,2.2755472 z"
       id="text27"
       style="font-size:17.52px;font-family:'Cambria Math', 'Cambria Math_MSFontService', sans-serif"
       transform="translate(531.072,249)"
       aria-label="1" />
    <path
       d="M 553,430.84 V 384 h 3 v 46.84 z m -6,-45.34 7.5,-9 7.5,9 z"
       id="path27" />
    <path
       id="rect27"
       style="fill:none;stroke:#000000;stroke-width:2;stroke-miterlimit:8"
       d="m 605,345 h 55 v 39 h -55 z" />
    <text
       font-family="'Cambria Math', 'Cambria Math_MSFontService', sans-serif"
       font-weight="400"
       font-size="24px"
       transform="translate(620.309,373)"
       id="text28" />
    <path
       d="M 5.0507812,0.19921875 Q 4.5117187,2.7421875 3.3984375,3.984375 2.2851563,5.2382812 0.59765625,5.2382812 q -0.4921875,0 -0.7734375,-0.058594 l 0.19921875,-1.03125 q 0.1171875,0.035156 0.55078125,0.035156 0.52734375,0 0.90234375,-0.2695312 0.375,-0.2695312 0.6914063,-0.9375 Q 2.4960938,2.3085938 2.765625,1.125 L 5.2851562,-10.019531 H 3.3046875 l 0.1757813,-0.808594 q 0.7851562,-0.04687 1.1249999,-0.128906 0.3515625,-0.08203 0.5390625,-0.246094 0.1992188,-0.164063 0.328125,-0.421875 0.140625,-0.269531 0.3515625,-0.972656 0.6210938,-2.109375 1.9101563,-3.164063 1.3007813,-1.066406 3.304688,-1.066406 1.148437,0 1.980468,0.1875 l -0.457031,1.992187 h -1.03125 q -0.164062,-0.667968 -0.433594,-0.960937 -0.257812,-0.292969 -0.773437,-0.292969 -0.667969,0 -1.136719,0.375 -0.4570312,0.363281 -0.7851562,1.089844 -0.328125,0.726562 -0.6093751,1.957031 L 7.5,-11.203125 h 3.011719 l -0.257813,1.183594 H 7.2304687 Z"
       id="text29"
       style="font-size:24px;font-family:'Cambria Math', 'Cambria Math_MSFontService', sans-serif"
       transform="translate(625.643,373)"
       aria-label="𝑓" />
    <path
       d="m 788,364 c 0,-6.627 5.373,-12 12,-12 6.627,0 12,5.373 12,12 0,6.627 -5.373,12 -12,12 -6.627,0 -12,-5.373 -12,-12 z"
       stroke="#000000"
       stroke-width="2"
       stroke-miterlimit="8"
       fill="none"
       fill-rule="evenodd"
       id="path29" />
    <path
       d="m 10.083317,-5.9895739 q 0,0.2916662 -0.03125,0.4895826 -0.03125,0.1979163 -0.093749,0.3229161 -0.0625,0.1145832 -0.1458331,0.1666664 -0.083333,0.052083 -0.1770831,0.052083 H 6.3958232 v 3.5312444 q 0,0.1041665 -0.052083,0.1874997 -0.052083,0.072917 -0.1770831,0.1354165 -0.1249998,0.052083 -0.3333328,0.083333 -0.208333,0.0312499 -0.5208325,0.0312499 -0.3124995,0 -0.5208325,-0.0312499 -0.208333,-0.03125 -0.3333328,-0.083333 -0.1249998,-0.0625 -0.1874997,-0.1354165 -0.052083,-0.083333 -0.052083,-0.1874997 V -4.9583255 H 0.98958177 q -0.0937499,0 -0.17708305,-0.052083 -0.0729165,-0.052083 -0.13541646,-0.1666664 -0.0624999,-0.1249998 -0.1041665,-0.3229161 -0.0312499,-0.1979164 -0.0312499,-0.4895826 0,-0.2812495 0.0312499,-0.4791659 0.0312499,-0.208333 0.0833332,-0.3229161 0.0624999,-0.1249998 0.13541646,-0.1770831 0.0729166,-0.052083 0.1666664,-0.052083 H 4.2187433 V -10.54165 q 0,-0.104167 0.052083,-0.1875 0.0625,-0.09375 0.1874997,-0.145833 0.1249998,-0.0625 0.3333328,-0.09375 0.208333,-0.03125 0.5208325,-0.03125 0.3124995,0 0.5208325,0.03125 0.208333,0.03125 0.3333328,0.09375 0.1249998,0.05208 0.1770831,0.145833 0.052083,0.08333 0.052083,0.1875 v 3.5208278 h 3.2708282 q 0.083333,0 0.1562498,0.052083 0.083333,0.052083 0.1354164,0.1770831 0.0625,0.1145831 0.093749,0.3229161 0.03125,0.1979164 0.03125,0.4791661 z"
       id="text30"
       style="font-weight:700;font-size:21.3333px;font-family:Calibri, Calibri_MSFontService, sans-serif"
       transform="translate(794.552,371)"
       aria-label="+" />
    <path
       d="M 7.92106e-6,-1.5 32.2624,-1.49983 v 3 L -7.92106e-6,1.5 Z M 30.7625,-7.49984 39.7624,2.09974e-4 30.7624,7.50016 Z"
       transform="matrix(1,0,0,-1,565.5,364.5)"
       id="path30" />
    <path
       d="m 660.5,363 h 120.339 v 3 H 660.5 Z m 118.839,-6 9,7.5 -9,7.5 z"
       id="path31" />
    <path
       d="m 682.5,364.5 c 0,-2.761 2.463,-5 5.5,-5 3.038,0 5.5,2.239 5.5,5 0,2.761 -2.462,5 -5.5,5 -3.037,0 -5.5,-2.239 -5.5,-5 z"
       stroke="#000000"
       stroke-width="1.33333"
       stroke-miterlimit="8"
       fill-rule="evenodd"
       id="path32" />
    <path
       d="M 687,359.158 V 254 h 204.304 v 3 H 688.5 l 1.5,-1.5 V 359.158 Z M 889.804,248 l 9,7.5 -9,7.5 z"
       id="path33" />
    <path
       d="M 1.5,-3.02628e-6 1.50009,44.5376 h -3 L -1.5,3.02628e-6 Z M 7.50009,43.0376 l -7.499985013,9 -7.500014987,-9 z"
       transform="matrix(1,0,0,-1,800.5,428.538)"
       id="path34" />
    <path
       d="M 3.62632e-6,-1.5 79.3542,-1.49981 v 3 L -3.62632e-6,1.5 Z M 77.8542,-7.49981 l 9,7.500019974 L 77.8541,7.50019 Z"
       transform="matrix(1,0,0,-1,812.5,364.5)"
       id="path35" />
    <path
       d="m 18.257812,-11.425781 q 0.515625,-0.996094 0.761719,-1.628907 0.246094,-0.632812 0.246094,-1.054687 0,-0.351563 -0.08203,-0.5625 -0.08203,-0.210938 -0.304688,-0.351563 -0.222656,-0.140625 -0.609375,-0.199218 l 0.175781,-0.773438 h 4.980469 L 23.25,-15.222656 q -0.386719,0.07031 -0.691406,0.28125 -0.292969,0.210937 -0.5625,0.5625 -0.269532,0.351562 -0.527344,0.808593 -0.257813,0.445313 -0.691406,1.253907 L 14.0625,0.08203125 H 11.25 L 11.22656,-7.4648437 v -1.9921876 q 0,-0.7617187 0.01172,-1.5937497 h -0.152343 q -0.386719,0.867187 -0.773438,1.6171872 L 5.53125,0.08203125 H 2.71875 L 2.484375,-12.386719 Q 2.4609375,-13.5 2.3085938,-14.074219 2.1679688,-14.648438 1.921875,-14.894531 1.6757812,-15.152344 1.2304687,-15.222656 L 1.40625,-15.996094 h 6 l -0.1757813,0.773438 q -0.3632812,0.04687 -0.5976562,0.164062 -0.234375,0.117188 -0.3867188,0.328125 -0.140625,0.199219 -0.2109375,0.503906 -0.070312,0.304688 -0.082031,0.5625 0,0.257813 -0.011719,1.476563 l -0.046875,4.40625 q -0.011719,1.1601563 -0.1171875,3.7382813 H 5.9296875 Q 6.328125,-4.9453125 7.640625,-7.5703125 l 4.230469,-8.4257815 H 14.4375 l 0.01172,7.6757815 0.01172,1.0429688 q 0,1.640625 -0.08203,3.234375 h 0.152344 q 0.550781,-1.1484375 1.980469,-3.9726563 z"
       id="text35"
       style="font-size:24px;font-family:'Cambria Math', 'Cambria Math_MSFontService', sans-serif"
       transform="translate(712.873,351)"
       aria-label="𝑾" />
    <path
       d="M 4.1832423,0.01710938 Q 3.9351564,-1.479961 3.507422,-3.5929688 3.0540235,-5.8514064 2.9085938,-6.3903517 2.7289454,-7.040508 2.5321876,-7.2201564 q -0.1197657,-0.111211 -0.2994141,-0.111211 -0.27375,0 -0.5132813,0.2224219 -0.2395312,0.2224219 -0.5902734,0.7699219 L 0.57316408,-6.7068752 Q 1.1634375,-7.588008 1.6767188,-7.9473049 q 0.5132813,-0.3678516 1.1463281,-0.3678516 0.3507422,0 0.5988282,0.094102 0.1710937,0.068437 0.3421875,0.2309766 0.1710938,0.1539843 0.2994141,0.436289 0.136875,0.2823047 0.2309765,0.6330469 0.1026563,0.3507422 0.2224219,1.0094532 0.2053125,1.1035547 0.3935157,2.326875 0.1967578,1.2147657 0.3336328,2.2584376 0.8298047,-1.1976563 1.4029688,-2.3439844 0.5817187,-1.1463282 0.8298047,-1.9932423 0.2566406,-0.8469141 0.2566406,-1.3773047 0,-0.4020703 -0.1710938,-0.5475 -0.1710937,-0.1454297 -0.5817187,-0.1710938 l 0.085547,-0.4191797 H 9.316055 l 0.2309766,0.4277344 Q 8.8968752,-5.971172 7.7847658,-3.943711 6.6897658,-1.9590235 5.2782423,0.00855469 3.9266017,1.8820313 3.0283595,2.7203907 2.4038673,3.2935548 1.8221485,3.5416407 1.3601953,3.7298438 0.8383594,3.7298438 q -0.17964845,0 -0.4191797,-0.034219 Q 0.18820313,3.669961 0.05988281,3.6186329 L 0.42773439,1.9590235 H 1.1035547 q 0,0.5475 0.3764063,0.5475 0.4961719,0 1.1548828,-0.6244922 0.658711,-0.6159375 1.5483985,-1.86492192 z"
       id="text36"
       style="font-size:17.52px;font-family:'Cambria Math', 'Cambria Math_MSFontService', sans-serif"
       transform="translate(736.54,356)"
       aria-label="𝑦" />
    <path
       d="m 6.328125,-9.6210938 0.1523437,0.046875 q 0.9492188,-1.1484372 1.9101563,-1.6875002 0.9609375,-0.550781 2.132813,-0.550781 1.195312,0 1.875,0.679687 0.679687,0.679688 0.679687,1.851563 0,0.375 -0.08203,0.9375 -0.07031,0.5625 -0.175781,0.9960938 l -0.925782,3.6562499 q -0.199218,0.7851563 -0.199218,1.3710938 0,0.4570313 0.152343,0.6328125 0.152344,0.1757813 0.433594,0.1757813 0.339844,0 0.75,-0.3164063 0.421875,-0.3164063 1.007813,-0.984375 l 0.84375,0.84375 q -1.148438,1.171875 -2.0625,1.6640625 Q 11.917969,0.1875 10.828125,0.1875 9.6328125,0.1875 9.0351563,-0.3984375 8.4375,-0.984375 8.4375,-2.1914063 q 0,-0.9257812 0.3164063,-2.1445312 L 9.2929688,-6.375 q 0.1992187,-0.7617187 0.3398437,-1.4882812 0.140625,-0.7382813 0.140625,-1.1953126 0,-0.5039062 -0.2109375,-0.7734375 -0.2109375,-0.2695317 -0.6328125,-0.2695317 -0.5976562,0 -1.3945313,0.7617192 -0.796875,0.75 -1.1953125,1.4882813 -0.3867187,0.7382813 -0.609375,1.8398438 L 4.4414062,0 H 1.078125 l 2.9648437,-13.242188 q 0.2578125,-1.148437 0.2578125,-1.675781 0,-0.257812 -0.058594,-0.398437 -0.046875,-0.152344 -0.1523438,-0.246094 -0.1054687,-0.09375 -0.2812499,-0.140625 -0.1757813,-0.05859 -0.6914063,-0.128906 l 0.1875,-0.761719 3.5039062,-0.1875 h 1.3242188 z"
       id="text37"
       style="font-size:24px;font-family:'Cambria Math', 'Cambria Math_MSFontService', sans-serif"
       transform="translate(749.126,351)"
       aria-label="𝒉" />
    <path
       d="M 5.945508,-1.616836 Q 5.2012501,-0.71859377 4.5083204,-0.29085938 3.8239454,0.136875 3.0711329,0.136875 q -1.7879297,0 -1.7879297,-1.8050391 0,-0.5731641 0.1454296,-1.206211 L 2.438086,-7.314258 H 1.0008985 l 0.1283203,-0.5902735 q 0.5047266,-0.00855 0.7613672,-0.076992 0.2651953,-0.068438 0.4362891,-0.1882032 0.1796484,-0.1197656 0.3250781,-0.3421875 0.1454297,-0.2224219 0.2823047,-0.5646094 0.136875,-0.3507422 0.410625,-1.2147654 H 4.5254298 L 4.054922,-8.1782815 H 6.655547 L 6.4673439,-7.314258 h -2.600625 l -0.7613673,3.3192188 q -0.2224218,0.9666797 -0.2823047,1.3944141 -0.059883,0.4191797 -0.059883,0.6758204 0,1.06078124 0.8811329,1.06078124 0.3764062,0 0.7955859,-0.28230474 0.4277344,-0.2908593 1.0094532,-0.983789 z"
       id="text38"
       style="font-size:17.52px;font-family:'Cambria Math', 'Cambria Math_MSFontService', sans-serif"
       transform="translate(764.293,356)"
       aria-label="𝑡" />
    <path
       d="m 0,1.5 h -12 v -3 H 0 Z m -21,0 h -7.4722 v -7.52782 h 3 V 0 l -1.5,-1.5 H -21 Z m -7.4722,-16.5278 v -12 h 3 v 12 z m 0,-21 v -12 h 3 v 12 z m 0,-21 v -12 h 3 v 12 z m 0,-21 v -12 h 3 v 12 z m 0,-21 v -12.0002 h 3 v 12.0002 z m 0,-21.0002 v -12 h 3 v 12 z m 2.8225,-21.177 h 12 v 3 h -12 z m 21.00004,0 h 12 v 3 h -12 z m 20.99996,0 h 12 v 3 h -12 z m 21,0 h 12 v 3 h -12 z m 21,0 h 12 v 3 h -12 z m 21,0 h 12 v 3 h -12 z m 20.9997,0 h 12 v 3 h -12 z m 21,0 h 12 v 3 h -12 z m 21,0 h 12 v 3 h -12 z m 21,0 h 12 v 3 h -12 z m 21,0 h 12 v 3 h -12 z m 21,0 h 12 v 3 h -12 z m 21,0 h 12 v 3 h -12 z m 21,0 h 12 v 3 h -12 z m 21,0 h 12 v 3 h -12 z m 21,0 h 12 v 3 h -12 z m 21,0 h 12 v 3 h -12 z m 21,0 h 12 v 3 h -12 z m 21,0 h 12 v 3 h -12 z m 21,0 h 12 v 3 h -12 z m 21,0 h 12 v 3 h -12 z m 21,0 h 12 v 3 h -12 z m 21,0 h 12 v 3 h -12 z m 21,0 h 12 v 3 h -12 z m 21,0 h 12 v 3 h -12 z m 21,0 h 12 v 3 h -12 z m 21,0 h 12 v 3 h -12 z m 21,0 h 12 v 3 h -12 z m 21,0 h 12 v 3 h -12 z m 21,0 h 12 v 3 h -12 z m 21,0 h 12 v 3 h -12 z m 21,0 h 12 v 3 h -12 z m 21,0 h 13.14 v 1.86 h -3 v -0.36 l 1.5,1.5 h -11.64 z m 13.14,10.86 v 12 h -3 v -12 z m 0,21 v 11.9997 h -3 v -11.9997 z m 0,20.9997 v 12 h -3 v -12 z m 0,21 v 12 h -3 v -12 z m 0,21 v 12 h -3 v -12 z m 0,21 v 12 h -3 v -12 z m 0,21 v 7.17863 h -7.821 v -2.999997 h 6.321 l -1.5,1.499997 V -4.3453 Z M 642.669,2.83333 H 632.58 v -2.999997 h 10.089 z m -8.589,6 -9,-7.5 9,-7.5 z"
       transform="matrix(-1,0,0,1,947.58,255.5)"
       id="path38" />
    <path
       d="M 8.1445313,-2.2148438 Q 7.125,-0.984375 6.1757812,-0.3984375 5.2382812,0.1875 4.2070312,0.1875 q -2.4492187,0 -2.4492187,-2.4726563 0,-0.7851562 0.1992187,-1.6523437 l 1.3828126,-6.082031 H 1.3710937 l 0.1757813,-0.808594 q 0.6914063,-0.01172 1.0429688,-0.105469 0.3632812,-0.09375 0.5976562,-0.257812 0.2460938,-0.164063 0.4453125,-0.46875 0.1992188,-0.304688 0.3867187,-0.773438 0.1875,-0.480469 0.5625,-1.664062 h 1.6171875 l -0.6445312,2.894531 h 3.5625 l -0.2578125,1.183594 h -3.5625 L 4.2539062,-5.4726562 Q 3.9492188,-4.1484375 3.8671875,-3.5625 q -0.082031,0.5742187 -0.082031,0.9257812 0,1.4531251 1.2070312,1.4531251 0.515625,0 1.0898437,-0.3867188 0.5859375,-0.3984375 1.3828125,-1.3476563 z"
       id="text39"
       style="font-size:24px;font-family:'Cambria Math', 'Cambria Math_MSFontService', sans-serif"
       transform="translate(592.152,103)"
       aria-label="𝑡" />
    <path
       d="M 1.3476562,-7.640625 H 16.148437 l -2.683593,-3.410156 0.691406,-0.644532 4.605469,4.4648443 v 0.75 L 14.15625,-2.015625 13.464844,-2.6601563 16.148437,-6.0820312 H 1.3476562 Z"
       id="text40"
       style="font-size:24px;font-family:'Cambria Math', 'Cambria Math_MSFontService', sans-serif"
       transform="translate(608.906,103)"
       aria-label="→" />
    <path
       d="M 8.1445313,-2.2148438 Q 7.125,-0.984375 6.1757812,-0.3984375 5.2382812,0.1875 4.2070312,0.1875 q -2.4492187,0 -2.4492187,-2.4726563 0,-0.7851562 0.1992187,-1.6523437 l 1.3828126,-6.082031 H 1.3710937 l 0.1757813,-0.808594 q 0.6914063,-0.01172 1.0429688,-0.105469 0.3632812,-0.09375 0.5976562,-0.257812 0.2460938,-0.164063 0.4453125,-0.46875 0.1992188,-0.304688 0.3867187,-0.773438 0.1875,-0.480469 0.5625,-1.664062 h 1.6171875 l -0.6445312,2.894531 h 3.5625 l -0.2578125,1.183594 h -3.5625 L 4.2539062,-5.4726562 Q 3.9492188,-4.1484375 3.8671875,-3.5625 q -0.082031,0.5742187 -0.082031,0.9257812 0,1.4531251 1.2070312,1.4531251 0.515625,0 1.0898437,-0.3867188 0.5859375,-0.3984375 1.3828125,-1.3476563 z"
       id="text41"
       style="font-size:24px;font-family:'Cambria Math', 'Cambria Math_MSFontService', sans-serif"
       transform="translate(635.739,103)"
       aria-label="𝑡" />
    <path
       d="M 9.796875,-6.0820312 V 0.66796875 H 8.1328125 V -6.0820312 H 1.7460937 V -7.640625 h 6.3867188 v -6.75 H 9.796875 v 6.75 h 6.386719 v 1.5585938 z"
       id="text42"
       style="font-size:24px;font-family:'Cambria Math', 'Cambria Math_MSFontService', sans-serif"
       transform="translate(651.159,103)"
       aria-label="+" />
    <path
       d="m 8.1445313,-3.0585938 q 0,0.6796875 0.070312,1.03125 0.082031,0.3398438 0.2695312,0.5625001 0.1992188,0.2109375 0.5625,0.3398437 0.3632813,0.1171875 0.9140625,0.1875 0.550781,0.0585938 1.453126,0.0820313 V 0 H 2.7539063 v -0.85546875 q 1.3007812,-0.0585938 1.8515624,-0.15234375 0.5625,-0.1054687 0.8554688,-0.3046875 0.2929687,-0.1992187 0.421875,-0.5625 0.140625,-0.3632813 0.140625,-1.1835938 V -12.5625 q 0,-0.46875 -0.1640625,-0.679688 -0.1640625,-0.222656 -0.4804688,-0.222656 -0.375,0 -1.0664062,0.386719 -0.6914062,0.386719 -1.7109375,1.066406 l -0.515625,-0.902344 5.484375,-3.269531 h 0.6445313 q -0.070312,1.125 -0.070312,3.117188 z"
       id="text43"
       style="font-size:24px;font-family:'Cambria Math', 'Cambria Math_MSFontService', sans-serif"
       transform="translate(674.492,103)"
       aria-label="1" />
    <path
       d="m 6.328125,-9.6210938 0.1523437,0.046875 q 0.9492188,-1.1484372 1.9101563,-1.6875002 0.9609375,-0.550781 2.132813,-0.550781 1.195312,0 1.875,0.679687 0.679687,0.679688 0.679687,1.851563 0,0.375 -0.08203,0.9375 -0.07031,0.5625 -0.175781,0.9960938 l -0.925782,3.6562499 q -0.199218,0.7851563 -0.199218,1.3710938 0,0.4570313 0.152343,0.6328125 0.152344,0.1757813 0.433594,0.1757813 0.339844,0 0.75,-0.3164063 0.421875,-0.3164063 1.007813,-0.984375 l 0.84375,0.84375 q -1.148438,1.171875 -2.0625,1.6640625 Q 11.917969,0.1875 10.828125,0.1875 9.6328125,0.1875 9.0351563,-0.3984375 8.4375,-0.984375 8.4375,-2.1914063 q 0,-0.9257812 0.3164063,-2.1445312 L 9.2929688,-6.375 q 0.1992187,-0.7617187 0.3398437,-1.4882812 0.140625,-0.7382813 0.140625,-1.1953126 0,-0.5039062 -0.2109375,-0.7734375 -0.2109375,-0.2695317 -0.6328125,-0.2695317 -0.5976562,0 -1.3945313,0.7617192 -0.796875,0.75 -1.1953125,1.4882813 -0.3867187,0.7382813 -0.609375,1.8398438 L 4.4414062,0 H 1.078125 l 2.9648437,-13.242188 q 0.2578125,-1.148437 0.2578125,-1.675781 0,-0.257812 -0.058594,-0.398437 -0.046875,-0.152344 -0.1523438,-0.246094 -0.1054687,-0.09375 -0.2812499,-0.140625 -0.1757813,-0.05859 -0.6914063,-0.128906 l 0.1875,-0.761719 3.5039062,-0.1875 h 1.3242188 z"
       id="text44"
       style="font-size:24px;font-family:'Cambria Math', 'Cambria Math_MSFontService', sans-serif"
       transform="translate(679.762,399)"
       aria-label="𝒉" />
    <path
       d="M 5.945508,-1.616836 Q 5.2012501,-0.71859377 4.5083204,-0.29085938 3.8239454,0.136875 3.0711329,0.136875 q -1.7879297,0 -1.7879297,-1.8050391 0,-0.5731641 0.1454296,-1.206211 L 2.438086,-7.314258 H 1.0008985 l 0.1283203,-0.5902735 q 0.5047266,-0.00855 0.7613672,-0.076992 0.2651953,-0.068438 0.4362891,-0.1882032 0.1796484,-0.1197656 0.3250781,-0.3421875 0.1454297,-0.2224219 0.2823047,-0.5646094 0.136875,-0.3507422 0.410625,-1.2147654 H 4.5254298 L 4.054922,-8.1782815 H 6.655547 L 6.4673439,-7.314258 h -2.600625 l -0.7613673,3.3192188 q -0.2224218,0.9666797 -0.2823047,1.3944141 -0.059883,0.4191797 -0.059883,0.6758204 0,1.06078124 0.8811329,1.06078124 0.3764062,0 0.7955859,-0.28230474 0.4277344,-0.2908593 1.0094532,-0.983789 z"
       id="text45"
       style="font-size:17.52px;font-family:'Cambria Math', 'Cambria Math_MSFontService', sans-serif"
       transform="translate(694.929,404)"
       aria-label="𝑡" />
  </g>
</svg>
