<?xml version="1.0" encoding="UTF-8" standalone="no"?>
<svg
   width="994.98718"
   height="431.50897"
   overflow="hidden"
   version="1.1"
   id="svg26"
   xmlns="http://www.w3.org/2000/svg"
   xmlns:svg="http://www.w3.org/2000/svg">
  <defs
     id="defs26">
    <clipPath
       clipPathUnits="userSpaceOnUse"
       id="clipPath29">
      <rect
         style="opacity:0;fill:#ffffff;stroke:#000000;stroke-width:3.024"
         id="rect30"
         width="994.98718"
         height="431.50897"
         x="73.657288"
         y="96.368286" />
    </clipPath>
    <clipPath
       clipPathUnits="userSpaceOnUse"
       id="clipPath30">
      <rect
         style="opacity:0;fill:#ffffff;stroke:#000000;stroke-width:3.024"
         id="rect31"
         width="994.98718"
         height="431.50897"
         x="73.657288"
         y="96.368286" />
    </clipPath>
  </defs>
  <g
     id="g26"
     clip-path="url(#clipPath30)"
     transform="translate(-73.657288,-96.368286)">
    <path
       id="rect1"
       style="fill:#ffffff"
       d="M 0,0 H 1280 V 720 H 0 Z" />
    <path
       d="m 707.5,226.5 c 0,-21.539 17.685,-39 39.5,-39 21.815,0 39.5,17.461 39.5,39 0,21.539 -17.685,39 -39.5,39 -21.815,0 -39.5,-17.461 -39.5,-39 z"
       stroke="#000000"
       stroke-width="1.33333"
       stroke-miterlimit="8"
       fill="#f2f2f2"
       fill-rule="evenodd"
       id="path1" />
    <path
       d="M 3.875,-0.765625 2.4375,0.25 1.4375,0 5.484375,-17.859375 q 0.359375,-1.59375 0.359375,-2.3125 0,-0.65625 -0.40625,-0.921875 -0.390625,-0.265625 -1.421875,-0.296875 l 0.1875,-0.8125 3.953125,-0.140625 H 9.0625 l -2.75,10.9375 0.203125,0.0625 q 1.515625,-2.03125 2.84375,-2.9375 1.328125,-0.90625 2.65625,-0.90625 1.703125,0 2.640625,1.296875 0.953125,1.296875 0.953125,3.65625 0,2.578125 -1.046875,5.078125 -1.03125,2.484375 -2.875,3.953125 Q 9.84375,0.25 7.5625,0.25 5.484375,0.25 3.875,-0.765625 Z M 5.25,-5.4375 q -0.234375,1.09375 -0.234375,2.125 0,1.234375 0.53125,1.78125 0.546875,0.546875 1.796875,0.546875 0.640625,0 1.21875,-0.203125 Q 9.140625,-1.40625 9.734375,-1.890625 10.34375,-2.375 10.875,-3.15625 q 0.546875,-0.796875 1,-1.953125 0.453125,-1.15625 0.703125,-2.46875 0.25,-1.328125 0.25,-2.53125 0,-1.625 -0.46875,-2.4375 -0.453125,-0.8125 -1.46875,-0.8125 -0.75,0 -1.484375,0.484375 -0.71875,0.46875 -1.609375,1.578125 -0.890625,1.09375 -1.453125,2.25 -0.5625,1.15625 -0.953125,2.953125 z"
       id="text1"
       style="font-size:32px;font-family:'Cambria Math', 'Cambria Math_MSFontService', sans-serif"
       transform="translate(740.776,237)"
       aria-label="𝑏" />
    <path
       d="m 708.5,346 c 0,-21.815 17.685,-39.5 39.5,-39.5 21.815,0 39.5,17.685 39.5,39.5 0,21.815 -17.685,39.5 -39.5,39.5 -21.815,0 -39.5,-17.685 -39.5,-39.5 z"
       stroke="#000000"
       stroke-width="1.33333"
       stroke-miterlimit="8"
       fill="#f2f2f2"
       fill-rule="evenodd"
       id="path2" />
    <path
       d="m 14.96875,-2.59375 q 2.4375,-3.46875 3.703125,-6.046875 1.28125,-2.59375 1.28125,-4.21875 0,-0.734375 -0.3125,-1 -0.3125,-0.265625 -1.0625,-0.3125 l 0.15625,-0.765625 h 4.03125 l 0.421875,0.78125 q -0.546875,1.390625 -0.875,2.140625 -0.328125,0.75 -0.859375,1.8125 -0.53125,1.046875 -1.125,2.09375 -0.59375,1.046875 -1.40625,2.3125 -0.796875,1.25 -1.796875,2.734375 -1,1.46875 -2.359375,3.3125 H 12.90625 l -0.640625,-6.53125 q -0.07813,-0.765625 -0.171875,-2 -0.07813,-1.234375 -0.109375,-1.90625 L 11.8125,-10.203125 Q 10.96875,-8.125 9.515625,-5.578125 8.0625,-3.03125 5.921875,0.25 h -2.09375 l -1.1875,-11.765625 q -0.09375,-0.90625 -0.234375,-1.46875 -0.140625,-0.5625 -0.46875,-0.84375 -0.328125,-0.28125 -1.078125,-0.34375 L 1.03125,-14.9375 H 5.125 l 0.9375,12.328125 q 2.203125,-3.59375 3.171875,-5.46875 0.984375,-1.875 1.453125,-3.234375 0.46875,-1.375 0.71875,-2.859375 l 0.171875,-0.765625 h 2.25 z"
       id="text2"
       style="font-size:32px;font-family:'Cambria Math', 'Cambria Math_MSFontService', sans-serif"
       transform="translate(731.372,353)"
       aria-label="𝑤" />
    <path
       d="m 6.3418752,0.1825 q -2.4637501,0 -3.6728126,-1.9390625 -1.1976563,-1.9390626 -1.1976563,-5.8856252 0,-2.0987501 0.365,-3.6271873 0.3764063,-1.528438 1.0379688,-2.520782 0.6729687,-1.00375 1.6082813,-1.482812 0.9353125,-0.479063 2.0417188,-0.479063 2.4979688,0 3.7184378,1.927657 1.220469,1.927656 1.220469,5.8285935 0,4.0378126 -1.311719,6.1137502 Q 8.8512502,0.1825 6.3418752,0.1825 Z M 3.6956251,-7.9843752 q 0,3.7184376 0.684375,5.4635939 0.6957813,1.73375003 2.1443751,1.73375003 1.3801563,0 2.0417188,-1.63109383 0.6729687,-1.6425 0.6729687,-5.0757813 0,-2.6234376 -0.3421875,-4.2431256 -0.3421875,-1.631093 -0.958125,-2.338281 -0.6045313,-0.707187 -1.4714063,-0.707187 -0.7870313,0 -1.323125,0.467656 -0.5246875,0.467656 -0.8554688,1.345937 -0.319375,0.878282 -0.45625,2.144375 -0.136875,1.254688 -0.136875,2.8401568 z"
       id="text3"
       style="font-size:23.36px;font-family:'Cambria Math', 'Cambria Math_MSFontService', sans-serif"
       transform="translate(753.979,359)"
       aria-label="0" />
    <path
       d="m 708.5,465.5 c 0,-21.539 17.461,-39 39,-39 21.539,0 39,17.461 39,39 0,21.539 -17.461,39 -39,39 -21.539,0 -39,-17.461 -39,-39 z"
       stroke="#000000"
       stroke-width="1.33333"
       stroke-miterlimit="8"
       fill="#f2f2f2"
       fill-rule="evenodd"
       id="path3" />
    <path
       d="m 14.96875,-2.59375 q 2.4375,-3.46875 3.703125,-6.046875 1.28125,-2.59375 1.28125,-4.21875 0,-0.734375 -0.3125,-1 -0.3125,-0.265625 -1.0625,-0.3125 l 0.15625,-0.765625 h 4.03125 l 0.421875,0.78125 q -0.546875,1.390625 -0.875,2.140625 -0.328125,0.75 -0.859375,1.8125 -0.53125,1.046875 -1.125,2.09375 -0.59375,1.046875 -1.40625,2.3125 -0.796875,1.25 -1.796875,2.734375 -1,1.46875 -2.359375,3.3125 H 12.90625 l -0.640625,-6.53125 q -0.07813,-0.765625 -0.171875,-2 -0.07813,-1.234375 -0.109375,-1.90625 L 11.8125,-10.203125 Q 10.96875,-8.125 9.515625,-5.578125 8.0625,-3.03125 5.921875,0.25 h -2.09375 l -1.1875,-11.765625 q -0.09375,-0.90625 -0.234375,-1.46875 -0.140625,-0.5625 -0.46875,-0.84375 -0.328125,-0.28125 -1.078125,-0.34375 L 1.03125,-14.9375 H 5.125 l 0.9375,12.328125 q 2.203125,-3.59375 3.171875,-5.46875 0.984375,-1.875 1.453125,-3.234375 0.46875,-1.375 0.71875,-2.859375 l 0.171875,-0.765625 h 2.25 z"
       id="text4"
       style="font-size:32px;font-family:'Cambria Math', 'Cambria Math_MSFontService', sans-serif"
       transform="translate(730.905,472)"
       aria-label="𝑤" />
    <path
       d="m 7.927344,-2.9770313 q 0,0.6615625 0.068437,1.00375 0.079844,0.3307813 0.2623437,0.5475 0.1939063,0.2053125 0.5475,0.3307813 0.3535938,0.11406247 0.8896876,0.18249998 0.5360937,0.0570312 1.4143757,0.0798437 V 0 H 2.6804688 V -0.83265627 Q 3.9465626,-0.88968752 4.4826564,-0.98093753 5.0301564,-1.0835938 5.3153126,-1.2775 5.6004689,-1.4714063 5.7259376,-1.825 5.8628127,-2.1785938 5.8628127,-2.9770313 V -12.2275 q 0,-0.45625 -0.1596876,-0.661563 -0.1596875,-0.216719 -0.4676562,-0.216719 -0.365,0 -1.0379688,0.376407 -0.6729688,0.376406 -1.6653125,1.037968 l -0.501875,-0.878281 5.3381251,-3.182344 h 0.6273438 q -0.068437,1.095 -0.068437,3.034063 z"
       id="text5"
       style="font-size:23.36px;font-family:'Cambria Math', 'Cambria Math_MSFontService', sans-serif"
       transform="translate(752.771,479)"
       aria-label="1" />
    <path
       d="m 945.5,346 c 0,-21.815 17.461,-39.5 39,-39.5 21.54,0 39,17.685 39,39.5 0,21.815 -17.46,39.5 -39,39.5 -21.539,0 -39,-17.685 -39,-39.5 z"
       stroke="#000000"
       stroke-width="1.33333"
       stroke-miterlimit="8"
       fill="#f2f2f2"
       fill-rule="evenodd"
       id="path5" />
    <path
       d="M 12.953125,-4.390625 12,0 H 0.6875 L 0.390625,-0.765625 8.9375,-10.609375 Q 10.75,-12.6875 11.59375,-13.5625 L 11.5,-13.671875 H 7.84375 q -0.8125,0 -1.1875,0.109375 -0.375,0.109375 -0.75,0.390625 -0.375,0.265625 -0.8125,0.8125 -0.421875,0.53125 -0.953125,1.53125 H 2.75 L 3.671875,-14.9375 H 14.78125 l 0.296875,0.78125 L 7.625,-5.59375 Q 5.453125,-3.109375 3.859375,-1.375 l 0.09375,0.109375 h 3.53125 q 0.9375,0 1.4375,-0.09375 0.5,-0.109375 0.875,-0.390625 0.375,-0.28125 0.765625,-0.84375 0.40625,-0.578125 1,-1.796875 z"
       id="text6"
       style="font-size:32px;font-family:'Cambria Math', 'Cambria Math_MSFontService', sans-serif"
       transform="translate(977.132,353)"
       aria-label="𝑧" />
    <path
       d="m 787.133,225.326 163.396,88.057 -1.266,2.348 -163.396,-88.057 z m 162.763,89.231 -1.532,-8.399 8.574,12.195 -14.9,-0.457 z"
       id="path6" />
    <path
       d="M 0.633764,-1.17308 163.613,86.8774 162.346,89.2236 -0.633764,1.17308 Z M 162.979,88.0504 161.456,79.65 l 8.562,12.203 -14.9,-0.4722 z"
       transform="matrix(1,0,0,-1,786.5,465.353)"
       id="path7" />
    <path
       d="m 787.5,344.167 h 150.112 v 2.666 H 787.5 Z m 150.112,1.333 -5.333,-6.667 13.333,6.667 -13.333,6.667 z"
       id="path8" />
    <path
       d="M 7.453125,-7.0625 Q 7.21875,-8.296875 6.96875,-9.4375 q -0.25,-1.140625 -0.515625,-2.125 -0.265625,-0.984375 -0.4375,-1.28125 -0.171875,-0.3125 -0.375,-0.421875 -0.1875,-0.125 -0.484375,-0.125 -0.328125,0 -0.59375,0.15625 -0.265625,0.140625 -0.578125,0.515625 -0.3125,0.359375 -0.828125,1.140625 L 2.140625,-12.25 q 0.984375,-1.484375 1.890625,-2.21875 0.90625,-0.734375 2.140625,-0.734375 0.484375,0 0.84375,0.109375 0.375,0.109375 0.65625,0.34375 0.28125,0.21875 0.5,0.578125 0.21875,0.359375 0.421875,0.984375 0.203125,0.609375 0.375,1.53125 0.1875,0.90625 0.328125,1.890625 h 0.15625 q 1.5,-2.109375 2.265625,-3.078125 0.78125,-0.984375 1.3125,-1.453125 0.53125,-0.484375 1.015625,-0.671875 0.5,-0.203125 1.3125,-0.203125 0.734375,0 1.203125,0.1875 l -0.625,2.828125 H 14.84375 Q 14.75,-12.8125 14.296875,-12.8125 q -0.140625,0 -0.296875,0.04687 -0.15625,0.04687 -0.390625,0.203125 -0.21875,0.15625 -0.65625,0.609375 -0.4375,0.453125 -0.984375,1.109375 -0.546875,0.65625 -1.125,1.375 l -1.0625,1.328125 q 0.28125,1.5 0.53125,2.59375 0.25,1.09375 0.4375,1.828125 0.203125,0.71875 0.34375,1.140625 0.15625,0.421875 0.328125,0.640625 0.171875,0.203125 0.34375,0.296875 0.1875,0.078125 0.421875,0.078125 0.421875,0 0.8125,-0.328125 0.40625,-0.328125 1.15625,-1.484375 l 1.015625,0.671875 q -1.09375,1.625 -1.984375,2.296875 Q 12.3125,0.25 11.09375,0.25 10.421875,0.25 9.953125,0 q -0.46875,-0.234375 -0.8125,-0.765625 -0.34375,-0.53125 -0.609375,-1.65625 -0.484375,-2 -0.59375,-3.0625 H 7.78125 Q 6.125,-3.15625 5.3125,-2.140625 4.515625,-1.125 3.984375,-0.640625 3.46875,-0.15625 2.96875,0.03125 2.484375,0.234375 1.671875,0.234375 q -0.734375,0 -1.203125,-0.1875 l 0.625,-2.828125 H 2.1875 q 0.09375,0.65625 0.546875,0.65625 0.21875,0 0.453125,-0.109375 0.25,-0.125 0.703125,-0.5625 Q 4.34375,-3.25 5.140625,-4.203125 5.9375,-5.15625 7.453125,-7.0625 Z"
       id="text8"
       style="font-size:32px;font-family:'Cambria Math', 'Cambria Math_MSFontService', sans-serif"
       transform="translate(848.646,328)"
       aria-label="𝑥" />
    <path
       d="m 6.3418752,0.1825 q -2.4637501,0 -3.6728126,-1.9390625 -1.1976563,-1.9390626 -1.1976563,-5.8856252 0,-2.0987501 0.365,-3.6271873 0.3764063,-1.528438 1.0379688,-2.520782 0.6729687,-1.00375 1.6082813,-1.482812 0.9353125,-0.479063 2.0417188,-0.479063 2.4979688,0 3.7184378,1.927657 1.220469,1.927656 1.220469,5.8285935 0,4.0378126 -1.311719,6.1137502 Q 8.8512502,0.1825 6.3418752,0.1825 Z M 3.6956251,-7.9843752 q 0,3.7184376 0.684375,5.4635939 0.6957813,1.73375003 2.1443751,1.73375003 1.3801563,0 2.0417188,-1.63109383 0.6729687,-1.6425 0.6729687,-5.0757813 0,-2.6234376 -0.3421875,-4.2431256 -0.3421875,-1.631093 -0.958125,-2.338281 -0.6045313,-0.707187 -1.4714063,-0.707187 -0.7870313,0 -1.323125,0.467656 -0.5246875,0.467656 -0.8554688,1.345937 -0.319375,0.878282 -0.45625,2.144375 -0.136875,1.254688 -0.136875,2.8401568 z"
       id="text9"
       style="font-size:23.36px;font-family:'Cambria Math', 'Cambria Math_MSFontService', sans-serif"
       transform="translate(865.333,335)"
       aria-label="0" />
    <path
       d="M 7.453125,-7.0625 Q 7.21875,-8.296875 6.96875,-9.4375 q -0.25,-1.140625 -0.515625,-2.125 -0.265625,-0.984375 -0.4375,-1.28125 -0.171875,-0.3125 -0.375,-0.421875 -0.1875,-0.125 -0.484375,-0.125 -0.328125,0 -0.59375,0.15625 -0.265625,0.140625 -0.578125,0.515625 -0.3125,0.359375 -0.828125,1.140625 L 2.140625,-12.25 q 0.984375,-1.484375 1.890625,-2.21875 0.90625,-0.734375 2.140625,-0.734375 0.484375,0 0.84375,0.109375 0.375,0.109375 0.65625,0.34375 0.28125,0.21875 0.5,0.578125 0.21875,0.359375 0.421875,0.984375 0.203125,0.609375 0.375,1.53125 0.1875,0.90625 0.328125,1.890625 h 0.15625 q 1.5,-2.109375 2.265625,-3.078125 0.78125,-0.984375 1.3125,-1.453125 0.53125,-0.484375 1.015625,-0.671875 0.5,-0.203125 1.3125,-0.203125 0.734375,0 1.203125,0.1875 l -0.625,2.828125 H 14.84375 Q 14.75,-12.8125 14.296875,-12.8125 q -0.140625,0 -0.296875,0.04687 -0.15625,0.04687 -0.390625,0.203125 -0.21875,0.15625 -0.65625,0.609375 -0.4375,0.453125 -0.984375,1.109375 -0.546875,0.65625 -1.125,1.375 l -1.0625,1.328125 q 0.28125,1.5 0.53125,2.59375 0.25,1.09375 0.4375,1.828125 0.203125,0.71875 0.34375,1.140625 0.15625,0.421875 0.328125,0.640625 0.171875,0.203125 0.34375,0.296875 0.1875,0.078125 0.421875,0.078125 0.421875,0 0.8125,-0.328125 0.40625,-0.328125 1.15625,-1.484375 l 1.015625,0.671875 q -1.09375,1.625 -1.984375,2.296875 Q 12.3125,0.25 11.09375,0.25 10.421875,0.25 9.953125,0 q -0.46875,-0.234375 -0.8125,-0.765625 -0.34375,-0.53125 -0.609375,-1.65625 -0.484375,-2 -0.59375,-3.0625 H 7.78125 Q 6.125,-3.15625 5.3125,-2.140625 4.515625,-1.125 3.984375,-0.640625 3.46875,-0.15625 2.96875,0.03125 2.484375,0.234375 1.671875,0.234375 q -0.734375,0 -1.203125,-0.1875 l 0.625,-2.828125 H 2.1875 q 0.09375,0.65625 0.546875,0.65625 0.21875,0 0.453125,-0.109375 0.25,-0.125 0.703125,-0.5625 Q 4.34375,-3.25 5.140625,-4.203125 5.9375,-5.15625 7.453125,-7.0625 Z"
       id="text10"
       style="font-size:32px;font-family:'Cambria Math', 'Cambria Math_MSFontService', sans-serif"
       transform="translate(848.179,397)"
       aria-label="𝑥" />
    <path
       d="m 7.927344,-2.9770313 q 0,0.6615625 0.068437,1.00375 0.079844,0.3307813 0.2623437,0.5475 0.1939063,0.2053125 0.5475,0.3307813 0.3535938,0.11406247 0.8896876,0.18249998 0.5360937,0.0570312 1.4143757,0.0798437 V 0 H 2.6804688 V -0.83265627 Q 3.9465626,-0.88968752 4.4826564,-0.98093753 5.0301564,-1.0835938 5.3153126,-1.2775 5.6004689,-1.4714063 5.7259376,-1.825 5.8628127,-2.1785938 5.8628127,-2.9770313 V -12.2275 q 0,-0.45625 -0.1596876,-0.661563 -0.1596875,-0.216719 -0.4676562,-0.216719 -0.365,0 -1.0379688,0.376407 -0.6729688,0.376406 -1.6653125,1.037968 l -0.501875,-0.878281 5.3381251,-3.182344 h 0.6273438 q -0.068437,1.095 -0.068437,3.034063 z"
       id="text11"
       style="font-size:23.36px;font-family:'Cambria Math', 'Cambria Math_MSFontService', sans-serif"
       transform="translate(864.125,404)"
       aria-label="1" />
    <path
       d="m 10.859375,-4.078125 q 0,0.90625 0.09375,1.375 0.109375,0.453125 0.359375,0.75 0.265625,0.28125 0.75,0.453125 0.484375,0.15625 1.21875,0.25 0.734375,0.078125 1.9375,0.109375 V 0 H 3.671875 V -1.140625 Q 5.40625,-1.21875 6.140625,-1.34375 6.890625,-1.484375 7.28125,-1.75 7.671875,-2.015625 7.84375,-2.5 8.03125,-2.984375 8.03125,-4.078125 V -16.75 q 0,-0.625 -0.21875,-0.90625 -0.21875,-0.296875 -0.640625,-0.296875 -0.5,0 -1.421875,0.515625 -0.921875,0.515625 -2.28125,1.421875 l -0.6875,-1.203125 7.3125,-4.359375 h 0.859375 q -0.09375,1.5 -0.09375,4.15625 z"
       id="text12"
       style="font-size:32px;font-family:'Cambria Math', 'Cambria Math_MSFontService', sans-serif"
       transform="translate(856.409,248)"
       aria-label="1" />
    <path
       d="m 100.5,226 c 0,-21.815 17.461,-39.5 39,-39.5 21.539,0 39,17.685 39,39.5 0,21.815 -17.461,39.5 -39,39.5 -21.539,0 -39,-17.685 -39,-39.5 z"
       stroke="#000000"
       stroke-width="1.33333"
       stroke-miterlimit="8"
       fill="#f2f2f2"
       fill-rule="evenodd"
       id="path12" />
    <path
       d="m 10.859375,-4.078125 q 0,0.90625 0.09375,1.375 0.109375,0.453125 0.359375,0.75 0.265625,0.28125 0.75,0.453125 0.484375,0.15625 1.21875,0.25 0.734375,0.078125 1.9375,0.109375 V 0 H 3.671875 V -1.140625 Q 5.40625,-1.21875 6.140625,-1.34375 6.890625,-1.484375 7.28125,-1.75 7.671875,-2.015625 7.84375,-2.5 8.03125,-2.984375 8.03125,-4.078125 V -16.75 q 0,-0.625 -0.21875,-0.90625 -0.21875,-0.296875 -0.640625,-0.296875 -0.5,0 -1.421875,0.515625 -0.921875,0.515625 -2.28125,1.421875 l -0.6875,-1.203125 7.3125,-4.359375 h 0.859375 q -0.09375,1.5 -0.09375,4.15625 z"
       id="text13"
       style="font-size:32px;font-family:'Cambria Math', 'Cambria Math_MSFontService', sans-serif"
       transform="translate(133.708,236)"
       aria-label="1" />
    <path
       d="m 101.5,345.5 c 0,-21.539 17.461,-39 39,-39 21.539,0 39,17.461 39,39 0,21.539 -17.461,39 -39,39 -21.539,0 -39,-17.461 -39,-39 z"
       stroke="#000000"
       stroke-width="1.33333"
       stroke-miterlimit="8"
       fill="#f2f2f2"
       fill-rule="evenodd"
       id="path13" />
    <path
       d="M 7.453125,-7.0625 Q 7.21875,-8.296875 6.96875,-9.4375 q -0.25,-1.140625 -0.515625,-2.125 -0.265625,-0.984375 -0.4375,-1.28125 -0.171875,-0.3125 -0.375,-0.421875 -0.1875,-0.125 -0.484375,-0.125 -0.328125,0 -0.59375,0.15625 -0.265625,0.140625 -0.578125,0.515625 -0.3125,0.359375 -0.828125,1.140625 L 2.140625,-12.25 q 0.984375,-1.484375 1.890625,-2.21875 0.90625,-0.734375 2.140625,-0.734375 0.484375,0 0.84375,0.109375 0.375,0.109375 0.65625,0.34375 0.28125,0.21875 0.5,0.578125 0.21875,0.359375 0.421875,0.984375 0.203125,0.609375 0.375,1.53125 0.1875,0.90625 0.328125,1.890625 h 0.15625 q 1.5,-2.109375 2.265625,-3.078125 0.78125,-0.984375 1.3125,-1.453125 0.53125,-0.484375 1.015625,-0.671875 0.5,-0.203125 1.3125,-0.203125 0.734375,0 1.203125,0.1875 l -0.625,2.828125 H 14.84375 Q 14.75,-12.8125 14.296875,-12.8125 q -0.140625,0 -0.296875,0.04687 -0.15625,0.04687 -0.390625,0.203125 -0.21875,0.15625 -0.65625,0.609375 -0.4375,0.453125 -0.984375,1.109375 -0.546875,0.65625 -1.125,1.375 l -1.0625,1.328125 q 0.28125,1.5 0.53125,2.59375 0.25,1.09375 0.4375,1.828125 0.203125,0.71875 0.34375,1.140625 0.15625,0.421875 0.328125,0.640625 0.171875,0.203125 0.34375,0.296875 0.1875,0.078125 0.421875,0.078125 0.421875,0 0.8125,-0.328125 0.40625,-0.328125 1.15625,-1.484375 l 1.015625,0.671875 q -1.09375,1.625 -1.984375,2.296875 Q 12.3125,0.25 11.09375,0.25 10.421875,0.25 9.953125,0 q -0.46875,-0.234375 -0.8125,-0.765625 -0.34375,-0.53125 -0.609375,-1.65625 -0.484375,-2 -0.59375,-3.0625 H 7.78125 Q 6.125,-3.15625 5.3125,-2.140625 4.515625,-1.125 3.984375,-0.640625 3.46875,-0.15625 2.96875,0.03125 2.484375,0.234375 1.671875,0.234375 q -0.734375,0 -1.203125,-0.1875 l 0.625,-2.828125 H 2.1875 q 0.09375,0.65625 0.546875,0.65625 0.21875,0 0.453125,-0.109375 0.25,-0.125 0.703125,-0.5625 Q 4.34375,-3.25 5.140625,-4.203125 5.9375,-5.15625 7.453125,-7.0625 Z"
       id="text14"
       style="font-size:32px;font-family:'Cambria Math', 'Cambria Math_MSFontService', sans-serif"
       transform="translate(128.341,352)"
       aria-label="𝑥" />
    <path
       d="m 6.3418752,0.1825 q -2.4637501,0 -3.6728126,-1.9390625 -1.1976563,-1.9390626 -1.1976563,-5.8856252 0,-2.0987501 0.365,-3.6271873 0.3764063,-1.528438 1.0379688,-2.520782 0.6729687,-1.00375 1.6082813,-1.482812 0.9353125,-0.479063 2.0417188,-0.479063 2.4979688,0 3.7184378,1.927657 1.220469,1.927656 1.220469,5.8285935 0,4.0378126 -1.311719,6.1137502 Q 8.8512502,0.1825 6.3418752,0.1825 Z M 3.6956251,-7.9843752 q 0,3.7184376 0.684375,5.4635939 0.6957813,1.73375003 2.1443751,1.73375003 1.3801563,0 2.0417188,-1.63109383 0.6729687,-1.6425 0.6729687,-5.0757813 0,-2.6234376 -0.3421875,-4.2431256 -0.3421875,-1.631093 -0.958125,-2.338281 -0.6045313,-0.707187 -1.4714063,-0.707187 -0.7870313,0 -1.323125,0.467656 -0.5246875,0.467656 -0.8554688,1.345937 -0.319375,0.878282 -0.45625,2.144375 -0.136875,1.254688 -0.136875,2.8401568 z"
       id="text15"
       style="font-size:23.36px;font-family:'Cambria Math', 'Cambria Math_MSFontService', sans-serif"
       transform="translate(145.028,359)"
       aria-label="0" />
    <path
       d="m 100.5,465 c 0,-21.815 17.685,-39.5 39.5,-39.5 21.815,0 39.5,17.685 39.5,39.5 0,21.815 -17.685,39.5 -39.5,39.5 -21.815,0 -39.5,-17.685 -39.5,-39.5 z"
       stroke="#000000"
       stroke-width="1.33333"
       stroke-miterlimit="8"
       fill="#f2f2f2"
       fill-rule="evenodd"
       id="path15" />
    <path
       d="M 7.453125,-7.0625 Q 7.21875,-8.296875 6.96875,-9.4375 q -0.25,-1.140625 -0.515625,-2.125 -0.265625,-0.984375 -0.4375,-1.28125 -0.171875,-0.3125 -0.375,-0.421875 -0.1875,-0.125 -0.484375,-0.125 -0.328125,0 -0.59375,0.15625 -0.265625,0.140625 -0.578125,0.515625 -0.3125,0.359375 -0.828125,1.140625 L 2.140625,-12.25 q 0.984375,-1.484375 1.890625,-2.21875 0.90625,-0.734375 2.140625,-0.734375 0.484375,0 0.84375,0.109375 0.375,0.109375 0.65625,0.34375 0.28125,0.21875 0.5,0.578125 0.21875,0.359375 0.421875,0.984375 0.203125,0.609375 0.375,1.53125 0.1875,0.90625 0.328125,1.890625 h 0.15625 q 1.5,-2.109375 2.265625,-3.078125 0.78125,-0.984375 1.3125,-1.453125 0.53125,-0.484375 1.015625,-0.671875 0.5,-0.203125 1.3125,-0.203125 0.734375,0 1.203125,0.1875 l -0.625,2.828125 H 14.84375 Q 14.75,-12.8125 14.296875,-12.8125 q -0.140625,0 -0.296875,0.04687 -0.15625,0.04687 -0.390625,0.203125 -0.21875,0.15625 -0.65625,0.609375 -0.4375,0.453125 -0.984375,1.109375 -0.546875,0.65625 -1.125,1.375 l -1.0625,1.328125 q 0.28125,1.5 0.53125,2.59375 0.25,1.09375 0.4375,1.828125 0.203125,0.71875 0.34375,1.140625 0.15625,0.421875 0.328125,0.640625 0.171875,0.203125 0.34375,0.296875 0.1875,0.078125 0.421875,0.078125 0.421875,0 0.8125,-0.328125 0.40625,-0.328125 1.15625,-1.484375 l 1.015625,0.671875 q -1.09375,1.625 -1.984375,2.296875 Q 12.3125,0.25 11.09375,0.25 10.421875,0.25 9.953125,0 q -0.46875,-0.234375 -0.8125,-0.765625 -0.34375,-0.53125 -0.609375,-1.65625 -0.484375,-2 -0.59375,-3.0625 H 7.78125 Q 6.125,-3.15625 5.3125,-2.140625 4.515625,-1.125 3.984375,-0.640625 3.46875,-0.15625 2.96875,0.03125 2.484375,0.234375 1.671875,0.234375 q -0.734375,0 -1.203125,-0.1875 l 0.625,-2.828125 H 2.1875 q 0.09375,0.65625 0.546875,0.65625 0.21875,0 0.453125,-0.109375 0.25,-0.125 0.703125,-0.5625 Q 4.34375,-3.25 5.140625,-4.203125 5.9375,-5.15625 7.453125,-7.0625 Z"
       id="text16"
       style="font-size:32px;font-family:'Cambria Math', 'Cambria Math_MSFontService', sans-serif"
       transform="translate(127.873,472)"
       aria-label="𝑥" />
    <path
       d="m 7.927344,-2.9770313 q 0,0.6615625 0.068437,1.00375 0.079844,0.3307813 0.2623437,0.5475 0.1939063,0.2053125 0.5475,0.3307813 0.3535938,0.11406247 0.8896876,0.18249998 0.5360937,0.0570312 1.4143757,0.0798437 V 0 H 2.6804688 V -0.83265627 Q 3.9465626,-0.88968752 4.4826564,-0.98093753 5.0301564,-1.0835938 5.3153126,-1.2775 5.6004689,-1.4714063 5.7259376,-1.825 5.8628127,-2.1785938 5.8628127,-2.9770313 V -12.2275 q 0,-0.45625 -0.1596876,-0.661563 -0.1596875,-0.216719 -0.4676562,-0.216719 -0.365,0 -1.0379688,0.376407 -0.6729688,0.376406 -1.6653125,1.037968 l -0.501875,-0.878281 5.3381251,-3.182344 h 0.6273438 q -0.068437,1.095 -0.068437,3.034063 z"
       id="text17"
       style="font-size:23.36px;font-family:'Cambria Math', 'Cambria Math_MSFontService', sans-serif"
       transform="translate(143.82,478)"
       aria-label="1" />
    <path
       d="m 337.5,345.5 c 0,-21.539 17.685,-39 39.5,-39 21.815,0 39.5,17.461 39.5,39 0,21.539 -17.685,39 -39.5,39 -21.815,0 -39.5,-17.461 -39.5,-39 z"
       stroke="#000000"
       stroke-width="1.33333"
       stroke-miterlimit="8"
       fill="#f2f2f2"
       fill-rule="evenodd"
       id="path17" />
    <path
       d="M 12.953125,-4.390625 12,0 H 0.6875 L 0.390625,-0.765625 8.9375,-10.609375 Q 10.75,-12.6875 11.59375,-13.5625 L 11.5,-13.671875 H 7.84375 q -0.8125,0 -1.1875,0.109375 -0.375,0.109375 -0.75,0.390625 -0.375,0.265625 -0.8125,0.8125 -0.421875,0.53125 -0.953125,1.53125 H 2.75 L 3.671875,-14.9375 H 14.78125 l 0.296875,0.78125 L 7.625,-5.59375 Q 5.453125,-3.109375 3.859375,-1.375 l 0.09375,0.109375 h 3.53125 q 0.9375,0 1.4375,-0.09375 0.5,-0.109375 0.875,-0.390625 0.375,-0.28125 0.765625,-0.84375 0.40625,-0.578125 1,-1.796875 z"
       id="text18"
       style="font-size:32px;font-family:'Cambria Math', 'Cambria Math_MSFontService', sans-serif"
       transform="translate(369.878,352)"
       aria-label="𝑧" />
    <path
       d="m 179.133,224.326 163.396,88.057 -1.266,2.348 -163.396,-88.057 z m 162.763,89.231 -1.532,-8.399 8.574,12.195 -14.9,-0.457 z"
       id="path18" />
    <path
       d="M 0.633764,-1.17308 163.613,86.8774 162.346,89.2236 -0.633764,1.17308 Z M 162.979,88.0504 161.456,79.65 l 8.562,12.203 -14.9,-0.4722 z"
       transform="matrix(1,0,0,-1,179.5,465.353)"
       id="path19" />
    <path
       d="m 179.5,344.167 h 150.112 v 2.666 H 179.5 Z m 150.112,1.333 -5.333,-6.667 13.333,6.667 -13.333,6.667 z"
       id="path20" />
    <path
       d="m 14.96875,-2.59375 q 2.4375,-3.46875 3.703125,-6.046875 1.28125,-2.59375 1.28125,-4.21875 0,-0.734375 -0.3125,-1 -0.3125,-0.265625 -1.0625,-0.3125 l 0.15625,-0.765625 h 4.03125 l 0.421875,0.78125 q -0.546875,1.390625 -0.875,2.140625 -0.328125,0.75 -0.859375,1.8125 -0.53125,1.046875 -1.125,2.09375 -0.59375,1.046875 -1.40625,2.3125 -0.796875,1.25 -1.796875,2.734375 -1,1.46875 -2.359375,3.3125 H 12.90625 l -0.640625,-6.53125 q -0.07813,-0.765625 -0.171875,-2 -0.07813,-1.234375 -0.109375,-1.90625 L 11.8125,-10.203125 Q 10.96875,-8.125 9.515625,-5.578125 8.0625,-3.03125 5.921875,0.25 h -2.09375 l -1.1875,-11.765625 q -0.09375,-0.90625 -0.234375,-1.46875 -0.140625,-0.5625 -0.46875,-0.84375 -0.328125,-0.28125 -1.078125,-0.34375 L 1.03125,-14.9375 H 5.125 l 0.9375,12.328125 q 2.203125,-3.59375 3.171875,-5.46875 0.984375,-1.875 1.453125,-3.234375 0.46875,-1.375 0.71875,-2.859375 l 0.171875,-0.765625 h 2.25 z"
       id="text20"
       style="font-size:32px;font-family:'Cambria Math', 'Cambria Math_MSFontService', sans-serif"
       transform="translate(238.432,328)"
       aria-label="𝑤" />
    <path
       d="m 6.3418752,0.1825 q -2.4637501,0 -3.6728126,-1.9390625 -1.1976563,-1.9390626 -1.1976563,-5.8856252 0,-2.0987501 0.365,-3.6271873 0.3764063,-1.528438 1.0379688,-2.520782 0.6729687,-1.00375 1.6082813,-1.482812 0.9353125,-0.479063 2.0417188,-0.479063 2.4979688,0 3.7184378,1.927657 1.220469,1.927656 1.220469,5.8285935 0,4.0378126 -1.311719,6.1137502 Q 8.8512502,0.1825 6.3418752,0.1825 Z M 3.6956251,-7.9843752 q 0,3.7184376 0.684375,5.4635939 0.6957813,1.73375003 2.1443751,1.73375003 1.3801563,0 2.0417188,-1.63109383 0.6729687,-1.6425 0.6729687,-5.0757813 0,-2.6234376 -0.3421875,-4.2431256 -0.3421875,-1.631093 -0.958125,-2.338281 -0.6045313,-0.707187 -1.4714063,-0.707187 -0.7870313,0 -1.323125,0.467656 -0.5246875,0.467656 -0.8554688,1.345937 -0.319375,0.878282 -0.45625,2.144375 -0.136875,1.254688 -0.136875,2.8401568 z"
       id="text21"
       style="font-size:23.36px;font-family:'Cambria Math', 'Cambria Math_MSFontService', sans-serif"
       transform="translate(261.039,334)"
       aria-label="0" />
    <path
       d="m 14.96875,-2.59375 q 2.4375,-3.46875 3.703125,-6.046875 1.28125,-2.59375 1.28125,-4.21875 0,-0.734375 -0.3125,-1 -0.3125,-0.265625 -1.0625,-0.3125 l 0.15625,-0.765625 h 4.03125 l 0.421875,0.78125 q -0.546875,1.390625 -0.875,2.140625 -0.328125,0.75 -0.859375,1.8125 -0.53125,1.046875 -1.125,2.09375 -0.59375,1.046875 -1.40625,2.3125 -0.796875,1.25 -1.796875,2.734375 -1,1.46875 -2.359375,3.3125 H 12.90625 l -0.640625,-6.53125 q -0.07813,-0.765625 -0.171875,-2 -0.07813,-1.234375 -0.109375,-1.90625 L 11.8125,-10.203125 Q 10.96875,-8.125 9.515625,-5.578125 8.0625,-3.03125 5.921875,0.25 h -2.09375 l -1.1875,-11.765625 q -0.09375,-0.90625 -0.234375,-1.46875 -0.140625,-0.5625 -0.46875,-0.84375 -0.328125,-0.28125 -1.078125,-0.34375 L 1.03125,-14.9375 H 5.125 l 0.9375,12.328125 q 2.203125,-3.59375 3.171875,-5.46875 0.984375,-1.875 1.453125,-3.234375 0.46875,-1.375 0.71875,-2.859375 l 0.171875,-0.765625 h 2.25 z"
       id="text22"
       style="font-size:32px;font-family:'Cambria Math', 'Cambria Math_MSFontService', sans-serif"
       transform="translate(237.964,397)"
       aria-label="𝑤" />
    <path
       d="m 7.927344,-2.9770313 q 0,0.6615625 0.068437,1.00375 0.079844,0.3307813 0.2623437,0.5475 0.1939063,0.2053125 0.5475,0.3307813 0.3535938,0.11406247 0.8896876,0.18249998 0.5360937,0.0570312 1.4143757,0.0798437 V 0 H 2.6804688 V -0.83265627 Q 3.9465626,-0.88968752 4.4826564,-0.98093753 5.0301564,-1.0835938 5.3153126,-1.2775 5.6004689,-1.4714063 5.7259376,-1.825 5.8628127,-2.1785938 5.8628127,-2.9770313 V -12.2275 q 0,-0.45625 -0.1596876,-0.661563 -0.1596875,-0.216719 -0.4676562,-0.216719 -0.365,0 -1.0379688,0.376407 -0.6729688,0.376406 -1.6653125,1.037968 l -0.501875,-0.878281 5.3381251,-3.182344 h 0.6273438 q -0.068437,1.095 -0.068437,3.034063 z"
       id="text23"
       style="font-size:23.36px;font-family:'Cambria Math', 'Cambria Math_MSFontService', sans-serif"
       transform="translate(259.831,403)"
       aria-label="1" />
    <path
       d="M 3.875,-0.765625 2.4375,0.25 1.4375,0 5.484375,-17.859375 q 0.359375,-1.59375 0.359375,-2.3125 0,-0.65625 -0.40625,-0.921875 -0.390625,-0.265625 -1.421875,-0.296875 l 0.1875,-0.8125 3.953125,-0.140625 H 9.0625 l -2.75,10.9375 0.203125,0.0625 q 1.515625,-2.03125 2.84375,-2.9375 1.328125,-0.90625 2.65625,-0.90625 1.703125,0 2.640625,1.296875 0.953125,1.296875 0.953125,3.65625 0,2.578125 -1.046875,5.078125 -1.03125,2.484375 -2.875,3.953125 Q 9.84375,0.25 7.5625,0.25 5.484375,0.25 3.875,-0.765625 Z M 5.25,-5.4375 q -0.234375,1.09375 -0.234375,2.125 0,1.234375 0.53125,1.78125 0.546875,0.546875 1.796875,0.546875 0.640625,0 1.21875,-0.203125 Q 9.140625,-1.40625 9.734375,-1.890625 10.34375,-2.375 10.875,-3.15625 q 0.546875,-0.796875 1,-1.953125 0.453125,-1.15625 0.703125,-2.46875 0.25,-1.328125 0.25,-2.53125 0,-1.625 -0.46875,-2.4375 -0.453125,-0.8125 -1.46875,-0.8125 -0.75,0 -1.484375,0.484375 -0.71875,0.46875 -1.609375,1.578125 -0.890625,1.09375 -1.453125,2.25 -0.5625,1.15625 -0.953125,2.953125 z"
       id="text24"
       style="font-size:32px;font-family:'Cambria Math', 'Cambria Math_MSFontService', sans-serif"
       transform="translate(248.974,248)"
       aria-label="𝑏" />
    <path
       d="m 2.4375,0 v -22.90625 h 3.109375 l 12.03125,17.984375 V -22.90625 h 2.90625 V 0 H 17.375 L 5.34375,-18 V 0 Z m 34.140625,-5.34375 2.90625,0.359375 Q 38.796875,-2.4375 36.9375,-1.03125 35.078125,0.375 32.1875,0.375 q -3.640625,0 -5.78125,-2.234375 -2.125,-2.25 -2.125,-6.296875 0,-4.1875 2.15625,-6.5 2.15625,-2.3125 5.59375,-2.3125 3.328125,0 5.4375,2.265625 2.109375,2.265625 2.109375,6.375 0,0.25 -0.01563,0.75 h -12.375 q 0.15625,2.734375 1.546875,4.1875 1.390625,1.453125 3.46875,1.453125 1.546875,0 2.640625,-0.8125 1.09375,-0.8125 1.734375,-2.59375 z M 27.34375,-9.890625 h 9.265625 q -0.1875,-2.09375 -1.0625,-3.140625 -1.34375,-1.625 -3.484375,-1.625 -1.9375,0 -3.265625,1.296875 -1.3125,1.296875 -1.453125,3.46875 z M 53.890625,0 V -2.4375 Q 51.953125,0.375 48.625,0.375 q -1.46875,0 -2.75,-0.5625 Q 44.609375,-0.75 43.984375,-1.59375 43.375,-2.453125 43.125,-3.6875 42.953125,-4.515625 42.953125,-6.3125 v -10.28125 h 2.8125 v 9.203125 q 0,2.203125 0.171875,2.96875 0.265625,1.109375 1.125,1.75 0.859375,0.625 2.125,0.625 1.265625,0 2.375,-0.640625 1.109375,-0.65625 1.5625,-1.765625 0.46875,-1.125 0.46875,-3.25 v -8.890625 h 2.8125 V 0 Z m 6.890625,0 v -16.59375 h 2.53125 v 2.515625 q 0.96875,-1.765625 1.78125,-2.328125 0.828125,-0.5625 1.8125,-0.5625 1.421875,0 2.890625,0.90625 l -0.96875,2.609375 q -1.03125,-0.609375 -2.0625,-0.609375 -0.921875,0 -1.65625,0.5625 -0.734375,0.546875 -1.046875,1.53125 -0.46875,1.5 -0.46875,3.28125 V 0 Z m 21.515625,-2.046875 q -1.5625,1.328125 -3.015625,1.875 Q 77.84375,0.375 76.1875,0.375 q -2.734375,0 -4.203125,-1.328125 -1.46875,-1.34375 -1.46875,-3.421875 0,-1.21875 0.546875,-2.21875 0.5625,-1.015625 1.453125,-1.625 0.90625,-0.609375 2.03125,-0.921875 0.828125,-0.21875 2.5,-0.421875 3.40625,-0.40625 5.015625,-0.96875 0.01563,-0.578125 0.01563,-0.734375 0,-1.71875 -0.796875,-2.421875 -1.078125,-0.953125 -3.203125,-0.953125 -1.984375,0 -2.9375,0.703125 -0.9375,0.6875 -1.390625,2.453125 l -2.75,-0.375 q 0.375,-1.765625 1.234375,-2.84375 0.859375,-1.09375 2.484375,-1.671875 1.625,-0.59375 3.765625,-0.59375 2.125,0 3.453125,0.5 1.328125,0.5 1.953125,1.265625 0.625,0.75 0.875,1.90625 0.140625,0.71875 0.140625,2.59375 v 3.75 q 0,3.921875 0.171875,4.96875 0.1875,1.03125 0.71875,1.984375 h -2.9375 q -0.4375,-0.875 -0.5625,-2.046875 z M 82.0625,-8.328125 q -1.53125,0.625 -4.59375,1.0625 -1.734375,0.25 -2.453125,0.5625 -0.71875,0.3125 -1.109375,0.921875 -0.390625,0.59375 -0.390625,1.328125 0,1.125 0.84375,1.875 0.859375,0.75 2.5,0.75 1.625,0 2.890625,-0.703125 Q 81.015625,-3.25 81.609375,-4.484375 82.0625,-5.4375 82.0625,-7.296875 Z M 89.203125,0 v -22.90625 h 2.8125 V 0 Z m 16.062505,0 v -16.59375 h 2.53125 v 2.359375 q 1.82812,-2.734375 5.28125,-2.734375 1.5,0 2.75,0.546875 1.26562,0.53125 1.89062,1.40625 0.625,0.875 0.875,2.078125 0.15625,0.78125 0.15625,2.734375 V 0 h -2.8125 v -10.09375 q 0,-1.71875 -0.32812,-2.5625 -0.32813,-0.859375 -1.17188,-1.359375 -0.82812,-0.515625 -1.95312,-0.515625 -1.79688,0 -3.10938,1.140625 -1.29687,1.140625 -1.29687,4.328125 V 0 Z m 29.15624,-5.34375 2.90625,0.359375 q -0.6875,2.546875 -2.54687,3.953125 -1.85938,1.40625 -4.75,1.40625 -3.64062,0 -5.78125,-2.234375 -2.125,-2.25 -2.125,-6.296875 0,-4.1875 2.15625,-6.5 2.15625,-2.3125 5.59375,-2.3125 3.32812,0 5.4375,2.265625 2.10937,2.265625 2.10937,6.375 0,0.25 -0.0156,0.75 h -12.375 q 0.15625,2.734375 1.54688,4.1875 1.39062,1.453125 3.46874,1.453125 1.54688,0 2.64063,-0.8125 1.09375,-0.8125 1.73437,-2.59375 z m -9.23437,-4.546875 h 9.26562 q -0.1875,-2.09375 -1.0625,-3.140625 -1.34375,-1.625 -3.48437,-1.625 -1.9375,0 -3.26562,1.296875 -1.3125,1.296875 -1.45313,3.46875 z m 21.8125,7.375 0.40625,2.484375 q -1.1875,0.25 -2.125,0.25 -1.53125,0 -2.375,-0.484375 Q 142.0625,-0.75 141.71875,-1.53125 141.375,-2.328125 141.375,-4.859375 v -9.546875 h -2.0625 v -2.1875 h 2.0625 v -4.109375 l 2.79687,-1.6875 v 5.796875 H 147 v 2.1875 h -2.82813 v 9.703125 q 0,1.203125 0.14063,1.546875 0.15625,0.34375 0.48437,0.546875 0.34375,0.203125 0.96875,0.203125 0.46875,0 1.23438,-0.109375 z M 152.8125,0 147.73437,-16.59375 h 2.90625 l 2.64063,9.578125 0.98437,3.5625 Q 154.32812,-3.71875 155.125,-6.875 l 2.64062,-9.71875 h 2.89063 l 2.48437,9.625 0.82813,3.171875 L 164.92187,-7 l 2.84375,-9.59375 H 170.5 L 165.3125,0 h -2.92188 L 159.75,-9.9375 159.10937,-12.765625 155.75,0 Z m 19,-8.296875 q 0,-4.609375 2.5625,-6.828125 2.14062,-1.84375 5.21875,-1.84375 3.42187,0 5.59375,2.25 2.17187,2.234375 2.17187,6.1875 0,3.203125 -0.96875,5.046875 -0.95312,1.828125 -2.79687,2.84375 -1.82813,1.015625 -4,1.015625 -3.48438,0 -5.64063,-2.234375 -2.14062,-2.234375 -2.14062,-6.4375 z m 2.89062,0 q 0,3.1875 1.39063,4.78125 1.39062,1.578125 3.5,1.578125 2.09375,0 3.48437,-1.59375 1.39063,-1.59375 1.39063,-4.859375 0,-3.078125 -1.40625,-4.65625 -1.39063,-1.59375 -3.46875,-1.59375 -2.10938,0 -3.5,1.578125 -1.39063,1.578125 -1.39063,4.765625 z M 190.625,0 v -16.59375 h 2.53125 v 2.515625 q 0.96875,-1.765625 1.78125,-2.328125 0.82812,-0.5625 1.8125,-0.5625 1.42187,0 2.89062,0.90625 l -0.96875,2.609375 q -1.03125,-0.609375 -2.0625,-0.609375 -0.92187,0 -1.65625,0.5625 -0.73437,0.546875 -1.04687,1.53125 -0.46875,1.5 -0.46875,3.28125 V 0 Z m 10.70312,0 v -22.90625 h 2.8125 v 13.0625 l 6.65625,-6.75 h 3.64063 L 208.09375,-10.4375 215.07812,0 h -3.46875 l -5.48437,-8.484375 -1.98438,1.90625 V 0 Z m 23.75,-4.953125 2.78125,-0.4375 q 0.23438,1.671875 1.29688,2.5625 1.07812,0.890625 3,0.890625 1.9375,0 2.875,-0.78125 0.9375,-0.796875 0.9375,-1.859375 0,-0.953125 -0.82813,-1.5 -0.57812,-0.375 -2.875,-0.953125 -3.09375,-0.78125 -4.29687,-1.34375 -1.1875,-0.578125 -1.8125,-1.578125 -0.60938,-1.015625 -0.60938,-2.234375 0,-1.109375 0.5,-2.046875 0.51563,-0.953125 1.39063,-1.578125 0.65625,-0.484375 1.78125,-0.8125 1.14062,-0.34375 2.4375,-0.34375 1.95312,0 3.42187,0.5625 1.48438,0.5625 2.1875,1.53125 0.70313,0.953125 0.96875,2.5625 l -2.75,0.375 q -0.1875,-1.28125 -1.09375,-2 -0.89062,-0.71875 -2.53125,-0.71875 -1.9375,0 -2.76562,0.640625 -0.82813,0.640625 -0.82813,1.5 0,0.546875 0.34375,0.984375 0.34375,0.453125 1.07813,0.75 0.42187,0.15625 2.48437,0.71875 2.98438,0.796875 4.15625,1.3125 1.1875,0.5 1.85938,1.46875 0.67187,0.96875 0.67187,2.40625 0,1.40625 -0.82812,2.65625 -0.8125,1.234375 -2.35938,1.921875 -1.54687,0.671875 -3.5,0.671875 -3.23437,0 -4.9375,-1.34375 -1.6875,-1.34375 -2.15625,-3.984375 z m 23.26563,2.4375 0.40625,2.484375 q -1.1875,0.25 -2.125,0.25 -1.53125,0 -2.375,-0.484375 -0.84375,-0.484375 -1.1875,-1.265625 -0.34375,-0.796875 -0.34375,-3.328125 v -9.546875 h -2.0625 v -2.1875 h 2.0625 v -4.109375 l 2.79687,-1.6875 v 5.796875 h 2.82813 v 2.1875 h -2.82813 v 9.703125 q 0,1.203125 0.14063,1.546875 0.15625,0.34375 0.48437,0.546875 0.34375,0.203125 0.96875,0.203125 0.46875,0 1.23438,-0.109375 z M 251.0625,0 v -16.59375 h 2.53125 v 2.515625 q 0.96875,-1.765625 1.78125,-2.328125 0.82812,-0.5625 1.8125,-0.5625 1.42187,0 2.89062,0.90625 l -0.96875,2.609375 q -1.03125,-0.609375 -2.0625,-0.609375 -0.92187,0 -1.65625,0.5625 -0.73437,0.546875 -1.04687,1.53125 -0.46875,1.5 -0.46875,3.28125 V 0 Z m 21.5625,0 v -2.4375 q -1.9375,2.8125 -5.26563,2.8125 -1.46875,0 -2.75,-0.5625 -1.26562,-0.5625 -1.89062,-1.40625 -0.60938,-0.859375 -0.85938,-2.09375 -0.17187,-0.828125 -0.17187,-2.625 V -16.59375 H 264.5 v 9.203125 q 0,2.203125 0.17187,2.96875 0.26563,1.109375 1.125,1.75 0.85938,0.625 2.125,0.625 1.26563,0 2.375,-0.640625 1.10938,-0.65625 1.5625,-1.765625 0.46875,-1.125 0.46875,-3.25 v -8.890625 h 2.8125 V 0 Z m 17.75,-6.078125 2.76562,0.359375 q -0.45312,2.859375 -2.32812,4.484375 -1.85938,1.609375 -4.57813,1.609375 -3.40625,0 -5.48437,-2.21875 -2.0625,-2.234375 -2.0625,-6.390625 0,-2.6875 0.89062,-4.703125 0.89063,-2.015625 2.70313,-3.015625 1.82812,-1.015625 3.96875,-1.015625 2.70312,0 4.42187,1.375 1.71875,1.359375 2.20313,3.875 l -2.73438,0.421875 Q 289.75,-12.96875 288.75,-13.8125 q -0.98438,-0.84375 -2.39063,-0.84375 -2.125,0 -3.45312,1.53125 -1.32813,1.515625 -1.32813,4.8125 0,3.34375 1.28125,4.859375 1.28125,1.515625 3.34375,1.515625 1.65625,0 2.76563,-1.015625 1.10937,-1.015625 1.40625,-3.125 z m 11.3125,3.5625 0.40625,2.484375 q -1.1875,0.25 -2.125,0.25 -1.53125,0 -2.375,-0.484375 Q 296.75,-0.75 296.40625,-1.53125 296.0625,-2.328125 296.0625,-4.859375 V -14.40625 H 294 v -2.1875 h 2.0625 v -4.109375 l 2.79687,-1.6875 v 5.796875 h 2.82813 v 2.1875 h -2.82813 v 9.703125 q 0,1.203125 0.14063,1.546875 0.15625,0.34375 0.48437,0.546875 0.34375,0.203125 0.96875,0.203125 0.46875,0 1.23438,-0.109375 z M 315.3125,0 v -2.4375 q -1.9375,2.8125 -5.26563,2.8125 -1.46875,0 -2.75,-0.5625 -1.26562,-0.5625 -1.89062,-1.40625 -0.60938,-0.859375 -0.85938,-2.09375 -0.17187,-0.828125 -0.17187,-2.625 v -10.28125 h 2.8125 v 9.203125 q 0,2.203125 0.17187,2.96875 0.26563,1.109375 1.125,1.75 0.85938,0.625 2.125,0.625 1.26563,0 2.375,-0.640625 1.10938,-0.65625 1.5625,-1.765625 0.46875,-1.125 0.46875,-3.25 v -8.890625 h 2.8125 V 0 Z m 6.89062,0 v -16.59375 h 2.53125 v 2.515625 q 0.96875,-1.765625 1.78125,-2.328125 0.82813,-0.5625 1.8125,-0.5625 1.42188,0 2.89063,0.90625 l -0.96875,2.609375 q -1.03125,-0.609375 -2.0625,-0.609375 -0.92188,0 -1.65625,0.5625 -0.73438,0.546875 -1.04688,1.53125 -0.46875,1.5 -0.46875,3.28125 V 0 Z m 22.04688,-5.34375 2.90625,0.359375 q -0.6875,2.546875 -2.54688,3.953125 -1.85937,1.40625 -4.75,1.40625 -3.64062,0 -5.78125,-2.234375 -2.125,-2.25 -2.125,-6.296875 0,-4.1875 2.15625,-6.5 2.15625,-2.3125 5.59375,-2.3125 3.32813,0 5.4375,2.265625 2.10938,2.265625 2.10938,6.375 0,0.25 -0.0156,0.75 h -12.375 q 0.15625,2.734375 1.54688,4.1875 1.39062,1.453125 3.46875,1.453125 1.54687,0 2.64062,-0.8125 1.09375,-0.8125 1.73438,-2.59375 z m -9.23438,-4.546875 h 9.26563 q -0.1875,-2.09375 -1.0625,-3.140625 -1.34375,-1.625 -3.48438,-1.625 -1.9375,0 -3.26562,1.296875 -1.3125,1.296875 -1.45313,3.46875 z"
       id="text25"
       style="font-size:32px;font-family:Arial, Arial_MSFontService, sans-serif"
       transform="translate(105.23,142)"
       aria-label="Neural network structure" />
    <path
       d="m 2.515625,0 v -22.90625 h 10.15625 q 3.0625,0 4.65625,0.625 1.59375,0.609375 2.546875,2.171875 0.953125,1.5625 0.953125,3.453125 0,2.4375 -1.578125,4.109375 -1.578125,1.671875 -4.875,2.125 1.203125,0.578125 1.828125,1.140625 1.328125,1.21875 2.515625,3.046875 L 22.703125,0 h -3.8125 l -3.03125,-4.765625 q -1.328125,-2.0625 -2.1875,-3.15625 Q 12.8125,-9.015625 12.125,-9.453125 11.453125,-9.890625 10.75,-10.0625 10.234375,-10.171875 9.0625,-10.171875 H 5.546875 V 0 Z m 3.03125,-12.796875 H 12.0625 q 2.078125,0 3.25,-0.421875 1.171875,-0.4375 1.78125,-1.375 0.609375,-0.953125 0.609375,-2.0625 0,-1.625 -1.1875,-2.671875 Q 15.34375,-20.375 12.796875,-20.375 h -7.25 z m 31.03125,7.453125 2.90625,0.359375 Q 38.796875,-2.4375 36.9375,-1.03125 35.078125,0.375 32.1875,0.375 q -3.640625,0 -5.78125,-2.234375 -2.125,-2.25 -2.125,-6.296875 0,-4.1875 2.15625,-6.5 2.15625,-2.3125 5.59375,-2.3125 3.328125,0 5.4375,2.265625 2.109375,2.265625 2.109375,6.375 0,0.25 -0.01563,0.75 h -12.375 q 0.15625,2.734375 1.546875,4.1875 1.390625,1.453125 3.46875,1.453125 1.546875,0 2.640625,-0.8125 1.09375,-0.8125 1.734375,-2.59375 z M 27.34375,-9.890625 h 9.265625 q -0.1875,-2.09375 -1.0625,-3.140625 -1.34375,-1.625 -3.484375,-1.625 -1.9375,0 -3.265625,1.296875 -1.3125,1.296875 -1.453125,3.46875 z m 15.671875,16.25 V -16.59375 h 2.5625 v 2.15625 q 0.90625,-1.265625 2.046875,-1.890625 1.140625,-0.640625 2.765625,-0.640625 2.125,0 3.75,1.09375 1.625,1.09375 2.453125,3.09375 0.828125,1.984375 0.828125,4.359375 0,2.546875 -0.921875,4.59375 -0.90625,2.03125 -2.65625,3.125 Q 52.109375,0.375 50.1875,0.375 q -1.40625,0 -2.53125,-0.59375 -1.109375,-0.59375 -1.828125,-1.5 V 6.359375 Z M 45.5625,-8.203125 Q 45.5625,-5 46.859375,-3.46875 48.15625,-1.9375 50,-1.9375 q 1.875,0 3.203125,-1.578125 1.34375,-1.59375 1.34375,-4.921875 0,-3.171875 -1.3125,-4.75 -1.296875,-1.578125 -3.109375,-1.578125 -1.796875,0 -3.1875,1.6875 -1.375,1.671875 -1.375,4.875 z M 60.78125,0 v -16.59375 h 2.53125 v 2.515625 q 0.96875,-1.765625 1.78125,-2.328125 0.828125,-0.5625 1.8125,-0.5625 1.421875,0 2.890625,0.90625 l -0.96875,2.609375 q -1.03125,-0.609375 -2.0625,-0.609375 -0.921875,0 -1.65625,0.5625 -0.734375,0.546875 -1.046875,1.53125 -0.46875,1.5 -0.46875,3.28125 V 0 Z m 22.046875,-5.34375 2.90625,0.359375 Q 85.046875,-2.4375 83.1875,-1.03125 81.328125,0.375 78.4375,0.375 q -3.640625,0 -5.78125,-2.234375 -2.125,-2.25 -2.125,-6.296875 0,-4.1875 2.15625,-6.5 2.15625,-2.3125 5.59375,-2.3125 3.328125,0 5.4375,2.265625 2.109375,2.265625 2.109375,6.375 0,0.25 -0.01563,0.75 h -12.375 q 0.15625,2.734375 1.546875,4.1875 Q 76.375,-1.9375 78.453125,-1.9375 80,-1.9375 81.09375,-2.75 82.1875,-3.5625 82.828125,-5.34375 Z M 73.59375,-9.890625 h 9.265625 q -0.1875,-2.09375 -1.0625,-3.140625 -1.34375,-1.625 -3.484375,-1.625 -1.9375,0 -3.265625,1.296875 -1.3125,1.296875 -1.453125,3.46875 z m 14.546875,4.9375 2.78125,-0.4375 q 0.234375,1.671875 1.296875,2.5625 1.078125,0.890625 3,0.890625 1.9375,0 2.875,-0.78125 0.9375,-0.796875 0.9375,-1.859375 0,-0.953125 -0.828125,-1.5 -0.578125,-0.375 -2.875,-0.953125 -3.09375,-0.78125 -4.296875,-1.34375 -1.1875,-0.578125 -1.8125,-1.578125 -0.609375,-1.015625 -0.609375,-2.234375 0,-1.109375 0.5,-2.046875 Q 89.625,-15.1875 90.5,-15.8125 q 0.65625,-0.484375 1.78125,-0.8125 1.140625,-0.34375 2.4375,-0.34375 1.953125,0 3.421875,0.5625 1.484375,0.5625 2.187505,1.53125 0.70312,0.953125 0.96875,2.5625 l -2.750005,0.375 q -0.1875,-1.28125 -1.09375,-2 -0.890625,-0.71875 -2.53125,-0.71875 -1.9375,0 -2.765625,0.640625 -0.828125,0.640625 -0.828125,1.5 0,0.546875 0.34375,0.984375 0.34375,0.453125 1.078125,0.75 0.421875,0.15625 2.484375,0.71875 2.984375,0.796875 4.15625,1.3125 1.187505,0.5 1.859375,1.46875 0.67188,0.96875 0.67188,2.40625 0,1.40625 -0.82813,2.65625 -0.8125,1.234375 -2.359375,1.921875 Q 97.1875,0.375 95.234375,0.375 92,0.375 90.296875,-0.96875 88.609375,-2.3125 88.140625,-4.953125 Z M 116.625,-5.34375 l 2.90625,0.359375 q -0.6875,2.546875 -2.54687,3.953125 -1.85938,1.40625 -4.75,1.40625 -3.64063,0 -5.78125,-2.234375 -2.125,-2.25 -2.125,-6.296875 0,-4.1875 2.15625,-6.5 2.15625,-2.3125 5.59375,-2.3125 3.32812,0 5.4375,2.265625 2.10937,2.265625 2.10937,6.375 0,0.25 -0.0156,0.75 h -12.375 q 0.15625,2.734375 1.54687,4.1875 1.39063,1.453125 3.46875,1.453125 1.54688,0 2.64063,-0.8125 1.09375,-0.8125 1.73437,-2.59375 z m -9.23437,-4.546875 h 9.26562 q -0.1875,-2.09375 -1.0625,-3.140625 -1.34375,-1.625 -3.48437,-1.625 -1.9375,0 -3.26563,1.296875 -1.3125,1.296875 -1.45312,3.46875 z M 123.0625,0 v -16.59375 h 2.53125 v 2.359375 q 1.82813,-2.734375 5.28125,-2.734375 1.5,0 2.75,0.546875 1.26562,0.53125 1.89062,1.40625 0.625,0.875 0.875,2.078125 0.15625,0.78125 0.15625,2.734375 V 0 h -2.8125 v -10.09375 q 0,-1.71875 -0.32812,-2.5625 -0.32813,-0.859375 -1.17188,-1.359375 -0.82812,-0.515625 -1.95312,-0.515625 -1.79688,0 -3.10937,1.140625 Q 125.875,-12.25 125.875,-9.0625 V 0 Z M 147,-2.515625 l 0.40625,2.484375 q -1.1875,0.25 -2.125,0.25 -1.53125,0 -2.375,-0.484375 Q 142.0625,-0.75 141.71875,-1.53125 141.375,-2.328125 141.375,-4.859375 v -9.546875 h -2.0625 v -2.1875 h 2.0625 v -4.109375 l 2.79687,-1.6875 v 5.796875 H 147 v 2.1875 h -2.82813 v 9.703125 q 0,1.203125 0.14063,1.546875 0.15625,0.34375 0.48437,0.546875 0.34375,0.203125 0.96875,0.203125 0.46875,0 1.23438,-0.109375 z m 13.57812,0.46875 q -1.5625,1.328125 -3.01562,1.875 Q 156.125,0.375 154.46875,0.375 q -2.73438,0 -4.20313,-1.328125 -1.46875,-1.34375 -1.46875,-3.421875 0,-1.21875 0.54688,-2.21875 0.5625,-1.015625 1.45312,-1.625 0.90625,-0.609375 2.03125,-0.921875 0.82813,-0.21875 2.5,-0.421875 3.40625,-0.40625 5.01563,-0.96875 0.0156,-0.578125 0.0156,-0.734375 0,-1.71875 -0.79687,-2.421875 -1.07813,-0.953125 -3.20313,-0.953125 -1.98437,0 -2.9375,0.703125 -0.9375,0.6875 -1.39062,2.453125 l -2.75,-0.375 q 0.375,-1.765625 1.23437,-2.84375 0.85938,-1.09375 2.48438,-1.671875 1.625,-0.59375 3.76562,-0.59375 2.125,0 3.45313,0.5 1.32812,0.5 1.95312,1.265625 0.625,0.75 0.875,1.90625 0.14063,0.71875 0.14063,2.59375 v 3.75 q 0,3.921875 0.17187,4.96875 0.1875,1.03125 0.71875,1.984375 h -2.9375 q -0.4375,-0.875 -0.5625,-2.046875 z m -0.23437,-6.28125 q -1.53125,0.625 -4.59375,1.0625 -1.73438,0.25 -2.45313,0.5625 -0.71875,0.3125 -1.10937,0.921875 -0.39063,0.59375 -0.39063,1.328125 0,1.125 0.84375,1.875 0.85938,0.75 2.5,0.75 1.625,0 2.89063,-0.703125 1.26562,-0.71875 1.85937,-1.953125 0.45313,-0.953125 0.45313,-2.8125 z m 13.34375,5.8125 0.40625,2.484375 q -1.1875,0.25 -2.125,0.25 -1.53125,0 -2.375,-0.484375 Q 168.75,-0.75 168.40625,-1.53125 168.0625,-2.328125 168.0625,-4.859375 V -14.40625 H 166 v -2.1875 h 2.0625 v -4.109375 l 2.79687,-1.6875 v 5.796875 h 2.82813 v 2.1875 h -2.82813 v 9.703125 q 0,1.203125 0.14063,1.546875 0.15625,0.34375 0.48437,0.546875 0.34375,0.203125 0.96875,0.203125 0.46875,0 1.23438,-0.109375 z m 2.76562,-17.15625 v -3.234375 h 2.8125 v 3.234375 z m 0,19.671875 v -16.59375 h 2.8125 V 0 Z M 182.5,-8.296875 q 0,-4.609375 2.5625,-6.828125 2.14062,-1.84375 5.21875,-1.84375 3.42187,0 5.59375,2.25 2.17187,2.234375 2.17187,6.1875 0,3.203125 -0.96875,5.046875 -0.95312,1.828125 -2.79687,2.84375 -1.82813,1.015625 -4,1.015625 -3.48438,0 -5.64063,-2.234375 Q 182.5,-4.09375 182.5,-8.296875 Z m 2.89062,0 q 0,3.1875 1.39063,4.78125 1.39062,1.578125 3.5,1.578125 2.09375,0 3.48437,-1.59375 1.39063,-1.59375 1.39063,-4.859375 0,-3.078125 -1.40625,-4.65625 -1.39063,-1.59375 -3.46875,-1.59375 -2.10938,0 -3.5,1.578125 -1.39063,1.578125 -1.39063,4.765625 z M 201.34375,0 v -16.59375 h 2.53125 v 2.359375 q 1.82812,-2.734375 5.28125,-2.734375 1.5,0 2.75,0.546875 1.26562,0.53125 1.89062,1.40625 0.625,0.875 0.875,2.078125 0.15625,0.78125 0.15625,2.734375 V 0 h -2.8125 v -10.09375 q 0,-1.71875 -0.32812,-2.5625 -0.32813,-0.859375 -1.17188,-1.359375 -0.82812,-0.515625 -1.95312,-0.515625 -1.79688,0 -3.10938,1.140625 -1.29687,1.140625 -1.29687,4.328125 V 0 Z m 25.64062,-8.296875 q 0,-4.609375 2.5625,-6.828125 2.14063,-1.84375 5.21875,-1.84375 3.42188,0 5.59375,2.25 2.17188,2.234375 2.17188,6.1875 0,3.203125 -0.96875,5.046875 -0.95313,1.828125 -2.79688,2.84375 -1.82812,1.015625 -4,1.015625 -3.48437,0 -5.64062,-2.234375 -2.14063,-2.234375 -2.14063,-6.4375 z m 2.89063,0 q 0,3.1875 1.39062,4.78125 1.39063,1.578125 3.5,1.578125 2.09375,0 3.48438,-1.59375 1.39062,-1.59375 1.39062,-4.859375 0,-3.078125 -1.40625,-4.65625 -1.39062,-1.59375 -3.46875,-1.59375 -2.10937,0 -3.5,1.578125 -1.39062,1.578125 -1.39062,4.765625 z M 246.5,0 v -14.40625 h -2.48438 v -2.1875 H 246.5 v -1.765625 q 0,-1.671875 0.29687,-2.484375 0.40625,-1.09375 1.42188,-1.765625 1.03125,-0.6875 2.875,-0.6875 1.1875,0 2.625,0.28125 l -0.42188,2.453125 q -0.875,-0.15625 -1.65625,-0.15625 -1.28125,0 -1.8125,0.546875 -0.53125,0.546875 -0.53125,2.046875 v 1.53125 h 3.23438 v 2.1875 h -3.23438 V 0 Z m 17.46875,0 v -22.90625 h 7.89062 q 2.67188,0 4.07813,0.328125 1.96875,0.453125 3.35937,1.640625 1.8125,1.53125 2.70313,3.921875 0.90625,2.375 0.90625,5.4375 0,2.609375 -0.60938,4.625 -0.60937,2.015625 -1.5625,3.34375 -0.95312,1.3125 -2.09375,2.078125 -1.125,0.75 -2.73437,1.140625 Q 274.3125,0 272.23437,0 Z M 267,-2.703125 h 4.89062 q 2.26563,0 3.54688,-0.421875 1.29687,-0.421875 2.0625,-1.1875 1.07812,-1.078125 1.67187,-2.890625 0.60938,-1.828125 0.60938,-4.421875 0,-3.59375 -1.1875,-5.515625 -1.17188,-1.9375 -2.85938,-2.59375 -1.21875,-0.46875 -3.92187,-0.46875 H 267 Z M 284.5625,0 293.35937,-22.90625 H 296.625 L 306,0 h -3.45313 L 299.875,-6.9375 h -9.57813 L 287.78125,0 Z m 6.60937,-9.40625 h 7.76563 L 296.54687,-15.75 q -1.09375,-2.890625 -1.625,-4.75 -0.4375,2.203125 -1.23437,4.375 z m 27.96875,0.421875 v -2.6875 l 9.70313,-0.01563 v 8.5 q -2.23438,1.78125 -4.60938,2.6875 -2.375,0.890625 -4.875,0.890625 -3.375,0 -6.14062,-1.4375 -2.75,-1.453125 -4.15625,-4.1875 -1.40625,-2.734375 -1.40625,-6.109375 0,-3.34375 1.39062,-6.234375 1.40625,-2.90625 4.03125,-4.3125 2.625,-1.40625 6.04688,-1.40625 2.48437,0 4.48437,0.8125 2.01563,0.796875 3.15625,2.234375 1.14063,1.4375 1.73438,3.75 l -2.73438,0.75 q -0.51562,-1.75 -1.28125,-2.75 -0.76562,-1 -2.1875,-1.59375 -1.42187,-0.609375 -3.15625,-0.609375 -2.07812,0 -3.59375,0.640625 -1.51562,0.625 -2.45312,1.65625 -0.92188,1.03125 -1.4375,2.265625 -0.875,2.125 -0.875,4.609375 0,3.0625 1.04687,5.125 1.0625,2.0625 3.07813,3.0625 2.01562,1 4.28125,1 1.96875,0 3.84375,-0.75 1.875,-0.765625 2.84375,-1.625 V -8.98438 Z"
       id="text26"
       style="font-size:32px;font-family:Arial, Arial_MSFontService, sans-serif"
       transform="translate(712.485,142)"
       aria-label="Representation of DAG" />
  </g>
  <path
     id="rect26"
     clip-path="url(#clipPath29)"
     style="opacity:0;fill:#ffffff;stroke:#000000;stroke-width:3.024"
     transform="translate(-73.657288,-96.368286)"
     d="M 73.04348,91.457802 H 1073.5552 V 527.26344 H 73.04348 Z" />
</svg>
